<?xml version="1.0" encoding="UTF-8" standalone="no"?>
<!-- Uploaded to: SVG Repo, www.svgrepo.com, Generator: SVG Repo Mixer Tools -->

<svg
   width="800px"
   height="800px"
   viewBox="0 0 64 64"
   aria-hidden="true"
   role="img"
   class="iconify iconify--emojione"
   preserveAspectRatio="xMidYMid meet"
   version="1.1"
   id="svg28"
   xml:space="preserve"
   xmlns:xlink="http://www.w3.org/1999/xlink"
   xmlns="http://www.w3.org/2000/svg"
   xmlns:svg="http://www.w3.org/2000/svg"><defs
     id="defs28"><rect
       x="627.5397"
       y="177.69045"
       width="500.20152"
       height="353.82247"
       id="rect19" /><rect
       x="273.55865"
       y="419.88072"
       width="254.47316"
       height="92.246521"
       id="rect19-1" /><rect
       x="43.953083"
       y="475.34445"
       width="310.92737"
       height="71.627243"
       id="rect6" /><rect
       x="43.953083"
       y="475.34445"
       width="310.92737"
       height="71.627243"
       id="rect6-1" /><rect
       x="372.54871"
       y="808.20676"
       width="394.94235"
       height="85.502982"
       id="rect32" /><linearGradient
       id="linearGradient31"><stop
         style="stop-color:#800000;stop-opacity:1"
         offset="0"
         id="stop31" /><stop
         style="stop-color:#aa0000;stop-opacity:1"
         offset="1"
         id="stop32" /></linearGradient><linearGradient
       xlink:href="#linearGradient31"
       id="linearGradient32"
       x1="492.97247"
       y1="69.294426"
       x2="683.91821"
       y2="111.69245"
       gradientUnits="userSpaceOnUse" /></defs><g
     id="g21"><g
       id="g20"><g
         id="g8"><g
           id="g4"><g
             id="g19"
             transform="matrix(0.11827642,0,0,0.11660689,-16.632817,2.2043011)"><path
               style="fill:#d4aa00"
               d="m 353.107,194.207 c -2.10719,-26.12042 7.54793,-57.40823 -14.09211,-77.75337 C 320.82208,92.677984 294.21803,73.973357 282.487,46.254 c 6.39871,-19.619336 -8.11909,-21.717602 -23.12121,-19.77 -9.94827,0 -19.89653,0 -29.84479,0 7.13361,36.155993 -30.40793,55.023089 -48.30253,80.72856 -22.97456,17.16378 -24.75097,45.56013 -22.04611,71.66845 5.59665,25.72396 -2.0059,49.56511 3.89537,74.47814 -5.98083,24.82596 1.93652,50.12125 -3.00674,74.77529 6.78907,23.29931 -4.78847,44.58196 3.32299,68.18224 -8.29488,21.34094 4.02803,44.46791 -4.59521,66.39623 -4.16641,23.66822 10.35721,50.54438 36.90727,49.29924 44.27612,-1.0212 88.86596,1.98631 132.98052,-1.59627 26.17185,-8.14056 27.77789,-40.63875 23.19168,-62.97974 -8.9888,-20.24915 8.78847,-40.70268 -5.06436,-62.04741 16.13508,-18.68917 -6.74165,-41.26106 6.5264,-60.33966 -10.30817,-24.86305 6.39748,-46.91575 -6.5264,-72.07734 17.41203,-18.69965 -8.00006,-39.99407 6.30312,-58.76473 z"
               id="path1-8" /><path
               style="fill:#ffcc00"
               d="m 238.348,273.655 c 38.253,0 76.506,0 114.759,0 -2.45917,-29.04676 -38.15277,-14.31065 -57.46918,-17.67204 -21.34541,-3.30391 -52.04145,8.50737 -66.1006,-8.71995 -4.28199,-22.76121 20.68853,-17.23384 34.82315,-17.74701 29.58221,0 59.16442,0 88.74663,0 -2.45924,-29.04676 -38.15276,-14.31065 -57.46918,-17.67204 -21.15407,-2.84268 -49.77234,7.21166 -65.37149,-7.09253 -0.59558,-29.33876 -3.6981,-59.93912 4.21894,-88.73895 9.10784,-20.046553 11.67006,-43.793778 23.59678,-61.992235 15.33332,-0.109036 29.82745,0.900418 24.84225,-19.288946 0.22427,-14.10796 -18.6083,-6.168019 -27.89884,-8.248299 -7.86441,2.258895 -25.45907,-5.133682 -25.46548,4.919613 3.9636,35.490894 -34.7729,53.392695 -51.84793,79.828787 -22.81976,17.18281 -19.31174,46.35806 -18.6116,71.35807 7.13223,26.22199 -3.25313,50.22607 4.5525,76.00644 -8.10784,22.74924 2.41308,46.73354 -3.59339,69.53332 6.78576,23.29904 -4.78607,44.58248 3.32143,68.18224 -8.29089,21.34076 4.02604,44.46665 -4.59322,66.39444 -4.16641,23.66822 10.35721,50.54438 36.90727,49.29924 14.08813,-3.25343 59.92564,10.22264 35.90417,-15.06577 -3.37763,-15.68216 -9.14958,-51.36767 16.86782,-46.73338 34.87999,0 69.75998,0 104.63997,0 -2.45924,-29.04676 -38.15276,-14.31065 -57.46918,-17.67204 -21.34541,-3.30391 -52.04145,8.50737 -66.1006,-8.71995 -4.28199,-22.76121 20.68853,-17.23384 34.82315,-17.74701 29.58221,0 59.16442,0 88.74663,0 -2.45924,-29.04676 -38.15276,-14.31065 -57.46918,-17.67204 -21.34541,-3.30391 -52.04145,8.50737 -66.1006,-8.71995 -4.28199,-22.76121 20.68853,-17.23384 34.82315,-17.74701 29.58221,0 59.16442,0 88.74663,0 -2.45924,-29.04676 -38.15276,-14.31065 -57.46918,-17.67204 -21.34541,-3.30391 -52.04145,8.50737 -66.1006,-8.71995 -4.28199,-22.76121 20.68853,-17.23384 34.82315,-17.74701 29.58221,0 59.16442,0 88.74663,0 -2.45924,-29.04676 -38.15276,-14.31065 -57.46918,-17.67204 -21.13215,-2.63139 -48.93004,6.63558 -65.25977,-6.38927 -2.49162,-6.85076 -1.70075,-19.71793 7.96995,-20.07269 z"
               id="path2-57" /><g
               id="g9"
               style="fill:#ffd42a">
	<path
   style="fill:#ffd42a"
   d="m 326.624,247.172 c -47.08033,0 -94.16067,0 -141.241,0 -22.80419,-16.9523 16.12756,-19.84912 30.33949,-17.656 38.2076,0.47568 76.59689,-0.95757 114.68938,0.72761 8.09563,3.48176 5.4888,17.61723 -3.78787,16.92839 z"
   id="path3-6" />
	<path
   style="fill:#ffd42a"
   d="m 326.624,335.448 c -47.08033,0 -94.16067,0 -141.241,0 -22.80419,-16.9523 16.12756,-19.84912 30.33949,-17.656 38.2076,0.47568 76.59689,-0.95757 114.68938,0.72761 8.09563,3.48176 5.4888,17.61723 -3.78787,16.92839 z"
   id="path4-18" />
	<path
   style="fill:#ffd42a"
   d="m 326.624,423.724 c -47.08033,0 -94.16067,0 -141.241,0 -22.80419,-16.9523 16.12756,-19.84912 30.33949,-17.656 38.2076,0.47568 76.59689,-0.95757 114.68938,0.72761 8.09563,3.48176 5.4888,17.61723 -3.78787,16.92839 z"
   id="path5-9" />
	<path
   style="fill:#ffd42a"
   d="m 317.796,494.345 c -43.35402,-0.82751 -87.09114,1.68127 -130.20464,-1.30211 -21.71608,-12.77808 -12.53405,-54.99621 16.8733,-42.54979 41.84333,-0.18283 83.74998,-1.03342 125.59536,0.40773 10.53704,11.50141 7.90468,43.93316 -12.26402,43.44417 z"
   id="path6-27" />
	<path
   style="fill:#ffd42a"
   d="m 326.624,291.31 c -47.08033,0 -94.16067,0 -141.241,0 -22.80419,-16.9523 16.12756,-19.84912 30.33949,-17.656 38.2076,0.47568 76.59689,-0.95757 114.68938,0.72761 8.09563,3.48176 5.4888,17.61723 -3.78787,16.92839 z"
   id="path7-9" />
	<path
   style="fill:#ffd42a"
   d="m 326.624,379.586 c -47.08033,0 -94.16067,0 -141.241,0 -22.80419,-16.9523 16.12756,-19.84912 30.33949,-17.656 38.2076,0.47568 76.59689,-0.95757 114.68938,0.72761 8.09563,3.48176 5.4888,17.61723 -3.78787,16.92839 z"
   id="path8-54" />
	<path
   style="fill:#ffd42a"
   d="m 326.624,203.034 c -47.08033,0 -94.16067,0 -141.241,0 -15.30754,-11.8456 -10.90695,-44.94771 -3.43602,-61.10017 48.4282,-1.25833 97.02443,-0.95595 145.37964,-0.12518 15.25386,11.27248 8.6942,43.54356 4.1747,59.75158 l -2.32507,1.10426 z"
   id="path9-3" />
</g><g
               id="g16"
               style="fill:#aa8800">
	<path
   style="fill:#aa8800"
   d="m 229.521,145.838 c -13.73024,-7.85501 -62.26219,-13.23781 -52.89792,18.301 -4.05878,21.04943 0.11184,47.86336 27.84158,38.6099 17.55373,4.63865 29.56569,-1.45834 25.05634,-19.94556 0,-12.32178 0,-24.64356 0,-36.96534 z"
   id="path10-12" />
	<path
   style="fill:#aa8800"
   d="m 229.521,238.345 c 15.84396,-17.89159 -26.66736,-4.89321 -36.77599,-8.84324 -24.27069,-4.28453 -14.69616,25.30839 5.11642,18.28984 10.48656,-1.25512 21.11098,-0.34 31.65957,-0.6186 0,-2.94267 0,-5.88533 0,-8.828 z"
   id="path11-3" />
	<path
   style="fill:#aa8800"
   d="m 229.521,282.483 c 15.84396,-17.89159 -26.66736,-4.89321 -36.77599,-8.84324 -24.27069,-4.28453 -14.69616,25.30839 5.11642,18.28984 10.48656,-1.25512 21.11098,-0.34 31.65957,-0.6186 0,-2.94267 0,-5.88533 0,-8.828 z"
   id="path12-3" />
	<path
   style="fill:#aa8800"
   d="m 229.521,326.621 c 15.84396,-17.89159 -26.66736,-4.89321 -36.77599,-8.84324 -24.27069,-4.28453 -14.69616,25.30839 5.11642,18.28984 10.48656,-1.25512 21.11098,-0.34 31.65957,-0.6186 0,-2.94267 0,-5.88533 0,-8.828 z"
   id="path13-4" />
	<path
   style="fill:#aa8800"
   d="m 229.521,414.897 c 15.84396,-17.89159 -26.66736,-4.89321 -36.77599,-8.84324 -24.27069,-4.28453 -14.69616,25.30839 5.11642,18.28984 10.48656,-1.25512 21.11098,-0.34 31.65957,-0.6186 0,-2.94267 0,-5.88533 0,-8.828 z"
   id="path14-1" />
	<path
   style="fill:#aa8800"
   d="m 229.521,370.759 c 15.84396,-17.89159 -26.66736,-4.89321 -36.77599,-8.84324 -24.27069,-4.28453 -14.69616,25.30839 5.11642,18.28984 10.48656,-1.25512 21.11098,-0.34 31.65957,-0.6186 0,-2.94267 0,-5.88533 0,-8.828 z"
   id="path15-1" />
	<path
   style="fill:#aa8800"
   d="m 176.555,459.034 c -9.71152,33.98663 24.43428,39.90729 49.66475,35.26778 12.92617,-4.04656 -6.70535,-35.56276 9.68301,-43.88204 -16.45245,4.24543 -51.56215,-9.96558 -59.34776,8.61426 z"
   id="path16-3" />
</g><path
               style="fill:#00aad4"
               d="M 282.486,35.31 C 262.70207,30.4767 227.83604,47.014795 220.44768,22.579606 214.82732,-12.00261 257.94199,2.7939831 278.48064,0.31416954 295.73104,-3.4449325 296.31571,32.820257 282.486,35.31 Z"
               id="path17-8" /><path
               style="fill:#00ccff"
               d="M 247.176,26.483 C 242.79349,9.8890771 263.05718,-6.3556734 236.02731,-0.31593816 208.2016,-1.1212523 218.90689,47.955095 246.02412,35.389673 262.37802,36.274439 245.34043,34.478716 247.176,26.483 Z"
               id="path18-7" /><rect
               style="fill:#00ccff;stroke-width:0.667333"
               id="rect18"
               width="190.34853"
               height="97.719032"
               x="160.32028"
               y="242.26176"
               ry="48.859516"
               rx="19.920197" /><text
               xml:space="preserve"
               transform="matrix(2.4493548,0,0,3.6454932,-496.38278,-1267.4478)"
               id="text18-4"
               style="writing-mode:lr-tb;direction:ltr;white-space:pre;shape-inside:url(#rect19-1);display:inline;fill:#aa0000"><tspan
                 x="273.55859"
                 y="430.82882"
                 id="tspan4"><tspan
                   style="fill:#ff0000"
                   id="tspan3">Sun Flower</tspan></tspan></text></g><g
             id="g36"
             transform="matrix(1.2298857,0,0,1.2926801,-13.063135,-21.140631)"><g
               id="g35"><g
                 id="g33"><g
                   id="g32"><g
                     id="g31"><g
                       id="g30"><g
                         id="g29"><g
                           id="g28"><g
                             id="g27"><g
                               id="g26"><g
                                 id="g25"><g
                                   id="g24"><path
                                   style="fill:#e6e6e6;stroke-width:0.08"
                                   d="m 34.818331,45.614714 c -0.11105,-2.164969 0.183344,-4.397067 -0.632071,-6.464409 -0.706559,-2.798967 -0.04885,-5.714449 -0.501551,-8.513237 0.720119,-0.462301 1.788529,-0.08771 2.656055,-0.186315 6.990009,0.106312 13.980019,0.212623 20.970029,0.318935 -1.70804,1.998361 -3.942477,3.78794 -4.431099,6.527415 -0.361195,2.075577 -1.981365,3.713916 -4.163974,3.184114 -2.909704,0.141591 -5.828914,0.008 -8.727965,-0.141831 -2.223442,0.288925 -1.435588,3.174297 -1.616653,4.770893 -0.03045,1.668689 -2.264666,1.051492 -3.354282,0.567953 l -0.128234,-0.04104 -0.07025,-0.02248 z"
                                   id="path1" /><path
                                   style="fill:#d5d4ce;stroke-width:0.0750848"
                                   d="m 41.825543,62.161275 c -1.512365,-0.07214 -5.008366,-0.09073 -5.333305,-0.309823 7.257493,-0.07507 14.516232,0.0036 21.773026,-0.14357 1.200186,-0.869962 -0.215504,-4.487731 2.450419,-2.791482 1.977024,2.099661 -1.893131,3.517133 -3.592578,2.963272 -5.08296,0.514016 -10.199044,0.320881 -15.297562,0.281603 z m -8.116752,-0.438761 c 1.001696,-0.283233 1.235663,0.408897 0,0 z m -0.182965,-1.211772 c 0.04045,-1.304946 0.05597,0.940063 0,0 z M 58.297663,58.29392 c -0.529183,-0.811026 0.315134,0.130401 0,0 z m -0.423567,-1.331678 c 0.127941,-0.234962 -0.04686,0.387921 0,0 z m -0.534751,-1.697376 c 0.127941,-0.234964 -0.04686,0.387921 0,0 z M 34.956208,55.117268 c 0.127941,-0.234964 -0.04686,0.387921 0,0 z M 57.268982,54.93892 c 0.05613,-0.416259 0.05613,0.416259 0,0 z M 35.038631,54.717523 c 0.05613,-0.416259 0.05613,0.416259 0,0 z m 22.15962,-0.221397 c 0.04205,-0.507699 0.04205,0.507699 0,0 z m -13.348295,-0.07252 c 0.841877,0.0017 3.986365,-0.03974 1.612117,-0.105107 -2.205602,-0.536426 -4.964944,0.947718 -6.763488,-0.888612 -0.792739,-2.233987 -0.203623,-4.818079 -0.350863,-7.190197 0.610161,2.422603 -0.940227,5.319834 0.847961,7.420142 2.874061,1.046953 6.233726,0.113968 9.295023,0.534445 2.092089,0.313441 5.767926,-0.05976 4.935412,-3.035418 -0.04169,-1.181047 -0.238114,-4.372803 0.176849,-4.127449 -0.382751,2.313095 1.183286,5.863046 -1.118202,7.271619 -2.01187,0.162555 -3.747043,-0.224145 -4.986911,0.170358 -1.32873,-0.05119 -4.504355,0.02532 -4.564372,-0.03665 l 0.385127,-0.0061 0.531344,-0.007 z m 9.786002,-1.668185 c -0.05708,-1.408931 -0.212984,1.594535 0,0 z m -0.07011,-3.955648 c -0.236808,0.139853 0.391293,0.344645 0,0 z m -14.275599,5.572146 c 0.331922,-0.368327 0.149022,0.226963 0,0 z m -0.79506,-0.41083 c -0.332843,-0.471354 0.713023,0.755545 0,0 z m 18.628208,-0.239847 c 0.108846,-0.479207 -0.04662,0.808569 0,0 z M 44.61155,53.620582 c 0.599793,-0.808872 1.183338,0.503434 0,0 z m -4.46617,-0.212991 c 0.341787,-1.694488 1.053618,0.320481 0,0 z m 9.09028,0.140995 c 0.390737,-0.812416 1.05978,0.405265 0,0 z M 35.041462,53.352242 c 0.09306,-0.39235 -0.01199,0.532647 0,0 z m 4.18672,-0.0369 c 0.234379,-0.404769 0.248006,0.422521 0,0 z m 6.299278,-0.152508 c 2.61e-4,-0.477934 0.294403,0.367183 0,0 z m -0.702575,-0.171766 c -1.128537,-1.326655 0.985869,-0.467934 0,0 z m 1.204021,0.03077 c -0.576925,-1.029151 0.93648,0.359603 0,0 z m -7.922167,-0.370686 c 0.04368,-0.97406 0.03847,0.984172 0,0 z m 19.097461,0.0369 c 0.104634,-0.75439 -0.03026,1.135782 0,0 z m -22.241962,-0.0369 c 0.05613,-0.416259 0.05613,0.416259 0,0 z m 4.285042,0.0715 c -0.328753,-2.273093 -0.926354,-4.52969 -0.490114,-6.832632 -0.520854,-1.657393 -0.544743,-6.558847 2.193938,-4.364256 0.197739,0.727165 -0.714473,1.027133 0.416738,0.933146 -1.825799,0.91331 0.565522,1.059072 0.890179,0.718221 0.06539,0.645963 -3.25759,0.816254 -1.232973,1.826638 0.204483,0.921417 0.566498,2.319546 -0.345354,3.617838 -0.927058,1.257703 1.414564,3.278231 -0.77743,3.04636 -0.07267,0.47407 0.340073,1.727309 -0.654984,1.054685 z m 0.611144,-1.477105 c 1.330079,-1.19172 -1.552913,-0.175722 0,0 z M 39.356946,50.42432 c 0.591097,-1.116226 -0.86263,0.690723 0,0 z m 0.654264,-0.481403 c 0.821526,-1.168024 -1.026634,0.503801 0,0 z m -0.401063,0.01457 c -0.147487,-0.387795 -0.163914,0.372442 0,0 z m -0.229179,-0.442793 c 0.04829,-0.985648 -0.70957,0.170283 0,0 z m 0.534751,-0.110699 c -0.23438,-0.404768 -0.248006,0.422522 0,0 z m 0.234201,-0.371591 c -0.331023,-1.035465 -1.050606,0.533769 0,0 z m -0.936143,-0.443073 c 1.078907,-1.400118 -0.82412,-0.0166 0,0 z m 1.20261,-0.224952 c -0.30958,-0.675302 -0.552173,0.558789 0,0 z m -1.340991,-0.505807 c 1.790291,-0.97777 0.606146,-4.273769 0.893187,-5.276426 -0.07804,-1.384904 -0.912643,-1.539287 -0.944506,0.02352 -0.100378,1.751493 0.228314,3.504882 0.05132,5.252901 z m 0.343768,-2.280277 c 0.248295,-0.505468 0.353193,0.302602 0,0 z m 0.954912,2.390976 c -0.158726,-0.333297 -0.267811,0.353923 0,0 z m 0.229179,-0.631647 c 1.044343,-1.432057 -1.169644,0.187681 0,0 z m 0.461379,-1.037284 c -0.214885,-0.893774 -0.750968,1.050577 0,0 z m -0.996129,0.04703 c 0.501713,-0.889307 -0.619085,0.407071 0,0 z m -0.76393,-2.389743 c -0.274183,-0.795337 -0.771099,0.469097 0,0 z m 7.982731,8.766797 c 0.219342,-0.482303 0.437464,0.386721 0,0 z m -1.01632,-0.329864 c -0.531355,-0.795037 1.083983,0.984151 0,0 z m -5.613945,0.03345 c 0.119655,-1.150181 1.013916,0.548918 0,0 z m -5.768365,-0.404151 c 0.09307,-0.39235 -0.01199,0.532644 0,0 z m 16.104022,0.05091 c 0.348812,-0.994431 1.38256,-0.06372 0,0 z m -9.090762,-0.01886 c 0.02757,-0.971253 0.981331,0.202084 0,0 z m 6.800828,-0.08798 c 0.01708,-0.849302 1.049418,0.714978 0,0 z M 38.09718,51.876263 c 0.09306,-0.392349 -0.01208,0.532655 0,0 z m 5.06524,0.05402 c -1.322237,0.419903 -1.701177,-2.377461 -0.70366,-0.60606 0.128999,0.144902 1.549842,0.361253 0.70366,0.60606 z M 57.281372,51.54417 c 0.04368,-0.974057 0.03847,0.984174 0,0 z m -6.767257,0.324857 c -0.332764,-0.740685 0.926824,-0.179161 0,0 z m -3.890139,-0.08007 c 0.331921,-0.368326 0.149021,0.226962 0,0 z m -3.09869,-0.234967 c -0.720691,-0.841031 0.753612,0.347383 0,0 z m 1.203189,-0.144022 c -0.05602,-0.413803 0.338145,0.115595 0,0 z m 2.01224,-0.04626 c 0.567033,-0.91118 1.198514,0.07324 0,0 z M 34.820282,50.953775 c 0.04483,-0.825481 0.03973,0.834062 0,0 z m 9.451534,0.274431 c 0.16132,-1.206 1.439521,-0.112254 0,0 z m 4.445828,-0.274431 c 0.829316,-0.93499 0.62724,1.137847 0,0 z m 2.36414,0.158603 c 0.226335,-0.46004 0.627277,0.315468 0,0 z m -7.761239,-0.406497 c -1.373139,-0.388462 -0.914288,-2.316448 0.0057,-0.531159 0.429519,0.205436 0.860728,0.871992 -0.0057,0.531159 z m 2.973986,0.247894 c 0.313337,-0.304712 0.237517,0.494234 0,0 z m 1.474384,-0.01476 c 0.386982,-0.417983 0.06617,0.424212 0,0 z m 1.982397,-0.262594 c -0.657551,-0.685946 1.006138,0.548656 0,0 z m 7.61144,-0.755832 c -0.07692,-1.055636 0.03729,1.404153 0,0 z M 38.022119,48.282918 c -0.116478,-1.135471 0.177721,-1.923418 0.07775,-0.333971 0.02031,0.654632 -0.109772,1.756817 -0.07775,0.333971 z m 3.147908,2.070812 c -0.02738,-0.551571 0.476791,0.322932 0,0 z m 4.59688,-0.15051 c -0.820488,-0.78156 0.427003,-0.420287 0.273454,0.06445 z m -0.871335,-0.182999 c -0.300824,-1.371354 1.258165,-1.379141 0,0 z m 2.277478,-0.0431 c 0.171884,-1.189948 1.216525,-0.255912 0,0 z m 1.046167,0.08286 c 0.351278,-0.797185 0.678235,0.678915 0,0 z M 34.746065,49.367098 c 0.09931,-0.884346 -0.02641,1.313044 0,0 z m 6.63221,0.375624 c -0.949094,0.18717 -0.246956,-0.467687 0.138185,-0.139741 z m 4.693728,-0.05584 c -1.025749,-1.31606 1.204233,-0.749921 0,0 z m 0.872351,-0.190634 c 0.171301,-0.5722 0.554296,0.08351 0,0 z m -2.759291,-0.258297 c -0.917715,-0.633312 0.395686,-1.583025 0.08772,-0.196561 0.492838,0.214512 -0.03852,0.518856 -0.08772,0.196561 z m -1.06084,-0.05535 c 0.161318,-0.350664 0.161318,0.350664 0,0 z M 41.768248,48.85211 c -0.478969,-0.889623 0.989228,0.541327 0,0 z m 6.604266,-0.23275 c -0.106694,-0.499566 0.470645,0.295555 0,0 z m -2.11618,-0.322346 c 0.161317,-0.350664 0.161319,0.350662 0,0 z m -1.378422,-0.0094 c -0.343819,-0.722349 0.523578,-0.889739 0,0 z m 0.881868,-0.211983 c 0.246134,-0.407663 0.362982,0.348364 0,0 z m -4.19131,-0.152955 c -0.721358,-0.977112 0.902272,0.510713 0,0 z m 1.001904,-0.04352 c 0.245436,-0.327283 0.206293,0.229912 0,0 z m 6.130535,-0.24632 c 0.199274,-0.331442 0.34681,0.263743 0,0 z m 2.750147,-0.110699 c 0.176764,-0.349691 0.134741,0.438564 0,0 z m -9.01437,-0.191406 c -0.336436,-0.916384 1.222296,0.770364 0,0 z m -0.762397,-0.105573 c 0.361586,-0.489747 -0.02144,0.363064 0,0 z m 9.207623,-0.239783 c -0.430848,-0.743863 0.606154,-0.200519 0,0 z M 44.03859,46.855199 c -0.748717,-0.479658 1.011954,0.01005 0,0 z m 3.233077,-0.255563 c -0.746091,-0.590754 0.408795,-0.291188 0,0 z m -5.048215,-0.01763 c -0.610927,-1.723859 1.258398,0.162068 0,0 z m 2.275844,-0.366397 c -8.57e-4,-0.91117 0.896445,-0.05747 0,0 z m 2.035069,-0.03617 c -0.512485,-0.792418 0.755942,-0.35578 0,0 z M 34.656666,45.861647 c 0.05613,-0.41626 0.05613,0.416259 0,0 z m 16.870783,0.08283 c -0.01489,-0.780967 0.485875,0.0461 0,0 z m -3.590469,-0.07748 c 0.550034,-1.016104 1.428803,0.283854 0,0 z m -11.095187,-0.05755 c 0.579132,-0.392023 0.326265,0.245655 0,0 z m 1.029039,-0.169201 c 0.04205,-0.507701 0.04205,0.507698 0,0 z m -1.712692,0.09718 c 0.331922,-0.368328 0.149022,0.226962 0,0 z m 17.780842,-0.0061 c 0.05453,-2.317528 0.504406,-6.484511 -3.148512,-5.7293 -0.973752,-0.01333 -2.313444,0.0091 -0.525779,0.02125 3.225763,-0.897718 2.360289,-5.467772 5.086601,-7.163353 0.333282,-1.160364 3.0396,-2.590257 1.748473,-0.479401 -2.098007,2.23827 -1.108467,5.465731 -1.256077,8.193229 -0.130109,1.651692 1.13603,5.911427 -1.904706,5.15757 z m -18.468379,-0.0677 c 0.331922,-0.368328 0.149022,0.226962 0,0 z m 21.837389,-0.108958 c 0.07355,-3.985689 -0.639357,-8.020771 0.03479,-11.973393 0.185911,-0.953655 1.207922,-3.220666 0.458412,-0.943507 -1.271482,3.859389 -0.193089,7.943846 -0.41174,11.906281 -0.01729,0.33624 0.04246,0.686227 -0.08146,1.010619 z m -13.668116,-0.07638 c 0.828478,-0.696876 -0.196197,0.450315 0,0 z m 0.989542,-0.167829 c 0.635484,-0.802607 -0.160275,0.539195 0,0 z m -1.963553,-0.0023 c 0.529993,-0.758604 0.870944,0.578333 0,0 z M 46.9463,45.156212 c -0.08442,-0.56231 0.438827,-0.04141 0,0 z m -4.415672,-0.120313 c 0.367357,-0.985005 0.955978,0.353078 0,0 z m -0.934264,-0.115887 c 0.288192,-0.671701 0.761771,-0.226439 0,0 z m 6.054142,-0.107823 c -0.690719,-0.550553 0.799758,0.281185 0,0 z m -9.764543,-1.681104 c 0.02822,-1.878228 0.04956,1.776674 0,0 z m 7.033465,1.444762 c -1.231633,-0.188601 0.819758,-0.307794 0,0 z m 3.934267,-0.134316 c -0.08432,-0.556717 0.612306,-0.263548 0,0 z m -3.055718,-0.116182 c -1.170855,-0.457575 1.26934,-0.287482 0,0 z m -2.864736,-0.158023 c 0.47342,-0.752849 1.186026,0.560859 0,0 z m 4.316202,0.01541 c 0.509187,-0.810268 1.196793,0.338703 0,0 z m -4.232795,-0.515985 c 0.278696,-0.631762 0.917387,0.09689 0,0 z m 5.14951,-0.197994 c 0.02819,-0.521906 0.375375,0.255009 0,0 z m -3.781451,-0.337674 c -1.360461,-0.410846 1.366586,0.02209 0,0 z m 7.150704,-0.08055 c -0.689774,-0.645152 1.141191,0.613235 0,0 z m -8.615098,-0.05547 c -0.323934,-1.326125 1.510535,0.350029 0,0 z m 5.412622,-0.01736 c -0.343779,-0.812492 0.416366,-0.245301 0.164222,0.109082 z m -1.522752,0.0275 c 0.330249,-0.553074 0.597993,0.510517 0,0 z M 45.525242,42.73831 c -0.362284,-1.261192 1.361459,-0.476714 0,0 z m -0.720374,-0.188106 c -0.848999,-1.116809 1.380306,-0.505554 0,0 z m 5.327773,-0.09251 c -1.188428,-0.616932 0.62019,0.03139 0,0 z m -6.439585,-0.144826 c 0.275196,-0.977658 1.098333,0.270476 0,0 z M 41.672757,42.0241 c 0.330905,-0.973259 1.128123,0.187366 0,0 z m 9.54912,-0.0738 c 0.0027,-0.310819 0.395466,0.57221 0,0 z m -3.896041,-0.286242 c 0.237729,-0.578013 0.692778,0.2294 0,0 z m -0.237299,-0.381646 c 0.853141,-0.63456 -0.432851,0.570502 0,0 z m -4.198006,-0.112255 c 0.427654,-0.455516 0.412546,0.578768 0,0 z m 3.275087,-0.0019 c 1.247148,-0.350391 -0.803794,0.399742 0,0 z m -8.006937,-0.495636 c 0.24673,-0.222632 0.77642,-0.700589 0,0 z m 0.978784,-0.617712 c 0.331922,-0.368327 0.149022,0.226963 0,0 z m 2.405355,-0.07839 c 0.992951,-0.114212 1.488284,0.12809 0,0 z m 3.014662,0.0028 c 0.579132,-0.392023 0.326265,0.245655 0,0 z m 1.010456,-0.486194 c 0.0633,-1.118155 0.05548,1.057864 0,0 z m 0.564204,0.430126 c 1.439613,-0.30505 1.041799,0.430533 0,0 z m -0.153878,-1.204697 c -0.453187,-0.485131 0.997655,0.208747 0,0 z m 0.513615,-0.26372 c 0.296373,-0.450462 0.71802,-0.05962 0,0 z M 44.71784,38.255973 c -0.393482,-0.433709 0.887824,0.722603 0,0 z m 2.378817,-0.180118 c 0.794243,-0.911159 -0.283296,0.515653 0,0 z m -1.565194,-0.673277 c -0.03982,-0.46065 0.570559,1.229152 0,0 z m -1.331707,0.0029 c 0.127941,-0.234964 -0.04686,0.387921 0,0 z m 3.284897,0 c 0.127941,-0.234964 -0.04686,0.387921 0,0 z m -1.266515,-0.10455 c 0.59214,-0.789886 -0.11861,0.394036 0,0 z m -1.29868,-0.339235 c -0.41979,-0.370527 1.22054,0.556049 0,0 z m 0.821224,0.03813 c 0.548194,-0.56462 0.179849,0.436547 0,0 z m 0.744831,0.05071 c 0.07587,-0.34155 0.262397,0.198199 0,0 z m 0.993109,-0.06449 c -0.723111,0.08074 -0.16083,-0.412389 0,0 z m -3.265631,-0.0541 c 0.155417,-0.67336 0.387583,0.23709 0,0 z m 2.807273,-0.258296 c 0.865932,-0.92529 -0.540387,0.724 0,0 z m -2.487577,-0.129148 c -0.609779,-0.700089 0.908824,0.894988 0,0 z m 1.123524,-0.405895 c -0.01476,-0.506986 0.361343,1.157044 0,0 z m 1.828442,-0.209097 c 0.127941,-0.234962 -0.04686,0.387922 0,0 z m -3.36129,-0.295195 c 0.127941,-0.234964 -0.04686,0.387921 0,0 z m 1.369042,-0.08723 c 0.642772,-0.448814 0.67855,0.353978 0,0 z m 1.986217,-0.07882 c -0.712672,0.286606 -0.03235,-0.422147 0,0 z m -3.240117,-0.0964 c 0.495693,-0.36154 0.74779,0.319128 0,0 z m 2.781759,-0.174202 c 0.865932,-0.92529 -0.540387,0.724 0,0 z m -2.530712,-0.166047 c 0.02412,-0.282778 0.424095,0.794598 0,0 z m -0.184379,-0.244757 c -0.130021,-0.39074 0.264452,0.283474 0,0 z m -0.105417,-0.333335 c 0.127941,-0.234962 -0.04686,0.387921 0,0 z m 1.307292,-0.03552 c -0.04608,-0.443084 0.384994,0.539874 0,0 z m 0.549416,-0.04884 c 0.744034,-0.609628 -0.197521,0.386046 0,0 z m -1.850287,-0.804493 c -0.285826,-1.003035 1.04724,0.749292 0.225982,-0.443534 -0.205804,0.06239 -0.181315,1.21613 -0.225982,0.443534 z m 2.911286,-0.02748 c 0.03886,-0.64994 0.03886,0.649937 0,0 z M 46.428385,33.42652 c 0.108846,-0.479207 -0.04662,0.808569 0,0 z m 1.050237,-0.254603 c -0.791952,0.260277 0.0063,-0.318194 0,0 z m -1.340186,-0.525458 c -0.646702,0.0014 -0.0035,-0.378668 0,0 z M 34.47272,30.75262 l 0.486405,0.01385 z m 1.791371,-8.56e-4 c 1.347184,-0.08627 1.377931,0.0989 0,0 z m 17.806915,-2.2e-5 c 0.988157,-0.07438 0.806791,0.111021 0,0 z m 4.414233,-0.357128 c 0.127941,-0.234962 -0.04686,0.387921 0,0 z m 0.07639,-0.295196 c 0.127941,-0.234962 -0.04686,0.387922 0,0 z m 0.07639,-0.368995 c 0.127941,-0.234961 -0.04686,0.387922 0,0 z M 33.2052,29.478275 c 0.05614,-0.416258 0.05614,0.416259 0,0 z m 25.531088,-0.70109 c 0.08416,-1.024275 -0.01248,1.289943 0,0 z m -25.5276,-0.415308 c 0.07963,-1.81983 0.09345,1.405652 0,0 z m 5.619322,-0.706972 c 0.579128,-0.39201 0.326259,0.245646 0,0 z m 4.122625,-0.0011 c 0.495589,-0.170966 0.387183,0.186461 0,0 z m 7.107617,-2.21e-4 c 0.350624,-0.169573 0.461898,0.188203 0,0 z m 3.245333,6.27e-4 c 0.5774,-0.121967 0.274544,0.153355 0,0 z m 5.218317,-0.06019 c -0.29594,-0.419403 0.755572,0.674819 0,0 z m -20.91618,-0.01295 c 0.579128,-0.39201 0.326259,0.245646 0,0 z m 8.74224,-0.0027 c 1.347197,-0.08629 1.377922,0.09893 0,0 z m 8.446176,0.0027 c 0.579128,-0.39201 0.326259,0.245646 0,0 z m -21.238133,-0.07048 c 0.245435,-0.327282 0.206292,0.229911 0,0 z m 2.253592,-0.0049 0.441198,0.0137 z m 20.283699,2.73e-4 c 0.350626,-0.169573 0.461897,0.188205 0,0 z"
                                   id="path10-3" /><path
                                   style="fill:#d3c8b4;stroke-width:0.0750848"
                                   d="m 44.823966,54.146685 c 0.553286,-0.187827 0.655076,0.237123 0,0 z m 1.375074,0.0014 c 0.577407,-0.121965 0.27454,0.153354 0,0 z m 1.145894,-0.0017 c 0.866924,-0.06776 0.686992,0.09952 0,0 z m 4.626549,0.0041 c 0.331921,-0.368327 0.149022,0.226961 0,0 z m -12.53322,-0.07227 c 0.245434,-0.327283 0.206293,0.229911 0,0 z m 1.871627,-0.0049 0.441198,0.01369 z m 1.41327,3.69e-4 c 0.667462,-0.178933 0.31199,0.18062 0,0 z m 7.104545,0.0045 c 0.245436,-0.327283 0.206293,0.229912 0,0 z m 0.879973,-0.0023 c 0.401076,-0.447386 0.268039,0.255797 0,0 z m 1.846578,-0.05548 c 0.817235,-0.781044 0.05049,0.258646 0,0 z m -8.284139,-0.176311 c 0.362191,-1.161514 -2.344439,0.219842 -2.543643,-1.119629 -0.726789,0.08172 -1.499729,2.075758 -2.187566,0.388937 0.468881,-1.140601 0.56524,-1.516801 1.503441,-1.956771 0.248186,-1.040519 -0.05648,-1.054031 -0.622215,-1.309726 0.445465,-1.038098 1.084815,-2.81004 0.822981,-4.131954 -1.18007,0.705772 1.181119,-2.125369 -0.422879,-1.258771 -0.487943,1.543795 -0.56932,-1.850346 0.699757,-0.569693 1.584862,-1.04182 -0.07191,-0.577867 -0.516595,-0.453617 -0.752725,-0.999706 1.025901,-0.626603 0.116369,-1.474185 -1.393007,0.829369 0.793913,-0.259891 -0.622076,-0.73902 2.255788,0.393616 4.943285,-0.699408 6.811508,0.789123 1.064901,-0.382055 2.018536,-0.251538 0.61527,0.524829 -1.214643,1.686854 0.5931,0.168763 0.960792,0.03097 1.374525,-0.03841 0.81575,-2.191617 1.854154,-0.640502 0.567283,-0.260561 2.243317,1.28705 0.882754,1.495372 -0.977251,-1.32317 -0.956413,-0.549236 -1.286757,0.615225 -2.065653,-0.98076 2.176475,3.037582 -0.933059,2.911074 1.905059,-0.244967 0.247127,-2.751327 -2.8e-5,-1.55274 1.329291,1.714916 -2.658801,0.805127 -0.877192,-0.421602 1.37773,-1.034968 0.452532,-2.774465 -0.443257,-0.792028 -2.267982,2.140975 0.857515,2.9922 2.494803,3.599429 1.171111,1.222915 -1.358671,1.101082 -1.131395,0.958872 -0.141205,1.048254 -2.038259,2.737414 -0.117663,1.261822 0.698332,-0.54178 2.658522,-1.073179 2.85778,-0.914712 -0.337747,1.362789 -1.486528,0.942362 -1.957913,0.704656 -0.91485,0.934459 2.688618,0.873029 1.044974,1.775769 1.30574,0.07219 -2.558406,3.335848 -1.653188,0.94607 -1.599869,0.922432 -3.561192,0.946089 -5.349074,1.332804 l -9.3e-5,7e-6 z m 1.145895,-0.280577 c -0.796265,-0.523819 -1.221076,0.534209 0,0 z m -4.883273,-0.168792 c 0.817165,-0.816712 -1.048588,0.44014 0,0 z m 9.166301,0.139325 c 0.149817,-0.729787 -0.677176,0.575229 0,0 z m -10.241679,-0.2188 c -0.234379,-0.404769 -0.248006,0.422521 0,0 z m 3.880762,-0.08856 c 1.776799,-2.045526 -2.156697,-0.02014 0,0 z m 2.104276,-0.02526 c -0.311418,-0.414092 -0.151078,0.500828 0,0 z m 0.279185,-0.02942 c -0.04486,-0.470319 -0.323539,0.264377 0,0 z m -0.720986,-0.454351 c -0.296238,-1.783137 -0.80133,0.500838 0,0 z m 1.484915,0.203208 c -0.30301,-1.214857 -0.969095,0.657751 0,0 z m -2.098119,0.0538 c 0.870897,-0.844819 -0.716711,-0.143741 0,0 z m 1.563235,-0.492555 c -0.842148,-1.227199 -0.683295,1.350101 0,0 z m 2.234586,0.343924 c 0.600668,-0.763522 -0.762308,0.210829 0,0 z m 0.581209,-0.144193 c 1.300921,-0.571958 0.817998,-0.95875 -0.299742,-0.532264 -1.282133,-0.836914 1.765583,0.230189 0.225921,-0.937232 -1.177566,-0.558131 -2.700028,1.782058 -0.597058,1.129529 0.2541,-0.0024 0.549172,0.0985 0.670879,0.339967 z m -1.137158,0.04586 c -0.136156,-0.551874 -0.455034,0.479093 0,0 z m -0.838181,-0.07089 c -0.353556,-0.922938 -1.208638,-0.22367 0,0 z m -6.242068,-0.102676 c 0.853373,-1.494462 -1.265344,0.118952 0,0 z m 0.638923,-0.113819 c 0.471104,-0.802021 -1.375783,0.126139 0,0 z m 0.948197,-0.01325 c -0.06064,-0.751588 -0.578562,0.57643 0,0 z m 0.648538,-0.223306 c 0.0853,-0.7677 -0.540499,0.442811 0,0 z m 1.372017,-0.13955 c -0.503714,-0.263493 0.123753,0.550587 0,0 z m 7.556691,-0.314172 c -0.623394,-0.422127 -0.734407,1.080918 0,0 z m -9.522874,0.269545 c 1.007595,-1.026175 -0.908132,0.360336 0,0 z m -0.95135,-0.136198 c -0.120422,-0.690144 -0.535359,0.465221 0,0 z m 0.64527,-0.03028 c -0.270491,-0.418318 -0.246395,0.498422 0,0 z m 1.698152,-0.02244 c -0.940388,0.07181 -1.844567,-2.339295 -1.750429,-0.427461 0.430314,0.442104 1.164237,0.646838 1.750429,0.427461 z m 2.291789,0.04551 c -0.102661,-0.520056 -0.263974,0.515142 0,0 z m 4.965542,-0.377171 c -0.76346,-0.265008 0.04136,0.855847 0,0 z m -5.993706,0.261562 c -0.0098,-0.453759 -0.344354,0.589024 0,0 z m 1.92419,0.03412 c -0.176833,-0.327581 -0.194754,0.228155 0,0 z m -3.109279,-0.394339 c -0.567573,-0.724544 0.20242,0.734859 0,0 z m 0.673994,0.284108 c 0.266684,-1.141947 -1.276236,0.322577 0,0 z m 2.080258,0.0072 c 0.493081,-1.625737 -2.467458,0.03998 -0.08903,-0.01379 z m -6.308668,-0.147598 c -0.139469,-0.243785 -0.09345,0.38722 0,0 z m 4.819685,-0.276203 c -0.385777,-0.117316 0.06266,0.408985 0,0 z m 2.311554,-0.04283 c 0.749581,-0.743972 -1.434601,0.807336 0,0 z m -5.660638,-0.03151 c 0.943718,-1.455477 -1.161398,-0.482583 -0.262805,0.06632 z m 3.027705,-0.1714 c 1.101524,-0.769016 -0.970773,0.30104 0,0 z m 6.20925,0.184889 c -1.468441,-1.209911 -1.633818,0.461053 0,0 z m -1.470256,-0.07673 c -0.221134,-0.950965 -0.914743,0.475055 0,0 z m 2.294217,-0.108025 c -0.399742,-0.401001 -0.810884,0.580293 0,0 z m -9.095264,-0.02602 c 0.832951,-0.660858 -0.723774,-0.116497 0,0 z m 6.028303,-0.0047 c -0.264508,-0.487558 -0.280718,0.474603 0,0 z m -5.217855,-0.04099 c -0.03008,-0.656419 -0.612344,0.05415 0,0 z m 0.534751,-5.9e-4 c -0.436314,-0.609118 -2.118404,-2.84344 -1.509333,-0.840789 0.430755,0.399679 1.020208,0.535583 1.509333,0.840789 z m 0.462386,-0.117269 c 0.0368,-0.763973 -0.331536,0.561365 0,0 z m 0.759901,0.120944 c -0.284978,-0.383115 -0.252798,0.483641 0,0 z m 1.451466,0 c -0.456499,-0.725922 -0.194424,0.399066 0,0 z m 0.680133,-0.02828 c -0.195861,-0.485057 -0.3436,0.411697 0,0 z m 0.710219,0.01352 c -0.386982,-0.417983 -0.06617,0.424212 0,0 z M 46.69229,50.612191 c 1.176223,-1.294925 -1.07211,-0.284198 0,0 z m 3.459603,0.138637 c -0.30872,-0.582517 -0.841624,0.185318 0,0 z m -4.506702,-0.373339 c 0.754867,-2.070879 -1.094487,-0.9839 0,0 z m 1.986217,-0.0141 c -0.234379,-0.404769 -0.248006,0.422521 0,0 z m -3.132112,-0.0738 c -0.397937,-0.610853 -0.232776,0.397228 0,0 z m 1.542989,-0.192238 c -0.140168,-0.982341 -0.540095,0.396777 0,0 z m -3.643795,0.04464 c -0.225551,-0.499965 -0.214555,0.359755 0,0 z m 3.052913,-1.540188 c -1.247392,1.338179 0.09499,1.439245 0,0 z m 2.333411,0.975523 c -0.74201,-0.178879 -0.17241,0.950904 0,0 z m 0.281568,0.343268 c 1.691234,-0.770647 -1.498935,-0.03984 0,0 z m 0.787313,0.171859 c -0.469847,-1.118909 -1.194413,0.655363 0,0 z M 43.200616,49.96009 c 1.401433,-1.016673 -0.684446,-0.653282 -0.07991,0.02689 z m 1.527859,0.05856 c -0.16427,-0.8108 -0.880506,0.09328 0,0 z m -0.763929,-0.208759 c -0.367376,-0.781133 -0.280586,0.73144 0,0 z m -2.35426,-0.200567 c -0.705531,-0.786704 -0.906792,0.614184 0,0 z m 0.373065,0.05881 c 0.801674,-1.239189 -1.319549,-0.102443 0,0 z m 0.921034,-0.0281 c -0.285615,-0.563769 -0.218412,0.561335 0,0 z m 3.366161,-0.151112 c 0.451303,-1.288393 -0.925822,0.526508 0,0 z M 44.865907,49.3222 c -0.142434,-1.760194 -0.679692,1.035636 0,0 z m 1.848785,0.18814 c -0.276355,-0.442008 -0.143971,0.483828 0,0 z m 0.563253,-0.139306 c 0.254427,-0.597571 -0.904511,1.058212 0,0 z m -2.855042,-0.04857 c 0.140818,-2.139224 -1.439829,-1.284379 0,0 z m 2.709021,-0.09177 c 0.05192,-0.740464 -0.635308,0.410814 0,0 z M 43.277009,49.1826 c -0.161318,-0.350664 -0.161318,0.350664 0,0 z m 5.729472,-0.145703 c -0.664659,-0.857735 -1.731613,0.216082 0,0 z m -6.741799,-0.204388 c -0.547137,-0.837665 -0.939948,0.589107 0,0 z m 0.553969,-0.205997 c 1.546413,-0.330991 -1.332338,-1.429243 -0.846794,-0.498675 -0.865739,0.371722 0.6728,0.965603 0.846794,0.498675 z m 0.719485,0.216097 c 0.505836,-0.619075 -0.415349,-0.222427 -0.20576,0.06664 z m 3.254467,-0.214427 c 0.878807,-0.675398 -1.128611,0.41471 0,0 z M 45.998912,48.49996 c -0.195843,-1.107254 -0.511032,0.641218 0,0 z m 2.632665,0.05535 c -0.371391,-0.56228 -0.384035,0.476695 0,0 z M 44.74248,48.42862 c -0.32883,0.01491 0.446063,0.322687 0,0 z m 0.632073,-0.05271 c -0.0016,-0.417982 -0.276998,0.326642 0,0 z m 3.666303,8.71e-4 c 1.584064,0.558912 0.629421,-1.661095 -0.167298,-0.253138 -0.812835,0.08588 -0.1842,0.353524 0.167298,0.253138 z m -2.631736,-0.07977 c -0.161317,-0.350664 -0.161319,0.350662 0,0 z m -1.29868,-0.307897 c 0.40853,-1.651313 -0.729227,0.834753 0,0 z m 0.916716,0.0865 c -0.134515,-0.434171 -0.52173,0.761134 0,0 z m 1.274013,-0.04435 c -0.02242,-0.800107 -0.512245,0.365028 0,0 z m -5.367893,-0.0479 c -0.243571,-1.089316 -1.056787,0.153847 0,0 z m 3.564151,0.01585 c 0.782948,-0.927328 -1.161743,-0.149689 0,0 z m 1.064479,-0.0712 c -0.231291,-0.539945 -0.213788,0.513346 0,0 z m -3.80055,-0.04888 c -0.245436,-0.327283 -0.206293,0.229912 0,0 z m 5.618201,-0.109632 c -0.372583,-1.49164 -1.789425,0.395852 0,0 z M 44.671998,47.48387 c -0.06143,-0.901016 2.144288,-1.502798 0.252458,-1.172758 -0.548171,0.227859 -1.645556,1.466346 -0.252458,1.172758 z m 1.548157,0.167394 c 0.692237,-1.313822 -0.759269,0.143207 0,0 z m -2.637574,-0.05099 c -0.153076,-0.648372 -0.366955,0.475178 0,0 z m 5.347507,0.03254 c -0.0151,-0.419914 -0.534346,0.655259 0,0 z m -1.859086,-0.253336 c -0.475405,-0.45617 0.05055,0.564251 0,0 z m -5.746987,0.107564 c 0.260285,-0.514951 2.212077,-1.806208 0.675631,-1.463152 -0.356642,0.340655 -1.074287,0.912833 -0.675631,1.463152 z m 1.597291,-0.08142 c -0.421614,-0.980942 -1.133499,0.449692 0,0 z m -1.130818,-0.146717 c -0.0098,-0.453759 -0.344352,0.589026 0,0 z m 1.7157,-0.249031 c -0.158727,-0.333298 -0.267811,0.353923 0,0 z m 3.323094,-0.04125 c 1.114914,-0.333028 -0.86977,-0.328783 0,0 z m -2.329986,-0.291028 c -0.826041,-0.650037 -0.868865,0.83088 0,0 z m -1.245674,0.02206 c 0.234897,-1.643232 -1.332202,-0.170777 0,0 z m 4.03667,-0.390269 c -0.525016,-0.567475 0.542901,1.145186 0,0 z m -2.867389,0.1101 c 0.951917,-0.944016 0.571092,-1.584832 -0.33028,-0.56532 -0.02177,0.101231 0.06291,0.860537 0.33028,0.56532 z m 0.48964,-0.431459 c -0.535459,-0.491028 -0.0647,0.798626 0,0 z m 1.802149,-0.102881 c -0.40858,-0.562539 0.08856,0.912337 0,0 z m 1.566056,-0.09731 c 1.478204,-0.05338 -0.728956,-0.333976 0,0 z m -7.240631,-0.266763 c -0.536678,-0.02559 0.04537,0.635343 0,0 z m 1.090998,0.08226 c 2.01235,-1.812608 -1.152494,-0.661461 0,0 z m 4.34014,-0.09454 c 0.938995,-1.261455 -1.483822,0.299343 0,0 z m -2.693314,0.02678 c 0.354847,-0.560338 -0.687986,0.516574 0,0 z m 0.963617,-0.16507 c 0.53182,-0.692894 -0.52454,0.307904 0,0 z m -1.612313,-0.02806 c -0.11093,-0.740615 -0.585362,0.640642 0,0 z m 1.507567,-0.27913 c -0.458421,-0.862841 0.514635,-1.602063 -0.754425,-1.667721 -0.669535,0.548846 -0.370943,2.55058 0.754425,1.667721 z m 2.533809,-0.193623 c -0.437996,0.02718 0.151778,0.573554 0,0 z m -4.188548,0.111592 c -0.08509,-0.87092 -0.533066,0.781913 0,0 z m 4.630236,-0.02369 c -0.283134,-0.434202 -0.242018,0.503432 0,0 z m -5.704497,-0.19727 c 0.606065,-0.808195 -0.689675,0.525957 0,0 z m 6.029168,0.08288 c -0.210423,-0.594243 -0.663513,0.260631 0,0 z m 1.298618,-0.272945 c 0.254227,-0.865028 -0.519804,0.649511 0,0 z m -4.136412,-0.15331 c -0.504213,-0.695157 -0.329687,0.470265 0,0 z m 0.502351,0.147927 c 0.25293,-0.675487 -0.617553,0.292533 0,0 z m 1.75113,-0.06653 c -0.504152,-0.927281 -1.145289,0.632603 0,0 z m 1.787803,-0.537098 c -0.447875,0.105871 0.160964,0.601104 0,0 z m -6.74072,0.280639 c 0.993975,-0.755534 -0.791036,-0.159565 0,0 z m 3.639098,-0.113054 c -0.33697,-1.139968 -0.795511,0.992435 0,0 z m -2.382651,0.0017 c -0.704254,-0.698547 -0.888481,0.695972 0,0 z M 48.05045,44.01248 c -0.687708,-0.448336 -0.54001,0.72689 0,0 z m -1.335758,-0.06961 c -0.122931,-0.369022 -0.745766,0.839822 0,0 z m -3.195963,-0.495811 c 0.0039,-0.574237 -0.694636,0.945857 0,0 z m 2.489364,0.182166 c -0.242415,-0.509873 -0.284474,0.383172 0,0 z m -4.258943,-0.08965 c 0.462458,-1.539093 -1.491086,0.12222 -0.115279,0.0463 z m 6.646187,-0.155773 c -0.333379,-0.258086 -0.03272,0.452824 0,0 z m -5.090474,-0.07414 c -0.446589,-1.066477 -1.509619,0.703558 0,0 z m 2.191853,0.02437 c -0.345547,-1.122486 0.979605,-0.95398 0.254258,-1.878817 -0.443802,0.150929 -1.341256,2.195965 -0.254258,1.878817 z m 0.853162,-0.147598 c 1.982825,-0.645512 -0.669035,-1.508114 0,0 z m -1.269296,-0.04232 c -0.982659,-0.861596 -1.510314,0.358413 0,0 z m 6.829917,-0.04867 c -0.504769,-0.538683 -0.795352,0.05923 0,0 z M 43.48709,42.822917 c -0.676016,-1.443428 -1.100265,1.101759 0,0 z m 5.061033,0.09113 c -0.10742,-1.702962 -0.34368,0.98195 0,0 z m -1.069501,0.03254 c -0.717538,-0.532029 -0.984952,0.443278 0,0 z m 2.735888,-0.128544 c -0.434925,-1.046783 -0.364739,0.931475 0,0 z m -5.562428,-0.09285 c -0.147487,-0.387795 -0.163914,0.372442 0,0 z m -0.418334,-0.190059 c -0.184538,-0.624283 -0.317159,0.571124 0,0 z m 0.864499,-0.30072 c 0.479394,-1.395934 -1.040442,1.001356 0,0 z m 6.467398,0.380081 c -0.305518,-0.566574 -0.201143,0.381541 0,0 z m -7.983064,-0.110699 c 0.0019,-0.806773 -0.535148,0.55821 0,0 z m -1.208133,-0.108224 c 1.907355,-0.660852 -0.81337,-0.98387 -0.225949,0.02377 l 0.133901,-0.01409 z m 7.904352,-0.03619 c -0.416019,-0.646881 -0.106069,0.53849 0,0 z m -6.235761,-0.09115 c 0.87616,-0.59219 -0.89016,0.199165 0,0 z m -1.953027,-0.325357 c 0.474482,-0.875745 -0.833178,0.696816 0,0 z m 9.246454,0.0074 c -0.33133,-0.582618 -0.07113,0.297256 0,0 z m -7.044179,-0.166048 c 0.131851,-0.878896 -0.833167,0.421308 0,0 z m -0.88113,-0.590391 c -0.476492,-0.646353 -0.838746,0.490454 0,0 z m 3.141515,-0.02183 c -0.719127,-0.186292 -0.470673,0.331792 0,0 z m 6.465301,12.55829 c 0.518292,-1.029248 -0.01147,0.360083 0,0 z m -6.105343,0.03869 c 0.0058,-0.685466 0.583392,0.359615 0,0 z m 0.947957,-0.0341 c 0.496115,-1.048247 1.160592,0.511596 0,0 z m -6.11248,-0.06902 c -0.861897,-1.014228 0.627536,0.06106 0,0 z m 8.571336,-0.239847 c 0.534748,-0.849634 0.119647,0.587319 0,0 z m 1.341693,0.06997 c -0.308901,-0.954389 0.966173,0.599826 0,0 z m 1.546958,-0.121662 c -1.078889,-0.340736 -1.017915,-0.794931 -1.310952,-1.024464 -0.124895,-0.632377 1.995523,0.124353 1.310952,1.024464 z m -14.721992,-0.4649 c 0.111414,-0.625596 -0.03521,0.956462 0,0 z m 3.415834,0.253941 c 0.226345,-0.179919 0.01822,0.341026 0,0 z m -2.890232,-0.443024 c -0.250763,-2.089591 0.964562,-0.641958 0,0 z M 53.389456,51.28585 c 0.04212,-1.209706 0.02255,1.239837 0,0 z m -14.978705,0.110698 c 0.04483,-0.825481 0.03973,0.834062 0,0 z m 13.95702,0.295196 c 0.122931,-0.369022 0.745766,0.839822 0,0 z m 0.491756,-0.228898 c -0.801805,-0.692511 0.624323,-0.585344 0,0 z M 39.484548,51.284768 c -0.732705,-1.688258 1.863499,0.206878 0,0 z m 0.446449,-0.257194 c 0.434314,-0.602751 -0.62563,0.359621 0,0 z m -1.193912,-0.115969 c -0.766836,-0.732596 0.564907,0.0061 0,0 z m 1.636991,-0.298961 c 0.345428,-0.253774 0.09823,0.492001 0,0 z m -1.971324,-0.138562 c 0.09306,-0.392349 -0.01208,0.532655 0,0 z m 12.820294,0.129148 c 0.06787,-0.686654 0.715246,0.285135 0,0 z M 38.709641,50.183784 c -0.724391,-1.146506 0.372306,0.211615 0,0 z m 13.598536,-0.05498 c 0.437335,-0.613728 0.73813,0.449482 0,0 z m 0.982341,-0.103664 c 0.127941,-0.234964 -0.04686,0.387921 0,0 z m -13.856545,-0.0041 c -0.14368,-0.616589 0.492728,0.290304 0,0 z m -1.031221,-0.284899 c 0.09306,-0.392348 -0.01208,0.532658 0,0 z M 38.660009,49.5806 c -0.09643,-1.116415 -0.0412,-4.581489 0.07473,-1.556308 0.01624,0.519402 0.0057,1.04185 -0.07473,1.556308 z m 1.026531,-0.176603 c 0.234379,-0.404768 0.248005,0.422522 0,0 z m -1.271988,-0.811789 c 0.04253,-1.153338 0.03215,1.183194 0,0 z m 14.881996,0.442794 c 0.05613,-0.416259 0.05613,0.416259 0,0 z m -2.123812,-0.185437 c -0.08162,-0.73596 0.628141,0.0785 0,0 z m 2.117782,-0.816999 c 0.127941,-0.234962 -0.04686,0.387922 0,0 z M 40.183864,47.926814 c 0.25875,-0.301363 0.105622,0.370002 0,0 z m 11.417057,-0.05933 c -1.429989,-0.276876 -0.19918,-1.666538 -0.06708,-1.280954 0.03526,-2.731726 1.173328,1.040764 0.06708,1.280954 z m 0.03055,-0.345358 c -0.236419,-0.519678 -0.157814,0.43246 0,0 z M 51.130919,46.87195 c 0.106058,-1.466847 -0.602544,0.890645 0,0 z m 0.579339,-0.97944 c 0.205901,-0.57412 -0.410312,0.472807 0,0 z m 1.675689,1.482015 c 0.09931,-0.884345 -0.02641,1.313047 0,0 z m -14.977281,0.110699 c 0.03886,-0.649937 0.03886,0.649937 0,0 z m 1.891705,-0.142747 c 0.346989,-1.201103 0.898669,0.09069 0,0 z m 8.261068,-0.397052 c -0.812858,-0.778078 0.786787,0.214754 0,0 z m 4.383897,-0.190973 c -0.329731,-0.467484 0.485341,-0.128139 0,0 z m 0.315736,-0.136366 c -0.141435,-1.231886 0.260183,0.546446 0,0 z m -12.735542,-0.0569 c 0.0786,-1.27382 1.369661,0.257677 0,0 z m 0.383297,-0.182947 c -0.308389,-0.520282 -0.275741,0.598086 0,0 z m -2.501703,-0.0369 c 0.108846,-0.479207 -0.04662,0.808569 0,0 z m 1.433901,0.05535 c -0.04481,-0.721565 0.546719,0.06614 0,0 z m 12.990524,-0.713231 c -0.475236,-0.538869 0.511352,0.152459 0,0 z m 3.147631,-0.21278 c -0.169587,-3.486593 -0.134172,-6.993046 -0.157253,-10.474388 0.149988,-0.964427 1.668062,-4.006267 1.95157,-2.98622 -0.960198,2.80207 -0.829991,5.759518 -0.64691,8.654558 0.0076,1.300969 1.016578,5.224453 -1.141867,4.807951 z m 0.819383,-0.669892 c 0.38416,-1.300321 -0.88449,-0.254942 0,0 z m -0.152786,-1.415761 c -0.213487,-0.302894 -0.0069,0.412962 0,0 z m 0.104879,-1.350872 c -0.168028,-3.295473 -0.407716,2.092959 0,0 z m -0.227393,-6.547921 c 0.08058,-1.132593 1.813712,-4.809387 0.143395,-2.070038 -0.304778,0.632252 -0.487144,1.413332 -0.143395,2.070038 z m -5.278279,9.630228 c -0.408412,-1.190081 1.43305,-0.49551 0,0 z M 38.573749,44.177554 c 0.209013,-1.040998 0.01289,1.562701 0,0 z m 12.204705,0.849468 c -0.794018,-0.89248 0.742607,-0.01509 0,0 z m 1.892202,-0.01719 c -0.392921,-0.737829 0.459373,0.320427 0,0 z m -11.53148,-0.23057 c -0.791557,-0.583403 0.412276,-0.0804 0,0 z M 51.83302,44.431579 c 0.121219,-1.027214 1.286679,-0.791213 0,0 z m -1.015931,-0.09256 c -0.347505,-0.767911 0.799482,0.197478 0,0 z m -12.253658,-1.54003 c 0.06114,-1.110855 0.07746,1.069944 0,0 z m 13.47967,-0.434827 c 0.05005,-0.77558 0.519904,0.571183 0,0 z M 38.588752,41.694736 c -0.03196,-1.360089 0.176512,0.478869 0,0 z m 14.084591,0.04206 c 0.09092,-1.045306 0.316314,0.817433 0,0 z m -0.625292,0.0601 c -1.023808,-0.515554 0.851075,0.09355 0,0 z m -4.875001,-0.07722 c -1.275589,-0.882668 2.716112,-0.733915 0.252245,0.03262 z m 0.469251,-0.106915 c 0.506525,-0.516127 -1.208461,0.674285 0,0 z m -0.416216,-0.283476 c 0.622987,-0.720048 -0.811292,0.561651 0,0 z m -5.284004,-0.335327 c -0.241678,-0.490465 0.467723,0.0353 0,0 z m -1.741324,-0.144729 c -0.07409,-0.425274 0.204144,0.332791 0,0 z"
                                   id="path9-1" /><path
                                   style="fill:#b0cdd2;stroke-width:0.0750848"
                                   d="m 34.393322,61.734147 c -2.175365,-1.726907 0.489711,-4.293952 0.524339,-6.413213 0.540973,-3.04299 -0.638548,-6.127345 -0.04723,-9.15377 1.4121,-0.616561 4.402922,-0.428953 2.97227,-2.90218 -0.632467,-2.927681 2.506339,-3.848518 4.749031,-3.188584 0.803606,0.386765 3.696127,-0.678778 2.917815,-0.48316 -2.067976,1.718985 -5.414221,-0.992281 -7.182099,1.465496 -0.894196,2.572984 0.10236,5.414746 -0.311051,8.098423 -0.124055,2.34268 -0.284525,5.811586 3.058921,5.372221 3.142259,-0.151566 6.260453,-0.193069 9.399636,0.03775 3.644783,0.516253 3.47295,-3.368086 3.174604,-5.815565 -0.02867,-1.094009 0.05156,-3.091345 0.09985,-0.856222 -0.07278,2.248033 1.110408,6.269836 -2.14007,6.648964 -4.108474,-0.126859 -8.231518,0.219953 -12.345878,-0.07752 -2.240637,-1.383322 -1.061708,-4.572113 -1.149189,-6.697853 0.09389,-2.704875 -4.337744,-2.621397 -3.286545,0.201997 0.08367,3.275778 1.02706,6.772595 -0.577716,9.84209 -1.388418,1.945784 -0.200402,4.780445 2.408311,3.863555 6.196657,-0.02475 12.39473,-0.02403 18.591323,0.06943 -6.951983,0.05441 -13.904393,0.04263 -20.856319,-0.01186 z m 23.764029,-0.07237 c 1.496832,-0.209328 -0.04612,-4.244894 0.728638,-1.309966 -0.120551,0.42068 -0.176688,1.249387 -0.728638,1.309966 z M 58.066686,57.7728 c -0.26889,-1.075289 0.407103,0.988116 0,0 z m -0.381965,-1.180783 c -0.268891,-1.07529 0.407105,0.988114 0,0 z m -0.268983,-0.884358 c 0.127941,-0.234962 -0.04686,0.387922 0,0 z m -0.152786,-0.516592 c 0.127941,-0.234964 -0.04686,0.387921 0,0 z m -0.07036,-0.325946 c 0.05614,-0.416259 0.05614,0.416259 0,0 z m -0.06765,-0.590392 c 0.03886,-0.649937 0.03886,0.649937 0,0 z m 0.0036,-1.254582 c 0.04368,-0.97406 0.03847,0.984172 0,0 z m 0.07483,-1.106985 c 0.04483,-0.825481 0.03973,0.834061 0,0 z m 0.07919,-1.328381 c 0.04261,-1.122973 0.03745,1.134445 0,0 z m 0.08347,-3.210256 c 0.02345,-1.766954 0.04214,1.582212 0,0 z m -3.560971,-3.812116 c 1.098925,-3.029071 -2.70083,-4.334058 -4.993492,-3.411159 -0.921619,0.437905 -4.092017,-0.992607 -1.689062,-0.16752 2.162271,0.521021 5.699598,-1.186491 6.721079,1.597424 0.60204,1.376722 -1.114769,4.370632 1.293278,4.19863 -1.843276,0.663905 -1.233891,-1.153046 -1.331803,-2.217375 z M 38.51185,45.526698 c -0.643401,-0.956468 0.320301,-0.01155 0,0 z m 0.105151,-4.357222 c 0.86264,-0.96459 1.813332,-0.767973 0,0 z m 6.607991,-2.704075 c -1.785113,-0.197705 0.09801,-2.507923 0.639468,-0.764771 1.230008,-1.25278 -2.840894,-0.713583 -1.472539,-2.6542 -0.292129,-2.431479 0.124165,1.259538 1.140568,-0.107038 0.01124,-0.842856 -1.752803,-1.746067 -0.237682,-0.580715 1.024663,1.85654 2.556624,-2.276914 1.312675,-0.02479 -1.052499,1.896966 1.140572,0.407582 0.955645,-0.351597 -0.371251,1.500792 -0.457794,4.120314 -2.338135,4.483108 z m 0.483421,-0.233046 c -0.199628,-2.632283 -2.796967,0.47326 0,0 z m -0.0043,-1.564416 c -0.350604,-2.16571 -2.371367,0.46145 -0.04416,0.210761 z m 1.06623,0.08986 c 2.104464,-2.469544 -2.668552,0.281311 0,0 z m -0.779108,-0.494422 c 1.740663,-1.0604 -2.324182,-0.807851 0,0 z m 0.359435,2.144895 c 0.290734,-0.380664 1.38839,-0.762012 0.42615,-0.208655 z m -0.729908,-4.044474 c -1.650007,-2.549116 2.840718,-0.90096 0,0 z m 0.56235,-0.316144 c 0.697487,-2.672736 -2.225423,0.789235 0,0 z m 11.455691,-3.173836 c -8.021762,-0.166123 -16.046712,0.02025 -24.067991,-0.182754 -1.781737,-2.771155 2.081086,-4.092791 4.146689,-3.104395 6.563023,0.146586 13.129184,0.118678 19.69189,-0.0306 -6.688915,0.389612 -13.397382,0.110741 -20.087966,0.210585 -1.636449,-0.565086 -5.348214,-0.272345 -3.648309,2.230246 2.127938,1.605966 5.006015,0.114169 7.455998,0.647992 5.719341,0.01407 11.438892,0.04047 17.157453,0.141945 -0.213037,0.06676 -0.424665,0.09448 -0.647764,0.08698 z m 0.769961,-0.405401 c 0.127941,-0.234964 -0.04686,0.387921 0,0 z m 0.07639,-0.295196 c 0.127941,-0.234964 -0.04686,0.387921 0,0 z m 0.08242,-0.325946 c 0.05613,-0.416259 0.05613,0.416259 0,0 z m 0.08093,-1.147574 c -0.04109,-1.767944 0.09237,1.535325 0,0 z"
                                   id="path8-9" /><path
                                   style="fill:#c7baa7;stroke-width:0.0750848"
                                   d="m 46.886209,54.129235 c -2.01493,-0.493383 -4.32808,0.530733 -6.099383,-0.430176 -2.092594,-0.300868 -0.964909,0.259009 0.146954,-0.217978 -0.08016,-1.759808 3.104504,0.767052 3.749162,0.06168 1.490435,0.401378 3.668923,-0.880727 5.16793,-0.686147 -0.415912,1.28567 -1.93562,1.018821 -2.964663,1.27262 z M 42.55539,53.973103 c -0.22591,-0.567099 -0.409886,0.490612 0,0 z m 1.47218,-0.01795 c -0.320816,-1.4022 -1.335904,0.616765 0,0 z m 1.388442,-0.04942 c -0.705951,-0.544533 -0.768909,0.735327 0,0 z m 1.833431,-0.217041 c -0.267286,-0.712063 -0.383282,0.642479 0,0 z m 1.149688,0.03065 c 0.518287,-0.916116 -1.030564,0.538675 0,0 z m -6.497195,-0.0947 c 0.03014,-0.979955 -0.464464,0.48626 0,0 z m 5.771782,0.05326 c -0.01856,-0.547722 -0.510843,0.275107 0,0 z m 1.332763,-0.141168 c -0.176517,-0.25854 -0.07055,0.386773 0,0 z m 0.680974,-0.479449 c -0.586546,-0.830897 -0.531453,0.999185 0,0 z M 42.4958,53.228366 c -0.120146,-0.610724 -0.41344,0.255643 0,0 z m 4.753643,0.01318 c -0.176515,-0.258542 -0.07055,0.386772 0,0 z M 42.054722,53.209 c -0.01835,-0.334641 -0.248419,0.19183 0,0 z m 5.482786,-0.175016 c -0.218911,-0.339 -0.131964,0.391928 0,0 z m -5.687206,-0.04352 c 0.06802,-0.757416 -0.397458,0.372092 0,0 z m -1.839092,1.082424 c 0.553284,-0.187827 0.655078,0.237123 0,0 z m 6.226026,0.0022 c 0.569973,-0.424045 0.343264,0.255833 0,0 z m 1.720296,9.38e-4 c 0.401075,-0.447386 0.268038,0.255797 0,0 z m 0.938884,-0.04254 c 1.56836,-0.448174 2.765023,-2.344193 2.592278,-2.806925 0.91446,-0.44513 -3.013317,-1.247605 -0.64347,-1.399343 0.610307,1.681446 2.078998,-2.554407 0.723816,-0.326021 -0.929569,-1.155674 -3.669809,2.086392 -3.089115,0.88858 0.638698,-1.073672 1.265624,-1.886334 2.232698,-1.857221 0.347617,-1.920151 -4.757255,-1.031378 -2.944448,-3.738289 0.302538,-1.475746 2.38691,-2.164277 1.003364,-0.319318 -1.41131,0.984624 0.410956,2.884085 0.893802,1.507111 -1.647641,-1.515013 2.31771,-0.655206 0.222061,0.489493 -0.593897,1.427004 1.860657,-0.917614 0.334071,-1.61916 -1.007127,-0.737145 -0.495484,-1.092609 0.442609,-0.9673 -0.465034,-1.972936 0.566156,-0.278784 1.4679,-0.528276 0.132986,-0.874139 -2.19688,-2.411968 -2.203297,-1.749956 -0.263301,1.463485 -1.549159,0.267119 -2.20829,1.784831 -0.869622,-0.289175 2.609227,-2.649811 -0.03944,-1.385399 -1.662677,0.545624 -0.638768,-1.552135 -2.07506,-0.747209 -1.127953,-0.194385 -3.618259,0.410998 -3.821555,-0.211072 1.955505,-0.221313 4.12831,0.075 6.192377,-0.137796 1.230408,0.253841 2.894921,0.455024 3.436117,-0.08641 1.37738,0.64015 2.297351,0.806355 1.259609,2.609223 -0.52817,0.954003 -0.693176,1.395421 0.291856,1.368807 0.276413,0.954104 -1.337718,0.659473 0.09937,1.673146 1.451924,1.522165 -2.113146,1.665047 0.0418,3.231566 0.566482,-1.875708 -0.825889,3.380566 0.290136,2.627374 -0.90153,0.412626 -2.044482,-0.891793 -1.354332,0.395632 0.163089,0.403177 1.899188,1.045982 0.293305,1.122373 -1.20187,-0.04381 -2.186502,0.491919 -3.438168,0.181556 z m 1.739295,-0.02884 c -0.337326,-0.705029 -0.715841,0.542885 0,0 z m 2.426157,-0.442804 c 0.02077,-1.768065 -0.913371,0.78002 0,0 z m -1.619338,-0.07188 c -0.476079,-0.335288 -0.02442,0.485676 0,0 z m -0.938435,0.01147 c 0.651804,-0.541325 -0.855763,0.319784 0,0 z m 1.694646,-0.04703 c -0.630191,-1.060765 -1.105782,0.684795 0,0 z m -0.762964,-0.30137 c 0.634218,-0.899187 -0.862666,-0.206846 0,0 z m 0.730441,-0.09594 c -0.404323,-0.501425 -0.435604,0.618667 0,0 z m 0.182455,-1.162334 c -0.412255,-0.44554 -0.542085,0.519724 0,0 z m 0.248277,-0.202947 c -0.533826,-0.58568 -0.151276,0.339578 0,0 z m -1.236611,-0.216784 c -0.279133,-0.328576 -0.07852,0.699559 0,0 z m 0.931039,-0.0046 c -0.209623,-0.349584 -0.201448,0.405082 0,0 z m 0.76393,-0.118719 c 0.272094,-0.995508 -0.698622,0.07145 0,0 z m -0.381965,-0.199271 c -0.09695,-1.005271 -0.821058,0.416644 0,0 z m -0.916715,-0.46231 c -0.289299,-0.387084 -0.183944,0.474777 0,0 z m -0.624641,-0.129853 c -0.317037,-0.53769 -0.242148,0.566659 0,0 z m 0.361762,-0.0071 c 0.145186,-0.505877 -0.515441,0.448082 0,0 z m -1.417767,-0.337367 c -0.161318,-0.350663 -0.161318,0.350663 0,0 z m 1.986217,0 c -0.161318,-0.350663 -0.161318,0.350663 0,0 z m 0.747131,-0.134414 c -0.470186,-0.400813 -0.426206,0.586991 0,0 z M 52.150051,49.95751 c -0.165923,-0.39075 -0.157936,0.372005 0,0 z m -1.484724,-0.230156 c -0.46161,-0.0861 0.09783,0.48495 0,0 z m 0.403764,-0.922215 c -0.627004,-0.271745 0.141836,0.720646 0,0 z m 0.366383,-0.09327 c 0.320149,-0.994659 -0.589518,0.78714 0,0 z m 0.435743,-0.01123 c 0.265389,-0.833435 -0.778324,0.85982 0,0 z m -2.04192,-0.02077 c -0.218911,-0.339 -0.131964,0.391928 0,0 z m 1.671682,-0.348095 c 0.653118,-0.772926 -1.519587,0.627735 0,0 z m 0.408434,-0.622813 c 0.664615,-1.156783 -0.476321,-2.950503 -0.364948,-0.798532 -1.776535,-2.018974 -0.559256,1.604424 0.364948,0.798532 z m -0.649006,0.07096 c -0.112324,-0.610231 -0.469179,0.437592 0,0 z m 2.02408,-0.294675 c -1.064021,-3.086316 -1.098745,1.480621 0,0 z m -2.521607,0.0019 c -0.06396,-0.629858 -0.473616,0.431695 0,0 z m -2.002065,-0.610783 c -0.04832,-0.823803 -0.568024,0.03315 0,0 z m 1.490123,0.147598 c 0.145752,-0.760181 -0.414907,0.495483 0,0 z m 1.964047,-0.06439 c -0.29904,-0.391245 -0.0094,0.483668 0,0 z m -3.059805,-0.05739 c -0.05854,-0.737118 -0.506274,0.503854 0,0 z m 2.351953,-0.126257 c 0.635432,-1.13203 -0.455249,0.250495 0,0 z m 1.623398,-0.268564 c -0.456493,-0.397239 0.143588,0.744789 0,0 z m -4.189004,-0.221417 c -0.583087,-0.25587 -0.04995,0.644839 0,0 z M 50.140434,46.1617 c -0.439494,-0.339546 -0.09789,0.617498 0,0 z m -0.370023,-0.446681 c 0.20629,-1.04227 -0.847311,0.467911 0,0 z m 0.749386,-0.05632 c -0.333419,-0.537612 -0.250863,0.581992 0,0 z m 2.392593,-0.112235 c -0.4874,-0.08141 0.410668,0.385648 0,0 z m -5.676444,-0.07838 c -0.283933,-0.435095 -0.147067,0.512672 0,0 z m 0.808767,-0.01266 c 0.655053,-1.030897 -0.938723,0.650263 0,0 z m 3.075116,-0.07843 c 0.0093,-0.604273 -0.416883,0.420658 0,0 z m -1.731383,-0.33149 c -0.373349,-0.527811 -0.02322,0.616329 0,0 z m -0.618804,-0.01409 c -0.439347,-0.845545 0.03651,0.507986 0,0 z m 2.793249,-0.10938 c 0.77775,-1.18931 -0.952576,0.50149 0,0 z m -0.4938,0.08044 c -0.05452,-1.132023 -0.932239,0.160735 0,0 z m 1.698319,-0.06847 c -0.310757,-0.506014 0.09464,0.628464 0,0 z m -2.706426,-0.150818 c 1.310044,-0.01472 -0.871838,-0.282678 0,0 z m -1.586567,-0.06854 c 0.05951,-0.637331 -0.443839,0.446204 0,0 z m 2.706001,0.04513 c 0.0728,-0.444554 -0.292716,0.257166 0,0 z m -3.029538,-0.31507 c -0.04063,-0.638946 -0.476546,0.540897 0,0 z m 4.067166,-0.292448 c 0.935206,-0.87163 -0.897533,0.214467 0,0 z m -1.110759,0.0479 c -0.427028,-0.796853 -0.36954,0.776249 0,0 z m 0.724926,0.0019 c -0.493228,-1.707457 -1.380473,0.533765 0,0 z m -1.756231,-0.09783 c -0.121667,-1.208811 -1.052015,-0.137668 0,0 z m 0.76393,-0.385117 c -0.131957,-0.514764 -0.3699,0.340632 0,0 z m -2.076934,-0.214469 c -0.279133,-0.328573 -0.07852,0.69956 0,0 z m 3.623891,-0.06417 c 0.02744,-0.897909 -0.532181,0.758782 0,0 z m -4.925754,-0.101873 c -0.118486,-0.432667 -0.245255,0.309749 0,0 z m 2.061387,-0.115272 c -0.297986,-0.48349 -0.294966,0.530608 0,0 z m -1.279951,-0.09229 c -0.161316,-0.350663 -0.161318,0.350662 0,0 z m -0.07639,-0.557848 c -0.30455,-0.398686 -0.07127,0.504181 0,0 z m 1.207958,0.02173 c -0.30557,-0.761725 -0.434671,0.697112 0,0 z m 2.764476,0.02388 c -0.04486,-0.470319 -0.323539,0.264377 0,0 z m 0.305572,-0.247892 c -0.326989,-0.822541 -0.696791,0.563494 0,0 z M 48.50993,42.245449 c -0.191875,-0.29226 -0.157866,0.535706 0,0 z m -1.15834,-0.295183 c -0.277807,-0.53098 -0.383148,0.289226 0,0 z m 4.787002,0.04191 c -0.353777,-0.767389 -0.671298,0.590247 0,0 z m 0.805306,-0.221131 c 0.09103,-1.429659 -0.617513,0.951129 0,0 z m -3.31052,-0.245086 c -0.673567,0.03023 0.454606,0.57888 0,0 z m -1.526921,0.221397 c 1.519305,-0.9548 -0.899065,0.128125 0,0 z m 0.827666,0.09225 c -0.277559,-0.307917 -0.119476,0.458073 0,0 z m 3.306673,-0.224623 c -0.860358,-0.75766 -0.04413,0.706209 0,0 z m -2.012028,0.187723 c -0.161318,-0.350664 -0.161318,0.350664 0,0 z m -2.333815,-0.226625 c 1.615663,-1.610506 -3.23914,0.663322 0,0 z M 45.23017,41.303376 c -0.372044,-0.178119 -0.01032,0.464152 0,0 z m -2.46311,0.08177 c 0.0738,-0.558727 -0.449095,0.196664 0,0 z m -0.668412,-0.597797 c -0.436356,0.0083 0.242815,0.418474 0,0 z m -2.808397,13.215567 c 0.331922,-0.368327 0.149022,0.226963 0,0 z M 38.76008,53.702787 c 0.02412,-0.282778 0.424095,0.794598 0,0 z m 4.077669,-0.677244 c 0.609239,-1.879932 1.489909,0.483495 0,0 z m 0.48157,0.06197 c 0.02923,-0.532191 -0.407067,0.335225 0,0 z m 1.885021,0.14019 c 0.234566,-0.468283 0.260236,0.489182 0,0 z m -5.655307,-0.07472 c -0.286476,-0.992905 0.812304,0.627524 0,0 z m 0.328489,-0.05904 c -0.165019,-0.325996 -0.195868,0.401631 0,0 z m 4.23981,-0.15245 c 0.145539,-1.06847 0.873481,0.237499 0,0 z M 38.502776,52.56854 c 0.894852,-1.590922 -0.81959,-4.106687 0.09907,-5.953654 -0.550292,2.005662 1.030633,4.399639 -0.07907,6.112441 l -0.01682,-0.133585 z m 0.129541,-2.293715 c -0.365048,0.0695 0.337057,0.311694 0,0 z m 6.809295,2.611966 c -0.768457,-1.253801 1.475322,-0.15967 0,0 z m 2.492325,-0.0476 c -0.136809,-1.048444 1.045543,0.333223 0,0 z m 0.580402,-0.03354 c -0.66496,-0.720472 -2.827625,-0.578898 -0.830318,-1.530166 0.863805,-0.406083 1.630279,0.759132 0.255813,0.564356 1.289029,0.468831 2.780314,-0.109198 0.574505,0.96581 z m -1.303093,-0.375892 c -0.16502,-0.325995 -0.195868,0.401631 0,0 z m 2.51768,-0.595531 c -0.51807,-0.288336 -0.0014,0.628207 0,0 z m -0.71181,-0.291736 c 0.147645,-0.572297 -0.91422,0.771694 0,0 z m -1.232922,-0.145919 c -0.35187,-0.652211 -0.165182,0.668327 0,0 z m -7.618278,1.112652 c -0.06726,-1.519638 1.220742,-0.04454 0,0 z m 0.296012,-0.04257 c -0.165923,-0.39075 -0.157936,0.372005 0,0 z m 1.210829,-0.110698 c 0.609625,-0.943995 0.817382,0.735748 0,0 z M 42.4751,52.209018 c -0.01319,-0.873582 0.684711,0.50501 0,0 z m 1.508544,0.09466 c -0.590883,-0.666965 0.804546,-0.143688 0,0 z m -3.059538,-0.40528 c -0.02722,-0.613459 0.493583,0.383278 0,0 z m 0.2139,-0.05904 c -0.161318,-0.350664 -0.161318,0.350664 0,0 z m 0.510878,0.09994 c -0.113173,-0.465389 0.453644,0.244472 0,0 z m 3.996307,-0.06304 c 0.113217,-0.476852 0.309561,0.286879 0,0 z m -0.915183,-0.149382 c 0.361585,-0.489747 -0.02144,0.363064 0,0 z m -0.836311,-0.155767 c 0.160786,-1.113573 0.890554,0.862858 0,0 z m 0.223635,-0.13329 c -0.02795,-0.569514 -0.334548,0.302977 0,0 z m 2.003073,0.199642 c -2.286178,-0.221189 0.838605,-1.407367 0.277417,-0.205914 z m 0.05954,-0.419358 c -0.03163,-0.729926 -0.784864,0.32078 0,0 z m -6.187829,0.326059 c 0.07055,-0.386772 0.176515,0.258542 0,0 z m 1.29868,-0.326684 c -0.335461,-0.900442 1.169974,-0.928219 0.16508,-0.07674 l 0.01501,0.112954 z M 41.13801,50.95377 c -0.161319,-0.350662 -0.161317,0.350664 0,0 z m 0.748651,-0.383754 c 0.895753,-0.839568 -0.643071,0.214304 0,0 z m 8.288032,0.683614 c -1.871319,-0.625059 1.202336,-0.436418 0.249239,-0.0079 l -0.134573,0.0043 z M 39.610147,51.087721 c 0.170641,-0.780701 0.776064,0.177606 0,0 z m 2.707453,-0.09612 c -0.107484,-0.940125 0.836019,0.175742 0,0 z m 6.001344,-9.22e-4 c 0.268768,-0.493617 0.263621,0.483844 0,0 z M 43.073247,50.84233 c -0.239148,-0.720334 0.623768,0.748531 0,0 z m 1.001126,0.104005 c -0.0693,-0.747131 0.623777,0.09859 0,0 z m 0.768692,0.0074 c 0.240887,-0.438983 0.241481,0.345566 0,0 z m 2.075342,0.0246 c 0.06224,-0.528826 0.485047,0.277404 0,0 z m -0.611144,-0.221397 c -0.174127,-1.572008 1.528148,-0.271693 0,0 z m 0.18618,-0.194057 c -0.37718,-0.224142 0.143654,0.394989 0,0 z m -6.000517,0.02852 c 0.06138,-1.494543 1.807465,-0.08585 0,0 z m 0.415901,-0.264956 c 1.044571,-1.119934 -0.877936,0.505184 0,0 z m 4.51989,0.01479 c -0.478057,-1.741797 0.965347,-0.722096 0,0 z m 0.324688,-1.185009 c -0.420465,-0.738072 0.03546,0.577763 0,0 z m 1.648824,1.20712 c 0.234378,-0.404769 0.248006,0.422521 0,0 z m -3.208505,-0.0738 c 0.317297,-0.314551 0.292967,0.465025 0,0 z m -1.986216,-0.147598 c 0.209623,-0.349584 0.201448,0.405082 0,0 z m 5.4239,-0.115093 c 0.532656,-1.382092 1.547809,0.163482 0,0 z M 48.562,49.461682 c -0.396335,-0.355186 -0.331689,0.509484 0,0 z m -5.634976,0.522989 c 0.190355,-1.467445 1.772328,-0.535624 0,0 z M 43.849956,49.1826 c -0.165021,-0.325994 -0.195867,0.401633 0,0 z m 0.546591,0.750629 c -0.444146,-0.837152 0.728237,0.603488 0,0 z m -4.097079,-0.06799 c 0.08208,-1.400881 1.444266,-0.432083 0,0 z m 0.265591,-0.239847 c -0.139469,-0.243785 -0.09345,0.38722 0,0 z m 0.523241,-0.47733 c -0.172447,-0.535775 -0.345254,0.427414 0,0 z m 2.595341,0.728179 c 0.03511,-0.803099 0.505702,0.397515 0,0 z m -1.958553,-0.310665 c -0.290123,-1.404558 1.008624,0.691125 0,0 z m 0.895851,0.180186 c -0.102413,-0.839246 0.69026,0.294373 0,0 z m 1.908232,-0.225314 c -0.995589,-1.625244 1.082941,0.06996 0,0 z m 0.275697,-0.366854 c -0.06206,-0.547638 -0.379838,0.256047 0,0 z m 1.689964,0.445746 c -0.122162,-0.488201 0.428942,0.250457 0,0 z m 0.311532,-0.357703 c -0.08228,-0.775411 0.706773,0.447008 0,0 z m 0.290293,-0.137193 c -0.322016,-0.430324 -0.14128,0.533323 0,0 z m 1.470165,-0.103608 c -1.597873,-0.249348 0.8648,-0.258098 0,0 z m -6.124809,-0.251417 c -1.339631,-0.188169 -0.516228,-0.432729 -0.484445,-0.856247 0.313668,-0.713249 2.306911,0.816436 0.746518,0.434607 0.234419,0.138531 0.0045,0.723155 -0.262073,0.42164 z m 0.147459,-0.194112 c -0.459315,-0.297057 0.315743,0.489504 0,0 z m -0.425108,-0.102966 c -0.06119,-0.560704 -0.429432,0.348351 0,0 z m -0.644393,-0.04028 c -0.01835,-0.334641 -0.248419,0.19183 0,0 z m 0.687537,-0.674696 c -0.240508,-0.317106 -0.105592,0.405063 0,0 z m 1.105095,0.931261 c 0.846916,-0.827165 -0.258349,0.756727 0,0 z m 3.059655,0.07326 c 0.243745,-1.119642 1.189366,0.421789 0,0 z m 0.418827,-0.256025 c -0.01835,-0.334641 -0.248419,0.19183 0,0 z m -1.107481,0.0332 c 0.01816,-1.153375 0.710075,0.72693 0,0 z m -0.980593,0.02394 c -0.460206,-0.283735 0.340327,-0.06185 0,0 z m 0.532421,-0.208673 c 0.250217,-0.39313 0.03777,0.365731 0,0 z m 3.425022,0.03294 c -0.02416,-1.173901 2.677356,-0.471052 0.711271,-0.0075 l -0.375261,0.02947 z m 1.682904,-0.291664 c -0.165021,-0.325995 -0.195869,0.401632 0,0 z m -0.365016,-0.156591 c 0.197488,-0.629423 -0.566385,0.237122 0,0 z m -2.907149,0.18119 c -0.47321,-0.708478 0.791155,0.09033 0,0 z M 44.130591,47.95986 c -1.380682,-0.805121 0.997938,0.121917 0,0 z m 0.125152,-0.160155 c -0.177963,-0.632591 -0.316073,0.368563 0,0 z m 0.982019,0.226699 c -0.604719,-1.075153 1.253622,-0.06881 0,0 z m 0.254643,-0.252146 c -0.265655,-0.417305 -0.09817,0.505035 0,0 z m 0.820122,0.257231 c -0.154155,-0.760289 0.680832,0.253429 0,0 z m 1.524484,-0.253156 c -1.99525,-1.691512 1.780994,0.294504 0,0 z m -3.334586,-0.177532 c -1.412681,-0.934873 2.469958,-1.896942 0.378982,-0.703067 -0.06028,-0.01884 -0.113074,1.343117 -0.378982,0.703067 z m 0.98998,-1.341168 c -0.376925,-0.443528 -0.13674,0.572282 0,0 z m 0.49561,1.428526 c -0.330418,-1.305756 0.98395,-0.609028 0,0 z m -2.676923,-0.06178 c 0.01026,-0.53764 0.388873,0.37552 0,0 z m 3.571665,-0.08213 c -0.49232,-0.521643 0.586044,0.02336 0,0 z m -5.855343,-0.05279 c 0.101202,-1.374553 1.873391,-1.353375 0.33415,-0.206955 z m 0.343806,-0.190746 c -0.27756,-0.307915 -0.119474,0.458074 0,0 z m 0.326339,-0.380654 c 0.04697,-0.589438 -0.511865,0.321467 0,0 z m 1.618416,0.04736 c 0.258751,-0.301362 0.105621,0.370004 0,0 z m 3.199921,-0.01101 c 0.229066,-1.284806 1.354075,0.568199 0,0 z m -3.577199,-0.251354 c -1.117213,-1.332974 0.906121,-0.761063 0,0 z m 0.188535,-0.177429 c -0.572352,-0.275012 0.239516,0.528137 0,0 z M 42.818651,45.75094 c -0.0149,-0.442042 -0.344405,0.566802 0,0 z m -2.291789,0.71585 c 0.171524,-0.700074 0.581428,0.246125 0,0 z m 0.305572,-0.08856 c -0.209623,-0.349584 -0.201448,0.405082 0,0 z m 3.287327,0.01845 c -0.323696,-1.447259 1.995624,-1.080853 0.200283,-0.347275 -0.09459,0.06395 0.09041,0.611565 -0.200283,0.347275 z m 0.517998,-0.678028 c -0.279134,-0.328574 -0.07852,0.699561 0,0 z m -3.881718,0.05772 c -0.09391,-0.54601 0.517146,0.05106 0,0 z m 1.045953,-0.114035 c 0.151974,-2.047513 2.185988,-0.739438 0,0 z m 0.252728,-0.280396 c -0.316909,-0.529687 -0.341059,0.543942 0,0 z m 0.458357,-0.0659 c -0.267432,-0.527437 -0.392382,0.532639 0,0 z m 0.387695,-0.876879 c -0.247027,-0.235566 -0.03044,0.38715 0,0 z m 3.308858,1.169376 c -1.549179,-0.514444 1.989819,-1.107653 0,0 z M 46.788398,45.0547 c -0.118384,-0.791817 -0.390513,0.653416 0,0 z m 9.609102,0.536665 c 0.245436,-0.327283 0.206293,0.229912 0,0 z m 0.458358,-0.0738 c 0.245436,-0.327283 0.206293,0.229912 0,0 z M 44.266001,45.267236 c -2.048477,-0.340746 0.726258,-3.24101 0.221865,-1.034765 -0.315658,0.322847 0.429258,0.779177 -0.221865,1.034765 z m 0.309688,-0.137429 c -0.324737,-0.566205 -0.468525,0.447401 0,0 z m -0.470292,-0.259951 c -0.174385,-0.738719 -0.455166,0.570567 0,0 z m 0.317506,-0.336591 c -0.209623,-0.349584 -0.201448,0.405082 0,0 z m -0.277765,-0.680432 c -0.377018,-0.04471 0.140506,0.421445 0,0 z m 0.545141,0.09004 c -0.305519,-0.566573 -0.201143,0.381541 0,0 z m -0.802126,-0.332095 c -0.265283,-0.339728 -0.133565,0.446968 0,0 z m -5.36593,1.086987 c -0.01984,-1.405119 0.155449,0.705229 0,0 z m 2.657448,0.357513 c -0.202783,-0.683658 -0.02735,-1.520662 0.392105,-0.457805 l -0.136801,0.283291 z m 6.165263,-0.09767 c 0.283135,-0.434202 0.242019,0.503433 0,0 z m 9.22445,-0.08744 c -0.776044,-1.003695 0.771816,-0.442881 0,0 z M 48.973203,44.68855 c -0.08609,-0.696894 0.616437,0.03546 0,0 z M 45.354897,44.5923 c -0.204934,-0.664581 0.635954,0.215167 0,0 z m 0.217138,-0.233029 c -0.50306,-0.171857 0.162184,0.502591 0,0 z m 1.535748,0.122019 c -1.33559,0.261598 0.577295,-0.479133 0,0 z m -5.007162,-0.191758 c -0.09462,-1.444093 1.467736,0.314807 0,0 z m 4.384892,-0.346663 c 0.533825,-0.585681 0.151275,0.339579 0,0 z m -8.006368,-0.332095 c 0.09306,-0.392349 -0.01209,0.532655 0,0 z m 7.242439,-0.0054 c 0.289299,-0.387083 0.183943,0.474777 0,0 z m -4.392596,-0.01109 c -0.934224,-1.173753 1.404299,-0.563343 0,0 z m 0.343173,-0.07575 c -0.387404,-0.828859 -0.899769,0.339538 0,0 z m 0.984574,-0.157145 c -0.436471,-1.116602 2.064861,0.331755 0,0 z m 0.119913,-0.150551 c -0.04558,-0.921249 -0.816355,0.248027 0,0 z m 2.104613,0.231627 c 0.165365,-1.129361 1.150942,-2.662046 0.637595,-0.668951 0.149173,0.415043 -0.180302,0.926647 -0.637595,0.668951 z m 1.069502,-1.787355 c -0.260647,-0.444768 -0.144509,0.524003 0,0 z m 10.583687,1.77627 c -0.0728,-0.444553 0.292716,0.257166 0,0 z M 46.046254,43.229807 c -0.04599,-1.716883 2.306698,-0.428301 0,0 z m 1.034214,-0.645173 c -0.677788,-0.381308 -0.417106,0.383376 0,0 z m 9.461879,0.09539 c -0.435688,-1.126854 0.482574,-2.071326 0.210881,-0.396745 0.181836,-0.14147 -0.147323,1.196841 -0.210881,0.396745 z m -15.844076,0.32319 c -0.05963,-0.522915 0.521418,0.300703 0,0 z m 9.184045,-0.02392 c -0.329783,-1.155641 0.903957,0.189936 0,0 z m 0.270059,-0.149553 c -0.265655,-0.417305 -0.09817,0.505035 0,0 z m -5.676466,-0.04104 c -0.143694,-0.616591 0.492729,0.29028 0,0 z M 43.90165,42.567052 c 0.19356,-0.862476 0.526982,0.344209 0,0 z m 7.434816,0.04744 c 0.188843,-0.371985 0.25178,0.526079 0,0 z m -8.13585,-0.06689 c 0.210211,-0.629064 0.607246,0.320468 0,0 z m -4.730332,-0.123757 c 0.127941,-0.234964 -0.04686,0.387921 0,0 z m 3.431652,-0.01627 c 0.736937,-1.809472 2.402989,0.253595 0,0 z m 0.823926,-0.200983 c 0.363746,-0.672806 -1.100178,0.37339 0,0 z m -2.124139,0.147823 c 0.629584,-1.273202 1.458836,0.610842 0,0 z m 0.746364,-0.117895 c -0.0628,-0.809014 -0.871285,0.759201 0,0 z m -2.877803,-0.18167 c 0.127941,-0.234962 -0.04686,0.387921 0,0 z m 5.468798,-0.227547 c -0.0058,-0.783477 0.481946,0.188906 0,0 z m -5.392405,-0.141448 c 0.127941,-0.234962 -0.04686,0.387921 0,0 z m 0,-0.295196 c 0.127941,-0.234962 -0.04686,0.387921 0,0 z m 2.514936,-0.141448 c -1.328074,-0.490265 0.660512,0.02851 0,0 z m 3.174414,-0.300425 c -0.437623,-0.565875 0.568566,0.181206 0,0 z M 56.304612,35.25288 c -0.553683,-1.093235 2.006635,-4.529691 0.846089,-1.82246 -0.285296,0.604793 -0.361486,1.323194 -0.846089,1.82246 z"
                                   id="path7-8" /><g
                                   id="g23"><g
                                   id="g18"><g
                                   id="g17"><g
                                   id="g15"><g
                                   id="g14"><g
                                   id="g13"><g
                                   id="g12"><g
                                   id="g11"><g
                                   id="g10"><g
                                   id="g7"><g
                                   id="g6"><g
                                   id="g5"><g
                                   id="g3"><g
                                   id="g2"><g
                                   id="g1"><path
                                   style="fill:#a8aa9f;stroke-width:0.0750848"
                                   d="m 36.420741,61.673188 c 1.058396,-0.05157 3.012129,0.03878 0.895571,0.027 -0.29868,-9.5e-4 -0.597462,-0.0076 -0.895571,-0.027 z m 10.026576,-0.01856 c -1.821065,-0.01756 -3.642305,-0.01471 -5.463273,-0.04254 5.589657,-0.08684 11.180975,-0.04875 16.769431,0.09228 -3.768761,-0.0046 -7.537485,-0.02446 -11.306158,-0.04974 z m -12.704149,-0.08856 c -0.23137,-0.416672 0.111266,-0.921409 0,0 z m 24.778734,-0.01594 c -0.04392,-1.036815 0.639127,-1.695958 0,0 z M 33.657527,59.840402 c 0.127941,-0.234964 -0.04686,0.387921 0,0 z m 24.986529,-0.178348 c 0.05613,-0.416259 0.05613,0.416259 0,0 z m -0.53798,-1.557024 c -0.515121,-1.132396 0.374241,0.469254 0,0 z m -0.30746,-0.95885 c -0.358708,-1.144219 0.416287,0.798134 0,0 z m -0.188489,-0.549636 c -0.529184,-0.811027 0.315133,0.130399 0,0 z m -0.323171,-1.047048 c -0.597276,-3.119061 0.212669,-6.276029 -0.0209,-9.412738 -0.92263,-0.711434 -2.924753,-0.44882 -0.707089,-0.415599 2.023848,1.808421 0.05458,4.887581 0.562172,7.233147 0.01138,0.811598 0.280682,2.376455 0.165817,2.59519 z M 35.108993,55.191067 c 0.127941,-0.234964 -0.04686,0.387921 0,0 z m 0.07639,-0.295196 c 0.127941,-0.234964 -0.04686,0.387921 0,0 z m 8.421701,-0.307457 c 1.039774,-0.03006 5.568727,0.0079 2.275791,0.02245 -0.758642,2.86e-4 -1.517343,-0.0042 -2.275791,-0.02245 z m -8.325655,-0.535082 c 0.04261,-1.122971 0.03745,1.134448 0,0 z m 4.118634,0.465721 c 0.382782,-0.378464 0.269026,0.248211 0,0 z m 12.681232,0 c 0.382781,-0.378464 0.269026,0.248211 0,0 z m -6.40696,-0.521905 c 1.32376,-0.933324 1.425387,0.735499 0,0 z m 1.83793,0.04907 c 1.312135,-0.608231 2.476113,0.167556 0.432929,0.01931 z m 3.876123,0.0042 c 0.281427,-0.764818 1.664141,0.371504 0,0 z m -12.13996,-0.0689 c -1.495018,-0.05192 0.441346,-2.062517 0.05061,-0.412566 0.72168,0.242415 2.810282,0.136515 0.950692,0.559271 l -0.503022,-0.0534 -0.498276,-0.09331 z m 2.899963,-0.01517 c 0.341112,-0.731099 0.613017,0.542155 0,0 z m 1.255811,-0.04716 c -0.08223,-1.46318 0.945849,0.800267 0,0 z m 1.477056,-0.01346 c 0.948796,-0.758295 0.154601,0.556006 0,0 z m 5.194721,0.04187 c 0.470106,-0.606693 0.553146,0.621235 0,0 z m 2.591449,-0.315192 c -0.3402,-1.070345 0.857165,0.384429 0,0 z m -5.264452,0.0159 c -2.2e-4,-0.576743 0.454937,0.44838 0,0 z m 3.781619,-0.03634 c 0.05555,-0.525619 0.484167,0.345713 0,0 z m -2.292706,-0.07523 c 0.09393,-0.39193 0.140656,0.237347 0,0 z M 38.011926,53.346092 c 0.127941,-0.234962 -0.04686,0.387922 0,0 z m 11.032615,-0.119461 c 0.254246,-1.168432 1.120016,0.323756 0,0 z m 4.704335,0.04566 c 0.127941,-0.234962 -0.04686,0.387922 0,0 z M 35.194248,53.130845 c 0.09306,-0.39235 -0.01199,0.532647 0,0 z m 7.011727,0.07202 c -0.04733,-0.51009 0.440382,0.521306 0,0 z m 4.928878,0.03868 c 0.09393,-0.391933 0.140657,0.237346 0,0 z m 4.06156,-0.0492 c -0.521753,-0.933345 0.988589,-0.239291 0,0 z m -11.509873,-0.0984 c 0.186796,-0.368857 0.211471,0.370937 0,0 z m 3.395373,-0.0064 c -0.02186,-0.632706 0.45958,0.365189 0,0 z m 4.243923,-0.02432 c 0.09698,-0.479998 0.27917,0.316251 0,0 z m 4.430792,0.03865 c 0.313893,-0.615507 0.599764,0.568056 0,0 z M 37.958078,52.31909 c 0.04212,-1.209704 0.02255,1.239838 0,0 z m 3.714679,0.627292 1.12e-4,-0.04287 z m 2.610567,-0.196246 c 0.161038,-0.520068 0.26797,0.383006 0,0 z m 8.651638,-0.286279 c -0.34082,-1.164412 0.380659,-3.054157 0.476897,-0.850441 0.02735,0.303904 -0.01828,0.923121 -0.476897,0.850441 z m -14.343376,0.140156 c -0.91471,-1.73008 1.209428,-1.445984 0,0 z m -3.476562,-0.100425 c 0.05614,-0.416259 0.05614,0.416259 0,0 z m 5.18266,-0.0369 c 0.132544,-0.426034 0.155654,0.375218 0,0 z m 6.72258,-0.0369 c 0.186797,-0.368857 0.211471,0.370938 0,0 z m 2.494841,-0.418834 c -0.164525,-0.414913 0.454265,0.115411 0,0 z m -14.470813,-0.24539 c 0.04205,-0.507698 0.04205,0.507701 0,0 z m 16.807827,0.129148 c 0.412255,-0.44554 0.542085,0.519724 0,0 z M 40.98522,51.839363 c 0.161318,-0.350664 0.161318,0.350664 0,0 z m 7.597958,-0.226307 c 0.367514,-0.653083 0.836524,0.333313 0,0 z m -1.088235,-0.08264 c -0.209521,-0.888274 0.661544,0.177799 0,0 z m 3.664865,0.0091 c 0.08449,-0.666607 0.292078,0.295319 0,0 z m -7.245294,-0.109269 c -0.02594,-0.578492 0.318821,0.403002 0,0 z m 8.185882,0.04008 c 0.225553,-0.499964 0.214554,0.359758 0,0 z m -6.206928,-0.270272 c -0.259123,-0.732263 0.511113,0.395659 0,0 z m 6.436107,-0.07237 c -0.102959,-0.780536 0.541069,0.464907 0,0 z M 40.98522,50.953775 c 0.161319,-0.350662 0.161317,0.350664 0,0 z m -6.013195,-0.405894 c 0.111414,-0.625596 -0.03521,0.956462 0,0 z m 16.498093,0.166048 c 0.242415,-0.509873 0.284474,0.383172 0,0 z M 37.871062,48.430616 c -0.0058,-1.429462 -0.08143,-2.695715 0.08062,-0.533954 -0.02338,1.085909 -0.128533,3.204225 -0.07745,0.897881 -0.0011,-0.1213 -0.002,-0.242691 -0.0032,-0.363927 z m 8.497491,2.224257 c -0.07556,-0.351486 0.365211,0.267311 0,0 z m 4.523879,0.02984 c -0.227159,-0.495097 0.541094,0.14565 0,0 z m -9.165947,-0.208316 c 0.483111,-0.733536 -0.06089,0.642557 0,0 z m -1.199623,0.03876 c 0.243535,-1.118577 1.230727,-0.137379 0,0 z m -1.986217,-0.151782 c 0.09331,-0.475349 0.153599,0.424545 0,0 z m 11.382551,-0.147598 c 0.161318,-0.350664 0.161318,0.350664 0,0 z m 1.986217,0 c 0.161318,-0.350664 0.161318,0.350664 0,0 z m -4.201612,-0.250289 c 0.03728,-0.652495 0.456384,0.228665 0,0 z m 4.278005,-0.008 c 0.132545,-0.426034 0.155654,0.375218 0,0 z m -1.556175,-0.02146 c -0.07566,-0.520401 0.586914,0.09226 0,0 z m 2.511087,0.0081 c -0.587664,-0.938814 -0.36001,-3.113311 0.347574,-1.088855 0.03829,0.369333 0.04528,0.892711 -0.347574,1.088855 z m -14.476466,-0.20368 c 0.0077,-0.657241 0.287187,0.396977 0,0 z m 1.986217,-0.115054 c 0.07055,-0.386772 0.176515,0.258542 0,0 z m 7.739062,-0.104738 c 0.298079,-0.4252 0.369415,0.430875 0,0 z M 34.902947,48.555309 c 0.04989,-1.160259 0.0098,1.4155 0,0 z m 10.756249,0.6851 c -0.682586,-0.682908 0.518713,0.152879 0,0 z m -4.903155,-0.09702 c 0.270436,-0.757412 0.552201,0.588901 0,0 z m 2.902933,0.03921 c 0.186797,-0.368855 0.21147,0.370938 0,0 z m 0.915183,-0.03868 c -0.09205,-0.644549 0.411835,0.486492 0,0 z m 2.342173,0.06128 c -0.176077,-0.37306 0.405918,0.109422 0,0 z m 3.770796,-0.04645 c -0.128494,-0.835694 1.01028,-0.322055 0,0 z m 0.840323,-0.370188 c 0.137621,-0.556543 0.876775,0.114294 0,0 z m -1.909824,-0.0795 c 0.09698,-0.479998 0.279171,0.31625 0,0 z m -7.104546,-0.07995 c -0.318301,-0.492753 0.458825,0.298295 0,0 z m -0.576088,-0.189407 c 0.08477,-0.415809 0.283139,0.371195 0,0 z m 4.701308,5.54e-4 c 0.226346,-0.179919 0.01822,0.341026 0,0 z m 4.220711,0.02607 c 0.423126,-0.988989 1.596681,0.354423 0,0 z m -9.491825,-0.09987 c 0.226346,-0.179919 0.01822,0.341026 0,0 z m 8.78519,-0.29084 c 0.186796,-0.368857 0.211472,0.370937 0,0 z m 3.607424,-0.977837 c 0.745702,-1.228828 -2.718544,-1.257519 -0.758797,-1.702841 0.306812,-1.793846 -1.686734,0.136966 -0.779649,-1.076382 1.363083,-1.143068 0.3394,-4.31351 -1.105998,-3.158813 -1.231842,0.15246 -4.018335,-0.652473 -5.869071,-0.156163 -2.169755,0.08525 -4.072981,-0.107245 -6.015278,-0.141438 -1.812534,0.670251 -0.0045,4.428741 -1.074776,4.16416 -1.091775,-2.259174 0.408803,-5.996778 3.325243,-4.424391 3.687115,0.253224 7.424688,-0.333861 11.081896,0.215247 1.754366,0.79016 -0.349297,4.133965 1.212379,4.346174 -0.04732,-1.116817 0.01052,-4.971621 0.0048,-1.956253 0.08076,1.34678 0.147695,3.411539 -0.02079,3.8907 z m -9.424232,-6.334795 c -0.590526,-0.04091 0.423634,0.401073 0,0 z m 5.38748,7.131668 c -0.03231,-0.690711 0.547953,0.375073 0,0 z m -5.66301,-0.01551 c -0.412878,-0.560311 0.555592,0.163302 0,0 z m 1.216686,-0.07416 c 0.203477,-0.698507 0.272432,0.542695 0,0 z m -3.280887,-0.0384 c 0.118486,-0.432667 0.245254,0.309749 0,0 z m 9.031917,0.0089 c 0.07435,-0.446105 0.299001,0.382199 0,0 z m 1.776813,0.02738 c -1.502065,-2.328416 1.586173,-0.413058 0,0 z m -2.408638,-0.372167 c 0.442609,-0.74726 0.574221,0.649404 0,0 z m -9.241255,-0.104498 c 0.148965,-0.480331 0.254766,0.336474 0,0 z m 8.842639,-0.353483 c 0.241705,-0.808913 0.330587,0.430841 0,0 z m 2.032041,0.07805 c -0.09935,-0.483388 0.396433,0.153977 0,0 z m -3.124729,-0.05756 c -0.341356,-0.67749 0.729724,0.09902 0,0 z m 2.461536,-0.0018 c -0.387308,-0.786482 0.844169,-0.772313 0,0 z m -9.922582,-0.129149 c 0.179254,-0.554025 0.290005,0.504515 0,0 z m 1.536191,-0.216054 c -0.104229,-0.450297 0.395156,0.282473 0,0 z M 48.66819,46.4606 c -0.01132,-0.532283 0.61548,0.223908 0,0 z m 1.91867,0.01758 c -0.343125,-0.903646 1.027793,-0.123454 0,0 z m -9.945408,-0.09994 c 0.225553,-0.499964 0.214554,0.359758 0,0 z m 1.110127,-0.01845 c -0.135371,-0.747677 0.589748,-0.02525 0,0 z m 3.471389,0.01523 c -0.09491,-0.595796 0.547254,0.255329 0,0 z m 4.562218,-0.0765 c 0.145988,-0.72661 0.56098,0.280321 0,0 z M 36.726313,45.958373 c 0.382781,-0.378465 0.269027,0.248212 0,0 z M 34.79739,45.787848 c 0.07055,-0.386773 0.176517,0.25854 0,0 z m 7.868475,-0.0369 c 0.196099,-0.727658 0.189344,0.480635 0,0 z m 1.771362,0.03229 c 0.08449,-0.666606 0.292078,0.29532 0,0 z m -9.348588,-0.0458 c 0.331921,-0.368327 0.149022,0.226962 0,0 z m 14.312613,-0.174753 c 0.720645,-0.979422 0.330843,1.088765 0,0 z m 0.842059,0.09602 c 0.333419,-0.537612 0.250864,0.581992 0,0 z m -3.258752,-0.08835 c -0.101149,-0.582231 0.511164,0.239406 0,0 z m 0.685469,-0.0032 c 0.02852,-1.049489 1.106912,0.180392 0,0 z M 41.74915,45.381953 c 0.316909,-0.529686 0.34106,0.543942 0,0 z m 9.115429,-0.0074 c 0.0894,-0.856294 0.548493,0.552482 0,0 z m -8.733464,-0.01469 c 0.209651,-0.617314 0.54758,0.441851 0,0 z m 7.077004,-0.139765 c -0.369483,-0.44081 0.485353,-0.07732 0,0 z m -4.971251,-0.08866 c 0.229493,-0.404346 0.282431,0.423374 0,0 z m 2.203286,-0.01893 c 0.12404,-0.878244 0.761334,0.309074 0,0 z m 2.184362,-0.111804 c 0.260806,-0.492693 0.04092,0.604686 0,0 z m -4.793658,0 c -0.459692,-0.686012 0.836737,0.01442 0,0 z m 5.939553,-0.158888 c 0.422872,-0.991687 1.305766,0.443575 0,0 z m -1.573219,-0.0983 c -0.0033,-0.796435 0.773469,0.369639 0,0 z m 2.871899,-0.03006 c 0.213487,-0.302894 0.0069,0.412962 0,0 z m -6.83717,-0.180142 c 0.225553,-0.499964 0.214554,0.359758 0,0 z m 1.144073,-0.0028 c -0.1377,-0.58517 0.57015,0.229213 0,0 z m -4.584898,-0.07586 c 0.312605,-0.942315 1.167196,0.275292 0,0 z m 1.962621,0.0086 c 0.04986,-0.392101 0.20545,0.226724 0,0 z m 5.065532,-0.0086 c 0.156061,-0.675623 0.672847,0.453031 0,0 z m 3.432254,-0.345635 c -0.828,-1.465977 1.354926,0.727703 0,0 z m -1.4249,0.08503 c -0.984678,-0.654886 0.620436,-0.59747 0,0 z m -5.860888,-0.149796 c -0.144715,-0.452987 0.39964,0.03787 0,0 z m 0.495385,-0.10138 c 0.188844,-0.371985 0.251778,0.52608 0,0 z m 6.108295,-0.226306 c 0.121538,-0.441439 0.2883,0.420009 0,0 z m -6.910421,-0.105789 c 0.425545,-0.565898 0.0582,0.468844 0,0 z m 4.903473,-0.04151 c 0.08449,-0.666607 0.292078,0.29532 0,0 z m 3.430679,-0.02377 c 0.05273,-1.076623 1.096503,0.322029 0,0 z m -10.683236,-0.0237 c -0.518738,-0.53614 0.679797,0.27293 0,0 z m 5.939553,-0.212364 c 0.235724,-0.325173 0.110454,0.405876 0,0 z m 1.910993,-0.0072 c 0.101345,-0.676722 0.591062,0.385602 0,0 z m -6.674105,-0.131718 c -0.288397,-0.85453 0.554357,0.458341 0,0 z m 5.603434,-0.03946 c 0.161317,-0.350664 0.161319,0.350662 0,0 z m 1.846929,-0.270631 c 0.203476,-0.698507 0.272432,0.542695 0,0 z m 0.662359,-0.05676 c -0.364216,-0.810396 0.573676,0.320454 0,0 z m -2.613222,-0.09281 c -0.289863,-0.461134 0.527725,0.04182 0,0 z m 1.048472,-0.059 c 0.03065,-0.814783 0.640012,0.505136 0,0 z m -2.548788,-0.04747 c 0.482174,-0.372933 0.569929,0.457723 0,0 z m 5.458954,0.0052 c 2.61e-4,-0.477933 0.294402,0.367183 0,0 z m -8.66746,-0.133654 c 0.168443,-0.666199 0.518009,0.359706 0,0 z m -2.556288,-0.152138 c 0.56404,-0.889079 1.192954,0.22299 0,0 z m 1.521413,-0.219224 c 0.856808,-0.946456 0.788205,1.023944 0,0 z m 6.115007,0.140929 c 0.154946,-0.493891 0.197838,0.270557 0,0 z m -1.241386,-0.24183 c -0.515997,-0.456657 0.72725,0.261228 0,0 z m 4.614185,-0.0141 c 0.266429,-0.53133 0.365505,0.496734 0,0 z m -2.236592,-0.02285 c -0.681157,-0.696023 0.798776,-0.571318 0,0 z m -1.767659,-0.108664 c 0.360537,-0.746733 1.462162,-0.415687 0,0 z m 0.991887,0.007 c 0.148962,-0.480332 0.254767,0.336473 0,0 z m 1.358406,-0.0624 c 0.161318,-0.350664 0.161318,0.350664 0,0 z m -6.060508,-0.0492 c -0.07561,-0.527152 0.451276,0.299414 0,0 z m 1.681308,6.64e-4 c -0.05818,-0.742588 0.558461,0.232855 0,0 z M 44.99781,41.436795 c 0.02014,-0.470449 0.493954,0.247724 0,0 z M 42.513079,41.28611 c 0.260647,-0.444768 0.144508,0.524003 0,0 z m 5.118329,-0.141448 c 0.17229,-0.712726 0.287819,0.503916 0,0 z M 41.42448,40.123884 c 1.037575,-0.05178 2.862576,0.04207 0.833443,0.02337 -0.277928,-0.0022 -0.555876,-0.0086 -0.833443,-0.02337 z m 5.844061,5.1e-5 c 1.31859,-0.0687 2.177178,0.07054 0.375584,0.01958 -0.125195,-0.0065 -0.250389,-0.01305 -0.375584,-0.01958 z m -1.302405,-0.696893 c -0.430878,-0.387269 0.178536,-0.856123 0.02524,0.369522 z m -0.488055,-0.995705 c 0.331922,-0.368328 0.149022,0.226962 0,0 z m 0.547542,-0.06207 c -0.24342,-0.487326 0.396552,0.436994 0,0 z m 0.918248,-0.284376 c 0.04145,-0.359448 0.311728,0.04548 0,0 z m -0.840323,-0.410575 c -0.07218,-0.523636 0.262742,0.181986 0,0 z m -1.833431,-0.553492 c -0.01362,-0.695449 0.212054,0.341092 0,0 z m 3.111578,-0.03534 c -0.0741,-0.425275 0.204145,0.332789 0,0 z m -1.88929,-0.108719 c 0.07587,-0.34155 0.262397,0.198199 0,0 z m 0.464389,-0.235442 c 0.127941,-0.234962 -0.04686,0.387921 0,0 z M 44.6463,36.507627 c -0.580768,-0.676093 0.902193,0.884565 0,0 z m 2.335768,0.05535 c 0.59214,-0.789885 -0.118612,0.394036 0,0 z m -2.711951,-0.844332 c 0.06202,-0.927717 0.139183,0.473946 0,0 z m 3.111578,-0.109139 c -0.07409,-0.425274 0.204144,0.332791 0,0 z M 44.6463,35.031648 c -0.580768,-0.676094 0.902191,0.884564 0,0 z m 2.335768,0.05535 c 0.59214,-0.789885 -0.118612,0.394036 0,0 z M 45.676129,34.25676 c -0.332843,-0.471354 0.713023,0.755545 0,0 z m 1.715259,-0.479694 c -0.214109,-1.646122 0.301751,1.022306 0,0 z m -2.857036,0.198038 c -0.130021,-0.39074 0.264452,0.283473 0,0 z m -0.139075,-0.327186 c 0.145749,-0.4627 0.08802,0.360454 0,0 z m -0.09025,-0.313531 c 0.117682,-0.730658 0.325461,0.501045 0,0 z m 1.406812,-0.627406 c 0.405051,-0.731572 0.361995,0.267822 0,0 z m 12.041636,-1.900323 c 0.48699,-0.554489 0.821749,0.228518 0,0 z M 56.512089,30.68 c 0.577427,-0.121962 0.274528,0.153352 0,0 z M 34.186247,30.58526 c 0.539628,-0.376208 0.854297,0.267793 0,0 z m 0.744831,0.02492 c 0.245436,-0.327283 0.206293,0.229912 0,0 z m 23.554161,-0.658364 c 0.127941,-0.234962 -0.04686,0.387921 0,0 z M 33.434379,29.84727 c 0.05613,-0.416259 0.05613,0.416258 0,0 z m 25.127253,-0.264446 c 0.127941,-0.234962 -0.04686,0.387921 0,0 z m -25.203646,-1.43293 c 0.05614,-0.416259 0.05614,0.416258 0,0 z M 58.550427,27.891597 58.146732,27.649433 Z M 33.345924,27.788164 c -0.05939,-0.374162 0.330644,0.09532 0,0 z m 5.86316,0.01445 c 0.569973,-0.424046 0.343265,0.255832 0,0 z m 2.941129,-7.77e-4 c 0.577407,-0.121965 0.27454,0.153354 0,0 z m 9.240206,-0.0018 c 0.696235,-0.104085 0.875075,0.132275 0,0 z m -13.518212,-0.07002 c 0.382783,-0.378461 0.269026,0.24821 0,0 z m 6.988252,-0.0024 c 0.495589,-0.170966 0.387183,0.186461 0,0 z m 3.819648,0 c 0.495589,-0.170966 0.387183,0.186461 0,0 z m 5.540193,0.0024 c 0.382784,-0.378461 0.269026,0.24821 0,0 z m -17.607686,-0.07512 c 0.579128,-0.39201 0.326259,0.245646 0,0 z m 18.906367,0.0013 c 0.382783,-0.378461 0.269026,0.24821 0,0 z"
                                   id="path6-6" /></g></g></g></g></g></g></g></g></g></g></g></g></g></g></g><path
                                   style="fill:#5698a9;stroke-width:0.0750848"
                                   d="m 33.806079,61.546018 c -0.594133,-3.252045 2.253553,-6.097267 1.381509,-9.373647 0.184275,-1.931318 -1.709715,-6.726082 1.396577,-6.364585 2.634412,1.336305 0.615151,4.697565 1.416872,6.893557 0.681274,3.041519 4.137491,1.599787 6.30821,1.874741 2.76265,0.02468 5.533864,0.159409 8.28924,-0.111914 2.545439,-1.915754 0.552521,-5.413253 1.289887,-8.026368 -0.13216,1.831232 0.217084,4.167636 -0.0097,6.175797 -0.238825,2.957521 -3.686027,1.900108 -5.646874,2.039959 -3.033486,0.03288 -6.068959,0.08075 -9.10104,-0.04618 -2.025669,1.4447 -3.601378,3.483378 -5.267719,5.287872 -0.217846,2.714805 3.847059,1.471284 5.57071,1.709643 1.107065,0.0076 -2.080145,0.04073 -2.790543,0.04731 -0.94653,0.0018 -1.89416,-0.02007 -2.837159,-0.106179 z m 21.477427,0.03641 c 1.122843,1.122924 3.903945,-1.398579 3.380717,-0.869705 -0.799489,2.066006 -5.707976,0.408725 -5.430348,0.893251 0.683233,-0.0062 1.366457,-0.01423 2.049631,-0.02355 z m -12.40756,-0.05688 c 0.893089,-0.03873 3.942708,0.02016 1.523026,0.02428 -0.507752,0.0011 -1.015656,-0.003 -1.523026,-0.02428 z m 7.601099,5.9e-4 c 0.993393,-0.05314 0.65964,0.08123 0,0 z m -1.718841,-0.07246 c 0.667464,-0.178936 0.311989,0.18062 0,0 z m 9.117749,-3.849449 c -1.826179,-3.62655 -0.348841,-7.731921 -0.746565,-11.576055 0.543024,4.005364 -0.964987,8.320277 1.013553,12.08964 0.541671,1.585643 -0.129555,0.107906 -0.266988,-0.513585 z m -4.548867,-11.7357 c 0.300305,-0.426109 0.578266,0.35179 0,0 z m 1.313376,0.01288 0.486405,0.01385 z m 1.107698,-0.07063 c 0.382781,-0.378465 0.269027,0.248212 0,0 z m 0.612597,-0.07407 c 0.401076,-0.447386 0.268039,0.255797 0,0 z m -3.130534,-2.210854 c 1.009114,-3.271671 -3.380571,-3.412767 -5.498735,-2.937515 -0.992958,0.143221 -4.488904,-0.0545 -1.474842,-0.05719 2.237795,0.303367 6.137564,-1.302408 7.096015,1.511431 0.225445,1.171035 -0.263665,4.294052 -0.122419,1.483274 z m 0.466976,0.859815 c -0.0022,-1.74771 0.0573,1.082598 0,0 z m -0.01518,-2.250868 c -0.316846,-3.116765 -4.312751,-1.559355 -6.390478,-1.909803 -1.330506,4.7e-5 -4.654786,-0.124538 -4.840091,0.200459 2.333345,0.435836 -5.133444,-0.03792 -1.406455,-0.205111 2.748136,0.03593 5.130832,-0.562265 7.743604,0.0033 1.770337,-0.4738 5.363165,-0.387514 4.89342,1.911191 z m -8.687769,-3.90615 c -1.750031,-1.364811 2.121853,-0.569244 0.233378,0.163198 -0.07779,-0.0544 -0.155585,-0.108799 -0.233378,-0.163198 z m 0.614685,-0.168755 c -0.247785,-1.94906 -2.371195,0.28687 0,0 z m 0.469149,0.298854 c -0.352822,-2.13791 2.864703,-0.34157 0,0 z m 0.855492,-0.415566 c 1.364882,-1.90753 -2.329091,0.837957 0,0 z m -1.832987,-1.157781 c -2.218015,-2.085962 2.186708,-0.183595 0,0 z m 0.544602,-0.05153 c -0.303898,-2.112843 -2.282163,0.03635 0,0 z m 0.381965,-0.02561 c 0.424748,-2.525463 2.437196,0.707216 0,0 z m 0.479909,0.0483 c 2.494626,-1.549335 -1.609679,-0.68364 0,0 z M 45.148636,35.31651 c -2.098446,-1.324567 1.458113,-1.590915 0.28704,0.111121 z m 0.420162,-0.07588 c -0.393168,-0.892654 -1.084579,0.03109 0,0 z m 0.509286,0.166161 c -0.131675,-2.030591 2.562256,-1.221059 0.533325,-0.06746 l -0.260904,0.0721 z M 46.72513,35.01943 c 0.556819,-0.913294 -0.596881,0.209549 0,0 z m 0.218741,-0.637879 c -0.213487,-0.302894 -0.0069,0.412962 0,0 z m 0.305572,-0.104027 -0.0058,-0.03125 z m -1.593884,-0.117043 c -1.332087,-1.548299 2.271401,-1.164824 0,0 z M 44.34651,33.532863 c 0.22776,-0.414105 -0.01668,0.545173 0,0 z m 1.680646,-2.872956 c -4.015957,-0.0031 -8.031639,-0.05506 -12.047443,-0.08402 -2.266767,-2.078377 1.507735,-4.077587 3.321993,-2.834328 5.901621,0.131208 11.813133,0.03183 17.711066,-0.0062 1.208214,-0.674384 4.190846,0.423921 3.502496,0.768055 -1.692646,-1.883787 -4.698841,-9.19e-4 -6.934153,-0.628763 -5.392033,-0.07503 -10.79954,0.336567 -16.177445,-0.112742 -2.155631,-0.344071 -1.792315,2.304748 0.227498,1.742508 4.312508,0.595562 8.641165,-0.157092 12.968841,0.157431 2.780002,0.422279 6.174734,-0.518628 8.589182,0.20835 -0.03629,1.933766 -3.689146,0.275838 -5.235735,0.807571 -1.975433,-0.0052 -3.950909,-0.0041 -5.9263,-0.01791 z m 12.305297,-0.265294 c 0.127941,-0.234964 -0.04686,0.387921 0,0 z m 0.07639,-0.295196 c 0.127941,-0.234964 -0.04686,0.387921 0,0 z m 0.08242,-0.399745 c 0.05614,-0.416259 0.05614,0.416259 0,0 z M 38.063189,28.688203 c 0.569974,-0.424047 0.343265,0.255834 0,0 z m -0.362866,-0.390711 c 1.23646,-0.205222 2.136988,0.205995 0.385522,0.02588 -0.128507,-0.0086 -0.257015,-0.01725 -0.385522,-0.02588 z"
                                   id="path5-5" /><path
                                   style="fill:#3a8498;stroke-width:0.0750848"
                                   d="m 33.854702,61.525478 c -0.580329,-2.774728 2.8059,-3.896 3.926079,-5.982945 2.216841,-1.807775 5.145355,-0.522081 7.711083,-0.768302 2.452095,-2.44e-4 4.902956,-0.09072 7.352819,-0.18663 2.610981,1.092178 -0.755407,3.419905 -2.183768,1.929754 -2.65853,-0.114944 -5.302108,0.369541 -7.962634,0.311419 -2.844987,0.218112 -5.970498,0.701389 -8.132955,2.708243 0.01658,1.003944 2.165849,0.772531 0.57585,1.218069 2.58308,0.03392 -0.972851,0.577628 -0.932083,0.808781 -0.119367,0.0042 -0.235937,-0.02954 -0.354391,-0.03839 z m 24.242541,-0.227547 c 0.226931,-0.372348 0.226931,0.372348 0,0 z m 0.48125,-0.307496 c 0.04483,-0.825481 0.03972,0.834062 0,0 z m -0.441094,0.07686 c 0.02014,-0.470449 0.493954,0.247725 0,0 z m -2.404462,-5.272694 c -0.453599,-0.91869 0.358086,0.306191 0,0 z m -2.44845,-1.556773 c 0.794243,-0.911159 -0.283298,0.515653 0,0 z m 0.626036,-1.106985 c 0.09306,-0.392349 -0.01208,0.532655 0,0 z m -0.0028,-0.996286 c 0.05614,-0.416259 0.05614,0.416259 0,0 z M 53.67248,45.5972 c 0.127941,-0.234962 -0.04686,0.387922 0,0 z m 0.01324,-2.576814 c 0.108846,-0.479207 -0.04662,0.808569 0,0 z M 43.631022,40.496518 c -1.404775,0.06847 -2.398809,-0.343 -0.414061,-0.226672 1.685041,-0.03942 5.280514,-0.223513 5.764243,0.1547 -1.781238,0.151057 -3.573287,-0.16975 -5.350182,0.07197 z m 2.87359,-0.148077 c -0.569974,-0.424046 -0.343265,0.255833 0,0 z m 4.65997,-0.150053 c 0.866924,-0.06776 0.686992,0.09952 0,0 z m -5.583723,-2.011834 c 0.05615,-0.416261 0.05615,0.416261 0,0 z m 0.567837,0.08466 c -0.07103,-1.94279 2.380814,-0.357646 0,0 z m -1.212279,-0.168461 c -1.395256,-1.143198 1.7342,-0.460524 0.110372,0.04182 z m 0.53689,-1.293459 c -2.117636,-0.641853 0.301134,-1.936157 0,0 z m 0.69618,-0.01712 c 0.08484,-1.927254 2.263816,-0.256765 0,0 z m -1.020851,-1.630601 c -1.139571,-0.877899 1.20127,0.348161 0,0 z m 1.448745,-0.07032 c -0.377585,-0.660832 0.624844,-0.17057 0,0 z m 0.235163,-0.663345 c -0.0728,-0.444554 0.292716,0.257166 0,0 z m 0.286615,-0.111971 c -0.329313,-0.659131 0.423197,0.338738 0,0 z m 9.918958,-3.723309 c 0.546364,-2.308474 -3.271082,-0.293544 -4.604318,-0.871205 -4.404926,0.06256 -8.825301,-0.375225 -13.217423,0.127564 -1.460418,-0.698351 -5.819295,0.591404 -4.999691,-1.860476 2.411747,-0.58919 4.901806,0.324141 7.359334,-0.0092 4.550825,-0.125566 9.111028,-0.02695 13.655972,-0.206117 2.504206,-0.729613 4.746838,1.123537 1.806126,2.819464 z m -15.021592,-1.18815 c -1.057593,-0.304759 -2.989181,0.173594 -0.820359,0.06491 0.274238,-0.009 0.5483,-0.02868 0.820359,-0.06491 z m 11.61173,0.0042 c -1.119704,-0.253493 -0.881803,0.309979 0,0 z m 2.999314,-0.202537 c -0.48063,-0.337061 -0.263702,0.236198 0,0 z m -15.050303,-0.22564 c -0.886055,-0.04442 -1.829594,0.07543 0,0 z m 0.954912,0.0061 c -0.245436,-0.327282 -0.206293,0.229911 0,0 z m -4.12522,-0.298403 c -0.569973,-0.424047 -0.343265,0.255834 0,0 z m 0.897617,-0.394045 c -3.029746,-0.0918 1.63852,0.181908 0,0 z m 17.005237,-0.3855 c -0.791675,-0.229253 -1.328682,0.240697 0,0 z m 2.188661,0.425733 c 0.108846,-0.479208 -0.04662,0.808569 0,0 z"
                                   id="path4-0" /><path
                                   style="fill:#377688;stroke-width:0.0750848"
                                   d="m 34.224443,61.507028 c 1.34813,-0.486841 2.200969,-0.573074 1.121791,-0.897506 1.769274,0.147181 -1.857883,-0.688629 -0.0605,-1.572058 2.160107,-1.740675 5.109795,-1.98191 7.779361,-2.237913 2.20662,-0.022 4.4425,-0.06621 6.611155,-0.362017 1.733608,0.758813 5.711514,0.532184 3.463434,-1.926843 1.375023,-1.965721 0.831607,-4.156371 0.657365,-6.402561 -0.619404,-2.556515 2.767467,-2.652838 2.232361,-0.04538 -0.169232,2.561162 -0.77373,5.275798 0.200984,7.745287 0.568058,1.135513 1.595558,1.752641 0.633638,0.171603 -1.011106,-3.133752 0.458367,-6.397352 -0.161047,-9.579823 0.606343,-0.973007 0.498685,2.355108 0.403593,2.998358 -0.119853,2.796327 -0.59956,5.747088 0.801367,8.329621 0.842732,1.38737 1.405962,4.274744 -0.975372,3.827238 0.800375,0.04742 -0.777225,-0.66775 0.47664,-1.147931 1.011863,-1.843125 -2.718762,-1.674276 -3.928586,-1.954333 -5.556389,-0.270459 -11.156522,-0.27964 -16.658605,0.657924 -1.840739,1.428822 2.405698,0.677037 2.95533,1.612868 1.167447,0.02306 5.604274,-0.06831 2.305753,0.129513 -1.221602,-0.08053 -2.865195,0.351338 -0.65335,0.318119 0.04571,0.144256 -4.769677,0.265071 -1.92069,0.352447 -1.760627,0.05931 -3.524137,0.03481 -5.284621,-0.01661 z m 24.101979,-0.209097 c -0.22693,-0.372348 -0.22693,0.372348 0,0 z m 0.04334,-0.364029 c -0.372044,-0.178119 -0.01032,0.464152 0,0 z m 0.04118,-1.422903 c -0.470424,-0.300237 0.447839,1.103207 0,0 z m -0.176205,-0.609137 c -0.442754,-1.120351 0.06118,0.701169 0,0 z M 55.804219,55.67468 c -0.51424,-0.421675 0.540328,0.915863 0,0 z m -1.7449,-8.791479 c -0.468859,0.278853 0.432039,0.550978 0,0 z m 0.658426,-0.777064 c -0.480635,-0.337053 -0.263698,0.236188 0,0 z m -2.021553,15.419689 c 0.992952,-0.114212 1.488285,0.12809 0,0 z m -11.387074,-0.0611 c 3.248945,-0.08953 6.500788,-0.12435 9.749804,-0.01882 -3.249474,0.06448 -6.500107,0.07116 -9.749804,0.01882 z m 3.533947,-0.324402 c 0.781189,-0.326929 3.542753,0.09744 1.206368,0.05854 -0.402592,-0.0074 -0.804918,-0.0275 -1.206368,-0.05854 z m 0.229179,-0.367126 c 0.690627,-0.543772 3.413776,0.190421 1.044692,0.04926 l -0.52348,-0.0079 z m -4.677616,-0.350495 c 0.401076,-0.447386 0.268039,0.255797 0,0 z m 0.571494,-9.38e-4 c 0.569973,-0.424047 0.343265,0.255834 0,0 z m 1.070392,-0.07391 c 0.579133,-0.392023 0.326265,0.245654 0,0 z m 4.224504,-5.554645 c 0.568839,-0.114277 0.775924,0.22464 0,0 z m 7.09132,-8.98691 c 0.03619,-2.14015 0.638088,-5.969734 -2.7519,-5.370666 0.524581,-0.747245 4.093593,0.124561 3.063555,2.271205 0.06228,1.033325 0.235164,2.156749 -0.311655,3.099461 z m 0.217479,-3.54235 c -0.144572,0.746067 0.11842,0.635451 0,0 z m 2.638154,3.546558 c 0.401076,-0.447386 0.268039,0.255797 0,0 z M 44.652082,40.843317 c 0.07055,-0.386773 0.176517,0.25854 0,0 z m -0.916715,-0.184498 c 0.174962,-0.734497 0.127948,0.464304 0,0 z m 0.869221,-0.1123 c 1.465165,-0.656915 1.853087,0.153589 0,0 z m 0.696834,-2.320401 c -0.20525,-0.646998 0.727427,0.451886 0,0 z m 0.0382,-1.470748 c 0.151127,-0.386988 0.292424,0.299448 0,0 z M 57.72383,30.653082 c -0.05306,-0.947219 1.345132,-3.452563 0.650972,-1.016983 -0.367381,0.291652 0.120533,1.318767 -0.650972,1.016983 z M 39.113593,29.404476 c 1.080991,-0.295189 3.030316,0.174726 0.88688,0.0595 -0.296129,-0.01103 -0.591932,-0.03086 -0.88688,-0.0595 z m 13.406964,0 c 0.873435,-0.298549 1.148729,0.318228 0,0 z m 3.801441,-0.199793 c 0.579127,-0.39201 0.326259,0.245646 0,0 z m -16.081609,-0.22415 c 0.886033,-0.04442 1.829598,0.07542 0,0 z m 2.100806,0.0061 c 0.245435,-0.327282 0.206293,0.22991 0,0 z M 54.821551,27.92144 c 1.358362,-0.381598 1.050041,0.389041 0,0 z"
                                   id="path3-2" /><path
                                   style="fill:#2b6678;stroke-width:0.0750848"
                                   d="m 52.864325,61.487497 c -5.126802,-0.136111 -10.255748,-0.06071 -15.3833,-0.02172 0.996314,-0.09072 4.133368,-0.145647 3.819007,-0.290472 -3.480595,-0.292052 5.16263,-0.490498 1.029152,-0.450671 -2.101196,0.05841 -4.29052,-0.263143 -6.173851,-1.232358 3.250946,-1.261384 6.826836,-0.928981 10.244059,-1.198885 3.426565,-0.02277 6.918055,-0.06198 10.277378,0.65943 1.811414,0.346553 0.522559,1.944109 0.262186,2.261657 -0.544827,0.908163 -3.019428,0.05437 -4.074631,0.273019 z m -5.262678,-0.32654 c -1.050827,-0.468634 -3.073331,0.209419 -0.84857,0.03762 0.283107,-0.0056 0.566091,-0.0179 0.84857,-0.03762 z m -0.424544,-0.367152 c -1.040799,-0.601983 -3.323977,0.216631 -0.924947,0.03007 0.308534,7.06e-4 0.617144,-0.0085 0.924947,-0.03007 z m -6.553296,-0.36837 c -0.485894,-0.285583 -0.247494,0.23752 0,0 z m 0.686083,-0.0037 c -0.569973,-0.424046 -0.343265,0.255832 0,0 z m 1.032196,-0.07242 c -0.480636,-0.337053 -0.263699,0.23619 0,0 z m 16.071132,-0.447436 c -0.536857,-0.325224 0.492086,-0.568014 0,0 z m -0.264087,-0.944367 c -0.614395,-1.166355 0.51118,0.563028 0,0 z m -0.791799,-1.455183 c -1.73766,-1.915185 -1.984407,-4.673323 -1.392143,-7.085291 -0.06353,-1.062379 -0.528336,-4.808542 0.688737,-3.935933 0.852448,3.094338 -0.959308,6.469784 0.230826,9.416945 0.284209,0.474208 0.65765,1.018855 0.47258,1.604279 z M 53.984944,47.07933 c 0.09705,-1.123761 0.08316,1.136451 0,0 z m 0.42723,-0.974683 c 0.579132,-0.392023 0.326265,0.245655 0,0 z m -0.870969,-3.490155 c 0.03883,-1.203998 0.02566,1.166452 0,0 z m 4.422351,-12.012148 c -0.350483,-1.035325 1.225411,-0.239504 0,0 z"
                                   id="path2-8" /></g></g></g></g></g></g></g></g></g></g></g></g></g></g></g></g></svg>
