<?xml version="1.0" encoding="UTF-8" standalone="no"?>
<!-- Uploaded to: SVG Repo, www.svgrepo.com, Generator: SVG Repo Mixer Tools -->

<svg
   height="800px"
   width="800px"
   version="1.1"
   id="Layer_1"
   viewBox="0 0 512 512"
   xml:space="preserve"
   xmlns="http://www.w3.org/2000/svg"
   xmlns:svg="http://www.w3.org/2000/svg"><defs
   id="defs26" />




















<g
   id="g32"><g
     id="g31"><g
       id="g30"><g
         id="g29"
         transform="matrix(1.324142,0,0,1.1315643,-82.980348,-67.360926)"><g
           id="g28"><g
             id="g27"><g
               id="g26"><path
                 style="fill:#b3b3b3"
                 d="m 220.316,249.432 c 23.787,0 47.569,0 71.356,0 l 0.388,4.877 -34.872,52.862 -37.458,-53.389 0.582,-4.35 z"
                 id="path1" /><path
                 style="fill:#f0ba7d"
                 d="m 220.777,236.167 -0.619,29.819 -50.589,27.666 v 101.405 h 85.166 85.152 V 293.652 l -47.019,-29.223 -2.582,-29.814 -69.508,1.557 v -0.005 z"
                 id="path2" /><path
                 style="fill:#fed298"
                 d="m 197.401,149.214 c 0,0 -2.9,-6.374 -10.688,-3.215 -7.787,3.155 0.351,34.65 3.326,39.047 2.974,4.392 7.764,1.603 9.51,1.427 2.48,18.775 2.702,31.717 10.217,39.634 7.117,7.496 23.417,22.776 32.003,28.1 5.815,1.229 10.152,1.949 14.235,2.166 4.078,-0.217 8.42,-0.937 14.235,-2.166 8.586,-5.326 24.886,-20.605 32.003,-28.1 7.514,-7.917 7.737,-20.853 10.217,-39.634 1.746,0.176 6.531,2.965 9.51,-1.427 2.974,-4.392 11.117,-35.888 3.326,-39.047 -7.787,-3.159 -10.688,3.215 -10.688,3.215 0,0 7.7,-24.734 -5.986,-49.079 -9.376,-16.687 -30.766,-25.339 -52.612,-25.976 -21.846,0.633 -43.237,9.288 -52.612,25.976 -13.685,24.345 -5.986,49.079 -5.986,49.079 z"
                 id="path3" /><path
                 style="fill:#21d0c3"
                 d="m 195.35,274.761 c 5.445,44.982 121.031,43.708 121.298,0.005 l 38.013,64.612 -30.105,163.324 C 302.733,508.753 279.75,512 256,512 c -19.371,0 -38.229,-2.166 -56.368,-6.24 l -53.956,-161.223 49.68,-69.776 z"
                 id="path4" /><path
                 style="fill:#0055d4"
                 d="m 206.385,271.279 c -134.374,43.699 -95.863,22.387 -126.24,170.746 18.267,17.274 39.08,31.879 61.813,43.209 l 13.487,-44.008 c 0.157,-0.503 0.638,-0.817 1.16,-0.758 0.522,0.059 0.919,0.48 0.951,1.007 l 1.949,51.689 c 29.782,12.133 62.353,18.83 96.5,18.83 V 405.006 L 206.39,271.274 Z"
                 id="path5" /><path
                 style="fill:#0055d4"
                 d="m 305.587,271.584 c 134.484,43.277 95.891,22.096 126.268,170.442 -18.267,17.274 -39.084,31.879 -61.817,43.214 l -13.487,-44.008 c -0.153,-0.503 -0.638,-0.822 -1.164,-0.758 -0.522,0.065 -0.919,0.485 -0.947,1.007 L 352.5,493.17 C 322.718,505.303 290.142,512 256.005,512 V 405.011 l 49.587,-133.427 z"
                 id="path6" /><path
                 style="fill:#fefefe"
                 d="m 346.394,409.066 c -9.991,-1.723 -16.692,-11.224 -14.965,-21.21 1.723,-9.99 11.224,-16.692 21.21,-14.97 9.991,1.723 16.692,11.224 14.965,21.214 -1.723,9.99 -11.224,16.692 -21.214,14.965 h 0.004 z"
                 id="path7" /><path
                 style="fill:#21d0c3"
                 d="m 346.574,408.013 c -9.409,-1.626 -15.717,-10.567 -14.096,-19.976 1.626,-9.409 10.567,-15.722 19.976,-14.096 9.409,1.626 15.717,10.572 14.096,19.981 -1.626,9.407 -10.567,15.717 -19.976,14.091 z"
                 id="path8" /><path
                 style="fill:#ebecec"
                 d="m 347.891,400.406 c -5.201,-0.896 -8.697,-5.852 -7.797,-11.052 0.896,-5.206 5.848,-8.697 11.052,-7.797 5.205,0.9 8.697,5.848 7.797,11.052 -0.896,5.206 -5.848,8.697 -11.052,7.797 z"
                 id="path9" /><path
                 style="fill:#fefefe"
                 d="m 349.012,382.578 4.203,0.726 2.259,-13.089 -4.203,-0.726 z"
                 id="path10" /><path
                 style="fill:#21d0c3"
                 d="m 208.237,412.701 7.875,-1.561 c 3.348,-0.665 6.12,-2.637 7.885,-5.28 1.765,-2.643 2.531,-5.958 1.866,-9.302 l -9.261,-46.668 c -3.496,-17.612 -17.274,-26.59 -33.015,-28.581 -6.032,-0.763 -12.355,-0.485 -18.484,0.73 -6.129,1.21 -12.073,3.371 -17.357,6.379 -13.755,7.834 -23.025,21.375 -19.524,39.015 l 9.261,46.668 c 0.665,3.348 2.637,6.115 5.28,7.885 l 0.005,-0.005 c 2.642,1.769 5.953,2.531 9.298,1.87 l 7.871,-1.561 -0.642,-3.247 -7.875,1.561 c -2.452,0.485 -4.886,-0.074 -6.822,-1.367 v 0 c -1.94,-1.297 -3.385,-3.331 -3.875,-5.783 l -9.261,-46.668 c -3.178,-16.004 5.317,-28.341 17.902,-35.505 4.974,-2.835 10.581,-4.868 16.374,-6.018 5.788,-1.146 11.75,-1.404 17.436,-0.689 14.406,1.819 27.01,9.982 30.179,25.957 l 9.265,46.668 c 0.485,2.452 -0.079,4.882 -1.371,6.822 -1.297,1.935 -3.331,3.385 -5.783,3.87 l -7.875,1.561 0.642,3.247 h 0.006 z"
                 id="path11" /><path
                 style="fill:#4d4d4d"
                 d="m 219.101,356.8 -1.418,-7.131 c -3.603,-18.157 -17.777,-27.412 -33.962,-29.458 -6.148,-0.776 -12.59,-0.499 -18.831,0.739 -6.245,1.234 -12.3,3.436 -17.68,6.498 -14.147,8.055 -23.671,22.004 -20.064,40.188 l 1.418,7.131 5.404,-1.076 -1.418,-7.127 c -3.067,-15.459 5.168,-27.393 17.362,-34.336 4.872,-2.776 10.369,-4.767 16.046,-5.893 5.677,-1.127 11.52,-1.381 17.09,-0.675 13.963,1.765 26.165,9.653 29.232,25.08 l 1.413,7.131 z"
                 id="path12" /><g
                 id="g14">
	<path
   style="fill:#076673"
   d="m 153.704,424.234 4.213,-0.836 c 1.058,1.187 2.693,1.796 4.364,1.464 2.508,-0.499 4.138,-2.933 3.64,-5.441 -0.494,-2.503 -2.933,-4.134 -5.441,-3.635 -1.672,0.332 -2.951,1.52 -3.473,3.021 l -4.213,0.836 z"
   id="path13" />
	<path
   style="fill:#076673"
   d="m 211.586,412.747 -4.208,0.836 c -0.522,1.496 -1.801,2.688 -3.473,3.021 -2.508,0.494 -4.942,-1.132 -5.441,-3.64 -0.494,-2.503 1.132,-4.942 3.635,-5.436 1.668,-0.332 3.308,0.281 4.36,1.464 l 4.213,-0.836 0.91,4.591 z"
   id="path14" />
</g><path
                 style="fill:#666666"
                 d="m 167.458,320.534 -1.607,-8.097 -3.196,0.638 -3.192,0.633 1.626,8.175 c 1.215,-0.355 2.448,-0.656 3.695,-0.9 0.887,-0.176 1.779,-0.323 2.674,-0.443 z"
                 id="path15" /><g
                 id="g17">
	<path
   style="fill:#0f7986"
   d="m 160.562,419.731 c 0.758,-0.153 1.252,-0.891 1.099,-1.644 -0.148,-0.758 -0.887,-1.252 -1.644,-1.104 -0.758,0.153 -1.252,0.887 -1.099,1.644 0.153,0.758 0.887,1.252 1.645,1.099 z"
   id="path16" />
	<path
   style="fill:#0f7986"
   d="m 202.219,411.449 c 0.758,-0.148 1.247,-0.887 1.099,-1.644 -0.153,-0.763 -0.887,-1.252 -1.644,-1.104 -0.758,0.153 -1.252,0.887 -1.099,1.649 0.148,0.758 0.887,1.247 1.649,1.099 z"
   id="path17" />
</g><path
                 style="fill:#fefefe"
                 d="m 347.378,400.318 c -4.923,-0.85 -8.226,-5.528 -7.377,-10.453 0.85,-4.919 5.528,-8.221 10.453,-7.372 4.923,0.85 8.226,5.528 7.377,10.453 -0.85,4.923 -5.533,8.226 -10.453,7.377 z"
                 id="path18" /><g
                 id="g20">
	<path
   style="fill:#4d4d4d"
   d="m 206.432,268.715 c -0.143,0 -49.86,0.416 -41.463,43.91 l -4.623,0.882 c -9.469,-49.037 45.873,-49.49 46.031,-49.49 z"
   id="path19" />
	<path
   style="fill:#4d4d4d"
   d="m 305.643,264.245 c 8.11,0.217 23.792,2.429 35.86,17.113 11.81,14.364 20.092,40.751 13.898,89.129 l -4.66,-0.591 c 5.99,-46.821 -1.751,-72.029 -12.868,-85.554 -10.859,-13.21 -25.02,-15.2 -32.345,-15.399 l 0.111,-4.697 h 0.004 z"
   id="path20" />
</g><path
                 style="fill:#fefefe"
                 d="m 256,256.369 c 0,0 -9.847,-0.522 -14.281,-1.833 -4.434,-1.311 -32.003,-28.1 -32.003,-28.1 l 0.863,-39.477 38.498,-1.756 c 0,0 4.582,-2.73 6.923,-2.153 2.346,-0.577 6.923,2.153 6.923,2.153 l 38.498,1.756 0.863,39.477 c 0,0 -27.569,26.789 -32.004,28.1 -4.433,1.311 -14.28,1.833 -14.28,1.833 z"
                 id="path21" /><path
                 style="fill:#eef3f7"
                 d="m 256,183.051 3.118,10.887 -1.658,7.602 3.413,18.327 -3.589,17.524 -1.288,18.979 c 0,0 9.847,-0.522 14.281,-1.833 4.434,-1.311 32.004,-28.1 32.004,-28.1 l -0.863,-39.477 -38.498,-1.756 c 0,0 -4.582,-2.73 -6.923,-2.153 z"
                 id="path22" /><g
                 id="g25"
                 style="fill:#0055d4">
	<path
   style="fill:#0055d4"
   d="m 194.751,141.427 18.679,46.525 -2.194,0.836 -18.679,-46.525 z"
   id="path23" />
	<path
   style="fill:#0055d4"
   d="m 318.723,142.928 -17.579,46.543 -2.268,-0.638 17.579,-46.543 z"
   id="path24" />
	<path
   style="fill:#0055d4"
   d="m 255.829,63.263 c 0,0 -57.697,8.655 -62.376,20.756 -4.679,12.101 -8.577,9.353 -7.409,23.653 1.169,14.3 0.665,38.331 0.665,38.331 49.485,-18.041 89.207,-18.696 138.235,0 0,0 -0.503,-24.031 0.665,-38.331 1.169,-14.3 -2.73,-11.551 -7.409,-23.653 -4.679,-12.101 -62.376,-20.756 -62.376,-20.756 z"
   id="path25" />
</g></g></g></g></g></g></g></g>

</svg>
