<?xml version="1.0" encoding="UTF-8" standalone="no"?>
<!-- Uploaded to: SVG Repo, www.svgrepo.com, Generator: SVG Repo Mixer Tools -->

<svg
   width="800px"
   height="800px"
   viewBox="0 0 64 64"
   aria-hidden="true"
   role="img"
   class="iconify iconify--emojione"
   preserveAspectRatio="xMidYMid meet"
   version="1.1"
   id="svg30"
   xmlns="http://www.w3.org/2000/svg"
   xmlns:svg="http://www.w3.org/2000/svg">
  <defs
     id="defs30" />
  <g
     id="g67"
     transform="translate(0,-7.1975879)">
    <g
       id="g66">
      <g
         id="g59">
        <g
           id="g58">
          <g
             id="g57">
            <g
               id="g56">
              <g
                 id="g55">
                <g
                   id="g54">
                  <g
                     id="g53">
                    <g
                       id="g52">
                      <g
                         id="g51">
                        <g
                           id="g47">
                          <g
                             id="g46">
                            <g
                               id="g45">
                              <g
                                 id="g44">
                                <g
                                   id="g40">
                                <g
                                   id="g39">
                                <g
                                   id="g38">
                                <g
                                   id="g37">
                                <path
                                   d="m 57.9,54.9 c 0,-3.9 -3.2,-7.1 -7.1,-7.1 -3.9,0 -7.1,3.2 -7.1,7.1 0,3.9 3.2,7.1 7.1,7.1 3.9,0 7.1,-3.2 7.1,-7.1"
                                   fill="#3e4347"
                                   id="path14" />
                                <g
                                   id="g43">
                                <g
                                   id="g42">
                                <g
                                   id="g41">
                                <path
                                   d="m 26,54.9 c 0,-3.9 -3.2,-7.1 -7.1,-7.1 -3.9,0 -7.1,3.2 -7.1,7.1 0,3.9 3.2,7.1 7.1,7.1 3.9,0 7.1,-3.2 7.1,-7.1"
                                   fill="#3e4347"
                                   id="path21" />
                                </g>
                                </g>
                                </g>
                                <g
                                   id="g36">
                                <g
                                   id="g35">
                                <g
                                   id="g34">
                                <g
                                   id="g33">
                                <g
                                   id="g32">
                                <g
                                   id="g31">
                                <g
                                   id="g30">
                                <g
                                   id="g50">
                                <g
                                   id="g49">
                                <g
                                   id="g48">
                                <g
                                   id="g60">
                                <g
                                   id="g64">
                                <path
                                   d="m 62,51.6 c 0,0.6 0.1,3.4 -3.6,3.4 H 5.5 C 4.9,55 2.1,54.5 2,51.8 L 2.0636183,36.336581 C 2.0849276,31.157021 15.842545,17 17.1,17 h 40.1 c 4.8,0 4.8,3.2 4.8,8.4 v 26.2"
                                   fill="#dae3ea"
                                   id="path1" />
                                </g>
                                </g>
                                </g>
                                </g>
                                </g>
                                <path
                                   d="m 62,49.8 c 0,2.5 0,5.2 -3.6,5.2 H 5.5 C 4.9,55 2.1,54.5 2,51.8 v -3.1 h 60 v 1.1"
                                   fill="#c5d0d8"
                                   id="path2" />
                                <path
                                   d="M 8.1544732,38.353877 12.908946,38.099402 C 15.9,31.681908 20.790855,31.809145 20.790855,31.809145 L 20.6,19.6 c -5.891252,3.435388 -9.582704,9.907356 -15.7536779,18.753877"
                                   id="path3"
                                   style="fill:#3e4347" />
                                <path
                                   d="m 2,38.5 h 3 c 0,0 10.260636,-15.008748 15.760636,-18.908748 l -6.598807,0.254474 C 14.416303,19.336317 12.161915,21.140484 8.1744801,26.303738 6.1820676,28.883676 1.8563239,33.830527 2,38.5"
                                   id="path4"
                                   style="fill:#3e4347" />
                                <path
                                   d="M 23.4,19.6 H 58.5 V 32 H 23.4 Z"
                                   id="path5"
                                   style="fill:#3e4347" />
                                <path
                                   d="m 6.4,51.8 c 0,1.1 -0.7,2 -1.6,2 -0.7,0 -2.004175,0.06362 -2.004175,-1.936382 C 2.795825,49.863618 4.1,49.8 4.8,49.8 c 0.8,0 1.6,0.9 1.6,2"
                                   id="path6"
                                   style="fill:#3e4347" />
                                <path
                                   d="m 5.9,51.8 c 0,0.7 -0.5,1.3 -1.1,1.3 -0.5,0 -1.2316103,0 -1.2316103,-1.3 0,-1.3 0.7316103,-1.3 1.2316103,-1.3 0.6,0 1.1,0.6 1.1,1.3"
                                   fill="#ffffff"
                                   id="path7" />
                                <path
                                   fill="#f15744"
                                   d="M 62,45.3 59.7,42.4 V 39.6 H 62 Z"
                                   id="path8" />
                                <path
                                   fill="#ffd45c"
                                   d="M 59.7,36.7 62,33.9 v 5.7 h -2.3 z"
                                   id="path9" />
                                <path
                                   fill="#3e4347"
                                   d="M 10.6,45.5 H 4.8 v -3 l 5.8,-0.9 z"
                                   id="path10" />
                                <path
                                   fill="#ffffff"
                                   d="M 9.1,45.1 H 5 v -2.2 l 4.1,-0.6 z"
                                   id="path11"
                                   style="fill:#ffd45c" />
                                <path
                                   d="M 62,46.6 H 35.2 c -4.3,0 -5.6,2.1 -5.6,2.1 H 62 v -2.1"
                                   fill="#62727a"
                                   id="path12" />
                                <path
                                   d="m 60.2,54.7 c 0,-5.2 -4.2,-9.4 -9.4,-9.4 -5.2,0 -9.4,4.2 -9.4,9.4 0.1,2.5 18.8,2.5 18.8,0"
                                   fill="#c5d0d8"
                                   id="path13" />
                                <circle
                                   cx="50.799999"
                                   cy="54.900002"
                                   r="4"
                                   fill="#dae3ea"
                                   id="circle14" />
                                <circle
                                   cx="50.799999"
                                   cy="54.900002"
                                   r="2"
                                   fill="#62727a"
                                   id="circle20" />
                                <path
                                   d="m 28.3,54.7 c 0,-5.2 -4.2,-9.4 -9.4,-9.4 -5.2,0 -9.4,4.2 -9.4,9.4 0,2.5 18.8,2.5 18.8,0"
                                   fill="#c5d0d8"
                                   id="path20" />
                                <path
                                   d="m 22.9,54.9 c 0,-2.2 -1.8,-4 -4,-4 -2.2,0 -4,1.8 -4,4 0,2.2 1.8,4 4,4 2.2,0.1 4,-1.7 4,-4"
                                   fill="#dae3ea"
                                   id="path22" />
                                <circle
                                   cx="18.9"
                                   cy="54.900002"
                                   r="2"
                                   id="circle27"
                                   style="fill:#62727a" />
                                <g
                                   id="g61">
                                <path
                                   d="M 29.91173,36.490855 54.2,36.3 v 0.9 l -24.224652,0.318091 z"
                                   id="path27"
                                   style="fill:#62727a" />
                                </g>
                                <g
                                   id="g62">
                                <path
                                   d="m 25.2,37.6 c 0,0.3 -0.2,0.5 -0.5,0.5 -0.3,0 -0.5,-0.2 -0.5,-0.5 v -2.8 c 0,-0.3 0.2,-0.5 0.5,-0.5 0.3,0 0.5,0.2 0.5,0.5 v 2.8"
                                   id="path28"
                                   style="fill:#62727a" />
                                </g>
                                <g
                                   id="g63">
                                <g
                                   id="g65">
                                <path
                                   d="M 17.5,36.5 C 17.2,36.5 17,36.3 17,36 c 0,-0.3 0.2,-0.5 0.5,-0.5 h 2.8 c 0.3,0 0.5,0.2 0.5,0.5 0,0.3 -0.2,0.5 -0.5,0.5 h -2.8"
                                   id="path29"
                                   style="fill:#62727a" />
                                </g>
                                </g>
                                <path
                                   d="m 2,41.6 h 1.9 v 5.6 H 2 Z"
                                   id="path30"
                                   style="fill:#62727a" />
                                </g>
                                </g>
                                </g>
                                </g>
                                </g>
                                </g>
                                </g>
                                </g>
                                </g>
                                </g>
                                </g>
                              </g>
                            </g>
                          </g>
                        </g>
                      </g>
                    </g>
                  </g>
                </g>
              </g>
            </g>
          </g>
        </g>
      </g>
    </g>
  </g>
</svg>
