<!DOCTYPE svg PUBLIC "-//W3C//DTD SVG 1.1//EN" "http://www.w3.org/Graphics/SVG/1.1/DTD/svg11.dtd">
<!-- Uploaded to: SVG Repo, www.svgrepo.com, Transformed by: SVG Repo Mixer Tools -->
<svg height="800px" width="800px" version="1.1" id="Layer_1" xmlns="http://www.w3.org/2000/svg" xmlns:xlink="http://www.w3.org/1999/xlink" viewBox="0 0 512 512" xml:space="preserve" fill="#000000">
<g id="SVGRepo_bgCarrier" stroke-width="0"/>
<g id="SVGRepo_tracerCarrier" stroke-linecap="round" stroke-linejoin="round"/>
<g id="SVGRepo_iconCarrier"> <g> <path style="fill:#595046;" d="M385.729,206.647V0.002H209.177v199.38c0,28.222-13.489,54.731-36.299,71.345L25.687,377.911 c-29.917,29.917-30.755,78.142-1.889,109.074c30.305,32.486,81.496,33.368,112.914,1.96l150.281-107.229 c13.374-9.551,29.519-13.798,45.956-13.833c6.029-0.018,12.235-0.742,18.564-2.313c32.132-7.962,56.77-35.628,60.248-68.546 c2.119-20.153-3.337-38.93-13.842-53.937C390.381,232.317,385.729,219.8,385.729,206.647"/> <g> <polygon style="fill:#87B8E3;" points="385.729,88.207 209.177,88.278 209.177,52.967 385.729,52.967 "/> <path style="fill:#87B8E3;" d="M288.625,308.78c0,24.373,11.008,46.159,28.292,60.734c5.261-0.962,10.602-1.624,16.031-1.642 c6.029-0.009,12.235-0.733,18.564-2.304c32.132-7.962,56.77-35.628,60.248-68.555c2.119-20.145-3.337-38.921-13.842-53.928 c-2.225-3.187-4.105-6.559-5.782-10.028c-7.592-2.41-15.669-3.725-24.064-3.725C324.191,229.332,288.625,264.898,288.625,308.78"/> <path style="fill:#87B8E3;" d="M24.31,379.427c-28.495,29.996-28.902,77.135-0.512,107.564 c28.01,30.014,73.834,32.98,105.419,8.466c0.318-3.337,0.512-6.709,0.512-10.125C129.729,426.999,82.581,379.71,24.31,379.427"/> </g> <path style="fill:#51A1E6;" d="M495.026,243.203c-7.539-10.77-12.191-23.287-12.191-36.431V0.003h-97.103v206.645 c0,13.153,4.652,25.662,12.191,36.44c10.496,15.007,15.96,33.774,13.833,53.928c-3.469,32.927-28.107,60.593-60.239,68.555 c-6.338,1.571-12.544,2.295-18.573,2.304c-16.437,0.035-32.574,4.29-45.948,13.833L136.714,488.936 c-2.233,2.233-4.582,4.255-7,6.162c30.702,24.285,75.546,22.51,104.104-6.038l150.281-107.229 c13.374-9.543,29.511-13.798,45.948-13.833c6.029-0.018,12.235-0.742,18.573-2.313c32.132-7.954,56.77-35.628,60.239-68.546 C510.986,276.986,505.522,258.21,495.026,243.203"/> <g> <path style="fill:#408DC6;" d="M136.711,488.94c-2.233,2.233-4.59,4.255-7.009,6.162c28.134,22.263,68.14,22.572,96.618,0.477 c0.318-3.337,0.512-6.709,0.512-10.134c0-18.626-4.855-36.105-13.303-51.315L136.711,488.94z"/> <polygon style="fill:#408DC6;" points="385.729,88.211 482.832,88.211 482.832,52.901 385.729,52.901 "/> <path style="fill:#408DC6;" d="M495.026,243.203c-2.225-3.187-4.105-6.559-5.791-10.019c-7.592-2.41-15.669-3.734-24.055-3.734 c-23.826,0-45.144,10.54-59.71,27.154c5.367,12.173,7.812,25.927,6.285,40.413c-1.73,16.437-8.748,31.559-19.332,43.582 c4.935,11.264,12.314,21.213,21.592,29.043c5.27-0.971,10.611-1.633,16.031-1.642c6.029-0.018,12.235-0.742,18.573-2.313 c32.132-7.954,56.77-35.628,60.239-68.546C510.986,276.986,505.522,258.21,495.026,243.203"/> </g> <g> <path style="fill:#87B8E3;" d="M350.418,26.414c4.873,0,8.828-3.955,8.828-8.828V0.002h-17.655v17.585 C341.591,22.459,345.545,26.414,350.418,26.414"/> <path style="fill:#87B8E3;" d="M315.108,26.297c4.873,0,8.828-3.955,8.828-8.828V0H306.28v17.47 C306.28,22.343,310.235,26.297,315.108,26.297"/> <path style="fill:#87B8E3;" d="M279.798,26.297c4.873,0,8.828-3.955,8.828-8.828V0H270.97v17.47 C270.97,22.343,274.925,26.297,279.798,26.297"/> <path style="fill:#87B8E3;" d="M244.487,26.297c4.873,0,8.828-3.955,8.828-8.828V0H235.66v17.47 C235.66,22.343,239.614,26.297,244.487,26.297"/> </g> <g> <path style="fill:#408DC6;" d="M447.522,26.414c4.873,0,8.828-3.955,8.828-8.828V0.002h-17.655v17.585 C438.694,22.459,442.649,26.414,447.522,26.414"/> <path style="fill:#408DC6;" d="M412.211,26.414c4.873,0,8.828-3.955,8.828-8.828V0.002h-17.655v17.585 C403.384,22.459,407.339,26.414,412.211,26.414"/> </g> </g> </g>
</svg>