<?xml version="1.0" encoding="UTF-8" standalone="no"?>
<!-- Uploaded to: SVG Repo, www.svgrepo.com, Generator: SVG Repo Mixer Tools -->

<svg
   width="800px"
   height="800px"
   viewBox="0 0 128 128"
   aria-hidden="true"
   role="img"
   class="iconify iconify--noto"
   preserveAspectRatio="xMidYMid meet"
   version="1.1"
   id="svg7"
   xml:space="preserve"
   xmlns="http://www.w3.org/2000/svg"
   xmlns:svg="http://www.w3.org/2000/svg"><defs
     id="defs7">                 </defs><g
     id="g8"
     transform="matrix(0.78599793,0,0,0.55049546,-3.8626939,57.246071)"><path
       d="m 60.39,41.1 c 14.95,34.22 33.52,49.96 33.52,49.96 0,0 -7.36,2.05 -11.73,3.07 -7.4,1.73 -13.13,3.96 -20.39,0.47 C 52.45,90.11 46.86,71.92 44.05,54.37 40.11,29.83 30.76,22.12 27.57,8.55 27.01,6.18 28.69,5.62 30.64,6.73 39.58,11.85 55.22,30.76 60.39,41.1 Z"
       fill="#263238"
       id="path1" /><path
       d="M 73.38,96.55 C 63.04,88.59 56.82,75.67 52.74,65.44 c -1.8,-4.52 -4.55,-9.87 -8.39,-14.93 0,0 2.35,29.84 12.55,40.04 7.73,7.72 16.48,6 16.48,6 z"
       fill="#2f7889"
       id="path2" /><path
       d="m 118.95,109.48 c -1.71,-4.06 -6.81,-8.56 -9.17,-10.28 C 104.3,95.18 91.37,87.1 79.28,70.33 71.75,59.88 68.18,49.83 60.84,37.29 46.34,12.5 31.35,0.74 26.18,4.69 23.42,6.79 13.3,17.42 10.32,26.6 7.6,35 7.37,39.46 9.75,45.8 c 0.45,1.2 1,2.29 1.62,3.3 0.01,0.02 0.01,0.03 0.02,0.05 7.93,16.69 6.75,57.15 6.75,57.15 0,0 0.62,1.94 3.65,1.94 3.03,0 3.99,-1.8 3.99,-1.8 0,0 -0.71,-28.44 3.35,-39.74 1.26,1.53 2.47,3.24 3.58,5.18 7.25,12.64 8.84,35 17.67,42.37 7.38,6.15 17.9,7.62 27.13,8.59 11.99,1.25 24.25,2.27 35.86,-1.69 2.29,-0.78 5.05,-2.03 6,-4.41 0.92,-2.28 0.51,-5.04 -0.42,-7.26 z M 84.03,92.45 C 75.83,94.71 70.72,96.91 63.81,93.77 52.61,88.67 49.7,74.6 45.58,52.19 42.34,34.59 34.16,22.46 28.4,8.86 27.99,7.89 29.49,7.28 30.42,7.78 c 12.75,6.83 27.65,30.61 31.27,38.56 15.01,32.95 29.96,44.51 29.96,44.51 0,0 -5.51,1.02 -7.62,1.6 z"
       fill="#f44336"
       id="path3" /><path
       d="m 96.89,113.22 c -0.88,2.18 -7.39,2.63 -9.59,2.51 -4.38,-0.22 -10.89,-0.65 -13.41,-2.42 -2.51,-1.77 -1.3,-2.7 0.19,-3.72 1.49,-1.02 6.71,-1.84 10.67,-1.54 1.44,0.1 13.72,1.26 12.14,5.17 z"
       opacity="0.94"
       fill="#ff9f9f"
       id="path4" /><path
       d="m 119.47,116.49 c 0.21,-0.59 0.35,-1.4 0.35,-1.4 0,0 -4.26,7.01 -36.08,5.33 -9.83,-0.52 -23.28,-2.33 -31.14,-9 -7.21,-6.12 -11.17,-28 -13.63,-34.24 -7.75,-19.65 -18.2,-20.06 -18.2,-20.06 0,0 7.05,6.2 11.95,14.74 7.25,12.64 8.58,35.31 17.67,42.37 11.11,8.62 28.56,9.21 36.79,9.49 17,0.58 29.93,-1.06 32.29,-7.23 z"
       fill="#a12524"
       id="path5" /><path
       d="m 25.79,106.43 c 0,0 -0.02,-0.88 -0.03,-2.38 -0.62,0.36 -1.25,0.68 -1.94,0.89 -1.89,0.58 -4.03,0.19 -5.63,-0.96 -0.02,1.48 -0.04,2.32 -0.04,2.32 0,0 0.62,1.94 3.65,1.94 3.03,0 3.99,-1.81 3.99,-1.81 z"
       fill="#a12524"
       id="path6" /><path
       d="m 21.24,29.72 a 30.31,30.31 0 0 0 -3.13,9.39 c -0.18,1.12 -0.39,2.62 -1.5,2.87 -1.34,0.3 -5.11,-2.84 -3.73,-12.04 0.61,-4.02 3.06,-6.92 6.03,-7.42 4.36,-0.72 3.56,4.87 2.33,7.2 z"
       fill="#ff9797"
       id="path7" /></g><g
     id="g9"
     transform="matrix(-0.68588615,0,0,0.88864491,178.64255,-16.78913)"><g
       style="fill:#000000"
       id="g7"
       transform="matrix(0.24994874,0,0,0.24994874,82.265172,-4.5287873)"><g
         id="SVGRepo_bgCarrier"
         stroke-width="0" /><g
         id="SVGRepo_tracerCarrier"
         stroke-linecap="round"
         stroke-linejoin="round" /><g
         id="g17"
         transform="matrix(1,0,0,0.91139324,2.0992009,19.447443)"><g
           id="g16"><g
             id="g15"><g
               id="g14"><g
                 id="g13"><g
                   id="g12"><path
                     style="fill:#ffcc00"
                     d="m 44.245,181.018 c -24.338,0 -44.138,-19.8 -44.138,-44.138 0,-4.873 3.946,-8.828 8.828,-8.828 4.882,0 8.828,3.955 8.828,8.828 0,14.601 11.882,26.483 26.483,26.483 4.882,0 8.828,3.955 8.828,8.828 -10e-4,4.872 -3.947,8.827 -8.829,8.827"
                     id="path1-0" /><path
                     style="fill:#0e4716;fill-opacity:0.841026"
                     d="m 11.943,285.552 c 42.417,20.418 65.324,18.962 65.324,18.962 89.821,-10.884 130.648,5.535 130.648,5.535 202.778,71.106 276.03,-12.306 276.03,-12.306 8.165,-6.126 20.409,-28.575 20.409,-28.575 v -4.087 c 0,0 -1.465,-20.356 -80.049,-20.356 0,0 -61.926,4.423 -69.411,-24.497 0,0 -10.893,-5.111 -12.244,4.087 l -16.34,-12.253 c 0,0 -5.438,-20.754 -20.409,-8.166 l -12.253,-8.166 c 0,0 -2.719,-14.636 -16.331,-8.166 0,0 -11.564,-4.767 -16.331,-12.253 0,0 -3.063,-11.229 -12.244,-4.078 0,0 -11.564,2.039 -24.497,-16.331 -12.933,-18.37 -55.455,-30.279 -44.915,12.244 0,0 -14.627,25.176 -65.315,20.418 0,0 -22.802,-3.063 -32.671,-16.331 -9.869,-13.268 -52.047,-18.37 -48.984,4.078 3.054,22.457 -4.087,24.497 -4.087,24.497 0,0 -28.513,36.405 -16.331,81.655 v 4.089 z"
                     id="path2-9" /><path
                     style="fill:#ffcc00"
                     d="m 54.599,301.363 c 15.439,-16.552 24.956,-38.7 24.956,-63.117 0,-31.559 -15.801,-59.392 -39.883,-76.129 -5.076,2.304 -8.227,6.506 -7.318,13.197 3.063,22.457 -4.078,24.497 -4.078,24.497 0,0 -28.513,36.405 -16.331,81.655 v 4.087 c 17.725,8.536 31.99,13.214 42.654,15.81"
                     id="path3-4" /><path
                     style="fill:#ffcc00"
                     d="m 132.521,260.311 c 0,4.873 -3.955,8.828 -8.828,8.828 -4.882,0 -8.828,-3.955 -8.828,-8.828 0,-4.873 3.946,-8.828 8.828,-8.828 4.873,0 8.828,3.955 8.828,8.828"
                     id="path4-8" /><path
                     style="fill:#ffcc00"
                     d="m 132.521,225 c 0,4.873 -3.955,8.828 -8.828,8.828 -4.882,0 -8.828,-3.955 -8.828,-8.828 0,-4.873 3.946,-8.828 8.828,-8.828 4.873,0.001 8.828,3.956 8.828,8.828"
                     id="path5-8" /><path
                     style="fill:#c4c4ca"
                     d="m 11.943,285.552 c 0,0 -22.457,14.292 -4.087,36.749 0,0 -37.932,44.341 52.904,53.53 0,0 28.584,-24.497 40.828,8.157 0,0 56.311,-7.592 94.076,-24.947 0,0 30.623,-11.229 40.828,0 10.214,11.229 72.934,45.162 85.937,8.245 0,0 18.247,-6.012 24.497,12.244 0,0 35.31,15.951 48.799,-12.323 l 12.244,-4.078 c 0,0 31.259,25.044 44.526,-7.627 l 12.253,-8.157 8.554,-0.556 c 0,0 59.639,-25.574 31.047,-77.621 0,0 -12.235,22.449 -20.409,28.575 0,0 -73.242,83.412 -276.021,12.306 0,0 -40.828,-16.419 -130.648,-5.535 -0.004,0 -22.293,1.66 -65.328,-18.962"
                     id="path6-2" /><path
                     style="fill:#ffcc00"
                     d="m 356.512,312.268 c -41.154,0 -88.029,-9.092 -139.317,-27.03 -4.608,-1.607 -7.027,-6.638 -5.42,-11.246 1.607,-4.599 6.63,-7.009 11.246,-5.42 49.417,17.276 94.323,26.041 133.491,26.041 4.882,0 8.828,3.955 8.828,8.828 0,4.873 -3.946,8.827 -8.828,8.827"
                     id="path7-4" /><path
                     style="fill:#ffcc00"
                     d="m 223.728,213.208 c -2.26,0 -4.52,-0.865 -6.241,-2.586 -3.452,-3.452 -3.452,-9.031 0,-12.482 l 34.154,-34.154 c 3.452,-3.452 9.039,-3.452 12.482,0 3.452,3.443 3.452,9.031 0,12.482 l -34.154,34.154 c -1.722,1.721 -3.981,2.586 -6.241,2.586"
                     id="path8" /><path
                     style="fill:#ffcc00"
                     d="m 257.366,232.539 c -2.26,0 -4.52,-0.865 -6.241,-2.586 -3.452,-3.452 -3.452,-9.031 0,-12.482 l 33.774,-33.774 c 3.452,-3.452 9.039,-3.452 12.482,0 3.452,3.443 3.452,9.031 0,12.482 l -33.774,33.774 c -1.721,1.721 -3.981,2.586 -6.241,2.586"
                     id="path9" /><path
                     style="fill:#ffcc00"
                     d="m 289.453,244.587 c -2.26,0 -4.52,-0.865 -6.241,-2.586 -3.452,-3.443 -3.452,-9.031 0,-12.482 l 32.371,-32.38 c 3.452,-3.443 9.031,-3.443 12.482,0 3.452,3.452 3.452,9.039 0,12.491 l -32.371,32.371 c -1.722,1.721 -3.982,2.586 -6.241,2.586"
                     id="path10" /></g></g></g></g></g></g></g></g></svg>
