<?xml version="1.0" encoding="UTF-8" standalone="no"?>
<!-- Uploaded to: SVG Repo, www.svgrepo.com, Transformed by: SVG Repo Mixer Tools -->

<svg
   version="1.1"
   id="Layer_1"
   x="0px"
   y="0px"
   viewBox="0 0 800 800"
   enable-background="new 0 0 2772 1368"
   xml:space="preserve"
   width="800"
   height="800"
   fill="#000000"
   xmlns="http://www.w3.org/2000/svg"
   xmlns:svg="http://www.w3.org/2000/svg"
   xmlns:rdf="http://www.w3.org/1999/02/22-rdf-syntax-ns#"
   xmlns:cc="http://creativecommons.org/ns#"
   xmlns:dc="http://purl.org/dc/elements/1.1/"><defs
   id="defs1" />

<g
   id="SVGRepo_bgCarrier"
   stroke-width="0" />

<g
   id="SVGRepo_tracerCarrier"
   stroke-linecap="round"
   stroke-linejoin="round" />

<g
   id="SVGRepo_iconCarrier"
   transform="matrix(3.0903577,0,0,3.2866559,9.6851929,-16.246938)"> <title
   id="title4630">Hot Dog</title> <metadata
   id="metadata3823"> <rdf:rdf> <cc:work
   rdf:about=""> <dc:format>image/svg+xml</dc:format> <dc:type
   rdf:resource="http://purl.org/dc/dcmitype/StillImage" /> <dc:title>Hot Dog</dc:title> <cc:license
   rdf:resource="http://creativecommons.org/publicdomain/zero/1.0/" /> <dc:source>https://openclipart.org/detail/311979</dc:source> <dc:creator> <cc:agent> <dc:title>GDJ</dc:title> </cc:agent> </dc:creator> </cc:work> <cc:license
   rdf:about="http://creativecommons.org/publicdomain/zero/1.0/"> <cc:permits
   rdf:resource="http://creativecommons.org/ns#Reproduction" /> <cc:permits
   rdf:resource="http://creativecommons.org/ns#Distribution" /> <cc:permits
   rdf:resource="http://creativecommons.org/ns#DerivativeWorks" /> </cc:license> </rdf:rdf> </metadata> <defs
   id="defs3821" />  <g
   id="g3816"
   transform="matrix(0.32919103,0,0,0.32919103,-634.32349,-221.9665)">                                                                                                                                                                                                                                                                                                                                                                                                                                                                                                                                                                                                                                                    <path
   d="m 2096.4508,849.35718 c 30.1595,-28.47143 5.8068,69.9633 7.8079,20.10836 -9.2682,-21.33123 -28.9634,21.21845 -39.0132,27.38092 -30.3551,13.66528 -60.4183,39.50217 -87.4,62.9365 -12.5319,-13.30939 -27.3445,27.89557 -10.5205,10.17154 4.0844,32.0193 -27.2236,13.34929 -13.443,-7.30717 15.9454,-32.99011 59.5073,-34.1351 80.7464,-62.08433 20.7287,-16.9223 40.8404,-34.59249 61.8224,-51.20582 z"
   id="path2562"
   style="fill:#c67418;stroke:#c67418;stroke-width:0.551169" /><path
   d="m 2321.5207,847.7625 c 13.2501,-7.30725 61.6338,0.24105 24.6496,10.22495 13.8683,25.53886 -41.5315,10.30352 -57.0136,10.99405 -14.334,-2.93919 -44.6174,1.24506 -15.5214,-7.18981 15.4176,-6.21365 30.9993,-13.3416 47.8854,-14.02919 z m 11.8234,6.97671 c -17.285,27.41888 25.2822,-3.40789 0,0 z m -15.6071,5.93313 c -3.9266,27.39403 19.3843,-12.72156 0,0 z m -17.1304,7.94992 c 15.6071,9.59317 7.3308,-19.52624 0,0 z"
   id="path2564"
   style="fill:#dc821e;stroke:#dc821e;stroke-width:0.551169" /><path
   d="m 2369.7304,848.3136 c 27.4261,7.41237 -17.83,22.36119 -24.0475,12.0702 1.9896,-10.05194 18.3488,-4.97751 24.0475,-12.0702 z"
   id="path2566"
   style="fill:#fb984b;stroke:#fb984b;stroke-width:0.551169" /><path
   d="m 2373.7503,849.89655 c 32.4038,-1.1564 62.0699,16.44013 88.5729,33.15728 -16.4544,-12.62019 -24.4539,33.48616 -32.6136,0.0673 -9.3129,-0.27734 -30.1504,6.61038 -32.7201,-7.28758 20.1801,5.23978 33.7604,-6.6343 8.0184,-13.35911 -10.9706,-1.53873 -25.5474,-0.87118 -31.2576,-12.57786 z"
   id="path2568"
   style="fill:#d97202;stroke:#d97202;stroke-width:0.551169" /><path
   d="m 2333.3441,854.73921 c 23.335,-0.7643 -15.4234,21.41898 0,0 z"
   id="path2570"
   style="fill:#fb984b;stroke:#fb984b;stroke-width:0.551169" /><path
   d="m 2210.8309,854.96199 c 23.4312,-10.29978 32.8938,14.05694 8.3488,16.27201 -14.5412,-1.83847 -53.3003,-11.2532 -18.9784,-14.08523 3.5503,-0.69305 7.1073,-1.35891 10.6296,-2.18678 z"
   id="path2572"
   style="fill:#42752f;stroke:#42752f;stroke-width:0.551169" /><path
   d="m 2099.622,855.46619 c 17.8395,9.7912 -6.5191,61.97366 -2.0759,21.76521 -7.8038,-11.30142 -34.9353,36.88585 -27.7845,8.44421 16.6049,2.06577 20.2575,-21.30328 29.8604,-30.20942 z"
   id="path2574"
   style="fill:#a14b07;stroke:#a14b07;stroke-width:0.551169" /><path
   d="m 2227.7333,856.42769 c 18.0403,-9.40261 55.5787,38.77109 33.7116,36.84168 -20.6846,-12.48298 -28.1972,-10.29983 -33.7116,-36.84168 z"
   id="path2576"
   style="fill:#3c6523;stroke:#3c6523;stroke-width:0.551169" /><path
   d="m 2317.737,860.67234 c 27.4823,-16.10407 -6.7344,27.90358 0,0 z"
   id="path2578"
   style="fill:#fb984b;stroke:#fb984b;stroke-width:0.551169" /><path
   d="m 2356.8894,860.0157 c 13.5073,-0.87754 28.9273,0.67578 29.9748,4.8707 17.9849,-17.93525 52.8139,24.56268 15.8238,9.49707 -10.6001,-17.63685 -9.0903,11.4027 -19.9813,0.96351 0.2235,-4.37901 -50.6119,6.21833 -25.8169,-15.33128 m 5.4717,4.69023 c -12.0206,13.41958 16.7504,10.12513 0,0 z"
   id="path2580"
   style="fill:#fa7b17;stroke:#fa7b17;stroke-width:0.551169" /><path
   d="m 2383.9177,858.16307 c 23.2483,12.8408 -19.6467,14.15818 0,0 z"
   id="path2582"
   style="fill:#fb984b;stroke:#fb984b;stroke-width:0.551169" /><path
   d="m 2176.6737,862.81811 c 20.6106,3.44791 56.3102,1.92182 45.3658,31.54484 3.3283,24.16548 -42.4878,-18.83261 -45.3658,-31.54484 z"
   id="path2584"
   style="fill:#2e5e1f;stroke:#2e5e1f;stroke-width:0.551169" /><path
   d="m 2300.6066,868.62226 c 7.9426,-19.0414 16.4206,8.92324 0,0 z"
   id="path2586"
   style="fill:#fb984b;stroke:#fb984b;stroke-width:0.551169" /><path
   d="m 2362.3611,864.70593 c 16.4193,8.44903 -11.6832,15.10323 0,0 z"
   id="path2588"
   style="fill:#fb984a;stroke:#fb984a;stroke-width:0.551169" /><path
   d="m 2256.1804,869.06783 c 34.0251,-5.71927 66.4688,5.91145 98.3379,13.59488 13.9781,0.33015 31.1884,10.97721 5.4901,8.47593 -13.8594,4.33151 -51.3673,-0.32661 -17.0954,-0.41521 19.8284,2.67603 21.1014,-9.90706 1.209,-6.39111 -23.6858,1.83925 -58.4363,-21.597 -72.718,8.01074 -4.8677,-7.89054 -9.8684,-15.70455 -15.2236,-23.27523 z"
   id="path2590"
   style="fill:#b35000;stroke:#b35000;stroke-width:0.551169" /><path
   d="m 2390.7875,870.60387 c 15.154,-15.24309 1.5176,20.34342 0,0 z"
   id="path2592"
   style="fill:#fb984b;stroke:#fb984b;stroke-width:0.551169" /><path
   d="m 2066.0565,899.44874 c 10.2873,-9.46517 40.2734,-40.02759 30.0809,-5.1559 -1.6253,15.37144 -23.7125,9.17746 -11.506,-3.12647 -25.2195,19.90946 -50.064,41.19027 -79.3369,54.7724 -16.062,6.63525 -16.8702,39.74184 -15.1016,39.57134 -24.1095,-34.67579 36.212,-46.15486 52.9897,-67.04587 7.9327,-5.95493 15.5841,-12.28783 22.8739,-19.0155 z"
   id="path2594"
   style="fill:#863000;stroke:#863000;stroke-width:0.551169" /><path
   d="m 2330.06,871.76471 c 29.2008,-0.91984 58.6454,5.13135 86.4053,13.5878 -26.9549,-13.63714 -27.1572,34.75619 -56.719,18.32267 -11.2908,-0.36752 -48.4842,-13.05494 -16.0661,-11.27036 11.9905,1.67217 46.8617,-3.63882 16.0327,-9.32617 -7.4022,-2.79866 -35.611,3.42912 -29.6529,-11.31394 z"
   id="path2596"
   style="fill:#a74a00;stroke:#a74a00;stroke-width:0.551169" /><path
   d="m 2377.192,875.28238 c 9.3245,-12.23617 16.9402,7.31229 0,0 z"
   id="path2598"
   style="fill:#fa974a;stroke:#fa974a;stroke-width:0.551169" /><path
   d="m 2183.4512,874.60229 c 10.7562,29.6783 -47.2535,6.79974 -63.3909,23.99642 -12.6126,8.43332 -37.3647,3.35453 -11.5969,-5.55349 25.3583,-4.64225 49.5422,-14.19818 74.9878,-18.44293 z"
   id="path2600"
   style="fill:#c55902;stroke:#c55902;stroke-width:0.551169" /><path
   d="m 2220.0842,874.91888 c 14.0401,-0.61565 56.6597,20.00379 41.0989,28.95721 -18.9713,-1.42766 -55.4145,3.24852 -41.0989,-28.95721 z"
   id="path2602"
   style="fill:#284d18;stroke:#284d18;stroke-width:0.551169" /><path
   d="m 2280.3372,877.42816 c 33.0329,-5.61273 -2.162,38.32107 1.6801,23.74033 17.4752,10.28945 33.9821,23.1993 8.966,20.93076 -12.9182,5.93247 -12.4822,15.06285 -11.4671,16.51427 -11.9251,-3.83647 19.9712,-35.14288 -9.166,-25.71937 10.76,-12.20103 -7.5464,-4.28794 6.5323,-18.09394 23.281,5.98152 12.0763,-7.25401 3.4547,-17.37205 z"
   id="path2604"
   style="fill:#6c0405;stroke:#6c0405;stroke-width:0.551169" /><path
   d="m 2271.403,892.34306 c 5.2589,-46.60532 29.3719,24.64713 0,0 z"
   id="path2606"
   style="fill:#980409;stroke:#980409;stroke-width:0.551169" /><path
   d="m 2420.3227,887.82871 c 6.1209,-26.11601 17.6944,17.67409 0,0 z"
   id="path2608"
   style="fill:#fa7b18;stroke:#fa7b18;stroke-width:0.551169" /><path
   d="m 2295.5608,880.32437 c 18.456,0.1584 60.3801,-0.47174 62.966,9.13363 -21.061,0.93709 -45.0064,4.80741 -62.966,-9.13363 z"
   id="path2610"
   style="fill:#bc6200;stroke:#bc6200;stroke-width:0.551169" /><path
   d="m 2442.1063,889.29442 c 21.0357,-30.45718 71.2969,36.02756 23.3174,25.28602 -10.5773,-5.12176 -18.5509,-14.70485 -23.3174,-25.28602 z"
   id="path2612"
   style="fill:#cf6d03;stroke:#cf6d03;stroke-width:0.551169" /><path
   d="m 2393.3887,888.69641 c 42.0187,-10.99093 77.6682,27.57768 103.6818,55.16952 13.7283,31.5488 44.9933,35.85524 73.3949,28.53579 22.8411,8.21536 14.4249,40.19518 -9.8588,22.84347 -37.7463,-7.22684 -75.8443,5.31821 -107.2475,24.90701 -5.0548,8.9981 -41.4123,24.0859 -28.4106,13.3983 -6.0413,18.6033 -42.872,49.1629 -50.4559,36.7485 20.726,-24.7896 35.2876,-62.3069 66.7371,-73.39464 17.5714,1.27506 65.1226,-12.85532 31.2621,-30.70905 -24.1747,-14.29056 -78.218,0.535 -78.6865,-30.58923 -12.883,-3.14194 -44.7479,-11.19419 -14.808,-5.6218 36.9393,5 78.6584,1.20264 109.3692,26.3105 26.7943,2.92393 -28.2458,-33.32133 -38.7058,-38.1095 -22.1428,-15.53631 -59.1817,-16.05705 -78.3282,-11.79804 7.3265,-3.58459 25.422,-6.00691 22.0562,-17.69083 z"
   id="path2614"
   style="fill:#9a4400;stroke:#9a4400;stroke-width:0.551169" /><path
   d="m 2283.3943,886.22231 c 10.0901,-8.21657 -0.8942,13.99727 0,0 z"
   id="path2616"
   style="fill:#c27083;stroke:#c27083;stroke-width:0.551169" /><path
   d="m 2298.1412,887.05483 c 8.003,-1.1484 14.2147,22.94644 14.5013,20.96166 -15.2955,12.12272 -31.7412,-11.17912 -14.5013,-20.96166 z"
   id="path2618"
   style="fill:#9b1900;stroke:#9b1900;stroke-width:0.551169" /><path
   d="m 2305.1364,884.87387 c 28.8029,-5.8273 9.7756,41.50389 4.4492,26.54372 16.3665,-6.44817 -11.3751,-16.65321 -4.4492,-26.54372 z"
   id="path2620"
   style="fill:#741100;stroke:#741100;stroke-width:0.551169" /><path
   d="m 2068.4597,904.50245 c 6.3564,-15.90742 26.5715,-12.47362 8.6663,0.91468 -34.2646,16.91008 -55.8303,50.9595 -80.7741,74.95972 -24.15,-23.06159 21.9529,-38.92762 37.4709,-51.15868 11.8358,-7.81763 23.6049,-15.78178 34.6369,-24.71572 z"
   id="path2622"
   style="fill:#6b1f00;stroke:#6b1f00;stroke-width:0.551169" /><path
   d="m 2177.6468,888.4619 c 21.4117,-10.67205 60.7545,25.38897 19.8754,25.51051 -24.9202,7.18701 -71.2971,28.30273 -81.3206,30.40883 14.1792,-21.23912 37.3068,-41.67661 57.9484,-43.76473 -10.2583,-3.71218 -61.9065,7.10298 -29.6994,-8.23136 10.9391,-2.25911 22.1488,-2.46864 33.1962,-3.92325 z"
   id="path2624"
   style="fill:#d67000;stroke:#d67000;stroke-width:0.551169" /><path
   d="m 2288.4609,887.67628 c 13.0295,13.11439 -15.1085,10.73084 0,0 z"
   id="path2626"
   style="fill:#8e2d36;stroke:#8e2d36;stroke-width:0.551169" /><path
   d="m 2304.0265,897.87752 c 9.0387,-10.80201 7.1277,13.90783 0,0 z"
   id="path2628"
   style="fill:#cf443d;stroke:#cf443d;stroke-width:0.551169" /><path
   d="m 2321.9238,893.90255 c 38.2329,19.95418 85.0033,-0.26296 122.3469,22.21832 -18.514,-4.1028 -59.1928,-19.70425 -65.4589,2.87913 3.371,4.83997 39.1775,5.98843 21.313,10.24337 12.4748,-0.16827 40.9147,7.24272 12.2126,4.44416 -37.9398,-3.9339 -77.237,-15.05648 -114.7899,-2.73803 -14.843,-17.18564 40.6798,-5.26249 24.3763,-37.04695 z"
   id="path2630"
   style="fill:#953500;stroke:#953500;stroke-width:0.551169" /><path
   d="m 2124.0274,897.34987 c 11.8813,14.93177 52.8559,-9.36713 48.4638,8.06452 -29.2538,4.74762 -72.2527,12.595 -73.6301,43.76403 -14.7662,-11.45215 -28.5824,9.63574 -39.9245,-8.6031 0.4209,8.88991 3.5392,39.08214 -6.3717,21.80346 3.6029,-14.52124 -12.5724,26.49067 -13.7648,4.82022 -19.0069,19.98377 7.0192,-25.82567 10.4841,-13.99902 0.6775,-18.89811 26.4875,-36.10037 34.2584,-36.06099 7.8732,9.61909 22.9811,-33.37417 25.432,-4.00627 -7.7765,16.38392 21.2243,-7.57041 15.0528,-15.78285 z"
   id="path2632"
   style="fill:#f1932c;stroke:#f1932c;stroke-width:0.551169" /><path
   d="m 2274.74,897.09191 c 23.9613,-2.74466 12.4005,20.48305 0,0 z"
   id="path2634"
   style="fill:#480401;stroke:#480401;stroke-width:0.551169" /><path
   d="m 2047.3715,904.3852 c 32.6893,-11.9451 -12.6966,25.33338 -23.0319,28.02465 -23.3694,10.04386 -53.2834,31.96939 -34.4671,58.84221 -9.265,26.75884 -28.3075,-22.84967 -27.3458,-18.01569 -14.8653,3.67964 9.4082,-21.08572 18.8265,-16.95651 20.4591,-19.17929 44.8511,-33.52616 66.0183,-51.89466 z"
   id="path2636"
   style="fill:#a04702;stroke:#a04702;stroke-width:0.551169" /><path
   d="m 2106.7633,901.32483 c 23.0727,-19.95114 11.7785,30.7229 -1.0374,12.19641 6.4578,-1.26508 6.1775,-9.52392 1.0374,-12.19641 z"
   id="path2638"
   style="fill:#d9780c;stroke:#d9780c;stroke-width:0.551169" /><path
   d="m 2078.9587,907.02345 c 31.1579,-12.79492 -15.7617,20.7697 -26.4005,23.92596 -12.4524,7.22653 -37.6525,24.20733 -15.4428,3.69062 12.1886,-11.57905 26.6894,-20.47415 41.8433,-27.61658 z"
   id="path2640"
   style="fill:#c56413;stroke:#c56413;stroke-width:0.551169" /><path
   d="m 2232.3657,902.97813 c 15.4784,-11.12002 46.1167,14.10693 12.2479,9.35261 -23.4079,1.67917 -10.6055,7.60129 -12.2479,-9.35261 z"
   id="path2642"
   style="fill:#468126;stroke:#468126;stroke-width:0.551169" /><path
   d="m 2226.7074,904.09206 c 22.7967,14.22698 -61.5642,29.47682 -23.662,11.03377 7.2523,-4.87507 15.2764,-8.58608 23.662,-11.03377 z"
   id="path2644"
   style="fill:#4a922f;stroke:#4a922f;stroke-width:0.551169" /><path
   d="m 2269.548,906.84757 c 6.8375,-1.72009 -1.6513,14.98889 12.0221,17.07791 -10.0219,27.97144 -30.3729,-7.67623 -12.0221,-17.07791 z"
   id="path2646"
   style="fill:#98030a;stroke:#98030a;stroke-width:0.551169" /><path
   d="m 2487.0838,907.71525 c 32.0632,-5.9949 52.0384,45.65206 33.3632,52.20898 5.3763,-16.94503 -3.1862,-24.02078 -8.6378,-5.35316 -28.9894,4.44116 -8.0442,-61.64864 -27.0393,-28.29563 -17.2442,5.31901 -4.6536,-13.58908 2.3139,-18.56019 z"
   id="path2648"
   style="fill:#c06500;stroke:#c06500;stroke-width:0.551169" /><path
   d="m 2080.4914,911.38535 c 20.4924,-13.96655 5.7046,29.55902 0,0 z"
   id="path2650"
   style="fill:#da7c14;stroke:#da7c14;stroke-width:0.551169" /><path
   d="m 2384.467,910.18935 c 43.6854,-9.03687 86.3141,15.61527 115.7055,46.11661 -28.5057,-1.39089 -51.1618,-29.09696 -82.0473,-24.58098 -5.2342,-3.83533 -65.0216,-15.44706 -33.6582,-21.53563 z"
   id="path2652"
   style="fill:#832b00;stroke:#832b00;stroke-width:0.551169" /><path
   d="m 2295.5079,910.36524 c 14.1527,-6.71479 30.4918,11.44308 7.6484,9.17874 -4.0152,-1.34653 -7.2042,-4.97995 -7.6484,-9.17874 z"
   id="path2654"
   style="fill:#470700;stroke:#470700;stroke-width:0.551169" /><path
   d="m 2124.017,919.1594 c 15.6757,-7.97329 21.2171,-8.49673 8.3806,7.4026 -9.0666,17.36911 -48.1655,46.25532 -58.0713,32.77467 2.679,-24.0131 33.3102,0.14171 26.5297,-27.00422 2.6794,-10.99251 15.6299,-7.58206 23.161,-13.17305 z"
   id="path2656"
   style="fill:#d9780c;stroke:#d9780c;stroke-width:0.551169" /><path
   d="m 2249.434,911.98336 c 44.3195,-0.38342 -20.4462,57.64018 -14.7456,11.53347 0.912,-7.11266 7.4333,-12.70819 14.7456,-11.53347 z"
   id="path2658"
   style="fill:#306316;stroke:#306316;stroke-width:0.551169" /><path
   d="m 2183.5538,918.5614 c 11.4539,-9.28054 28.5189,-2.56398 8.4671,4.73418 -31.3571,17.64351 -73.1748,29.94197 -84.8946,68.24695 32.8708,-1.54201 64.7687,-51.21898 96.3279,-28.10891 -2.7533,19.58727 35.778,9.84109 4.8654,13.95338 -33.9114,-2.79268 -56.4079,27.8705 -87.1389,33.4631 -28.2683,-16.71834 -5.2569,-46.99387 8.8309,-68.35707 13.3186,-15.95588 35.7035,-16.2883 53.5422,-23.93163 z"
   id="path2660"
   style="fill:#c45900;stroke:#c45900;stroke-width:0.551169" /><path
   d="m 2222.9549,916.35699 c 8.826,-3.81152 30.9084,-4.50291 10.1663,1.34844 23.285,36.49973 -70.5975,11.9391 -21.247,1.55298 3.6422,-1.14897 7.3322,-2.16042 11.0807,-2.90142 z"
   id="path2662"
   style="fill:#31741e;stroke:#31741e;stroke-width:0.551169" /><path
   d="m 2274.0042,912.49928 c 14.3749,-1.08943 10.604,16.1996 1.9416,1.74897 l -1.7668,-0.20781 z"
   id="path2664"
   style="fill:#8f2f38;stroke:#8f2f38;stroke-width:0.551169" /><path
   d="m 2485.4671,921.49278 c 19.1926,-25.27823 6.4215,39.26123 0.01,3.2857 l -0.01,-1.74316 z"
   id="path2666"
   style="fill:#d06e16;stroke:#d06e16;stroke-width:0.551169" /><path
   d="m 2273.0311,918.18618 c 2.9129,-14.53272 12.9716,9.17008 0,0 z"
   id="path2668"
   style="fill:#c37386;stroke:#c37386;stroke-width:0.551169" /><path
   d="m 2059.4644,926.75756 c 21.4255,-22.45438 21.219,10.23917 0,0 z"
   id="path2670"
   style="fill:#d97e1a;stroke:#d97e1a;stroke-width:0.551169" /><path
   d="m 2281.5072,930.8146 c 19.5342,-30.75635 11.9208,21.84246 -6.7033,3.32752 l 2.0003,-1.64711 z"
   id="path2672"
   style="fill:#430401;stroke:#430401;stroke-width:0.551169" /><path
   d="m 2318.6086,927.1914 c 26.8334,-4.04978 69.7285,-5.85325 78.4551,24.18052 14.7589,4.54579 27.9911,3.01941 5.0432,2.76827 -40.6007,-4.7427 -81.8208,-5.19795 -122.3711,-6.64902 9.8547,-9.30105 -7.6623,-6.38905 8.2181,-12.07483 9.5194,-4.64412 19.7867,-9.20302 30.6547,-8.22494 z"
   id="path2674"
   style="fill:#aa4b00;stroke:#aa4b00;stroke-width:0.551169" /><path
   d="m 2157.2219,940.44128 c 9.1706,-16.60826 60.339,-7.57271 20.9193,0.90881 -13.8572,2.64443 -50.5372,25.99377 -43.17,30.9559 34.012,-25.50029 78.2891,-27.58504 118.3236,-36.15681 38.8385,-2.32648 -17.8582,17.56791 -28.2088,18.06525 -36.9262,-0.38766 -72.481,10.01218 -101.4345,33.30449 -38.3214,17.59048 9.2823,-39.15046 25.5747,-42.58343 l 3.9829,-2.30865 z"
   id="path2676"
   style="fill:#ae3f00;stroke:#ae3f00;stroke-width:0.551169" /><path
   d="m 2047.9415,935.1765 c 18.6713,-22.08934 -3.8307,21.83147 0,0 z"
   id="path2678"
   style="fill:#d9801f;stroke:#d9801f;stroke-width:0.551169" /><path
   d="m 2530.371,934.90682 c 15.047,7.10864 68.0999,20.32602 42.458,39.40385 -19.0845,1.9881 -68.5062,-0.12255 -58.1871,-13.53324 11.9999,14.23551 8.0286,-21.05362 15.7291,-25.87061 z"
   id="path2682"
   style="fill:#b45d00;stroke:#b45d00;stroke-width:0.551169" /><path
   d="m 2649.6612,934.82474 c 8.6431,15.02812 13.3461,40.52287 20.3187,53.64984 -8.1304,13.18782 -49.1926,9.4966 -16.3704,0.54049 15.9873,-9.05026 -7.2887,-30.88223 -7.0649,-39.8968 -10.6337,5.04513 -24.8621,43.25137 -16.9327,10.67948 5.0668,-9.2978 9.0229,-21.17177 20.0493,-24.97301 z"
   id="path2684"
   style="fill:#6c3517;stroke:#6c3517;stroke-width:0.551169" /><path
   d="m 2023.1931,950.70114 c 19.557,-22.66648 24.4338,-4.33608 3.2078,7.43929 -30.7358,29.81672 -41.4596,72.93047 -54.3039,111.98537 12.4376,7.5113 34.288,1.0179 32.989,-19.2135 6.8017,19.0049 -20.5105,26.0682 -12.5681,48.6435 -4.3447,17.4712 -0.9413,68.6578 -28.5135,50.4822 -21.2858,-29.7421 -6.217,-68.6418 3.1333,-100.2427 12.6857,-35.9742 31.7208,-69.71241 56.0554,-99.09397 m -44.0738,126.12007 c -7.1718,22.6297 23.418,12.5409 0,0 z m -13.3375,5.8393 c -8.2734,18.5333 10.0165,6.6777 4.6069,-2.6286 z m 5.2852,9.0287 c -7.0019,24.0048 27.4926,-0.5673 0,0 z m 1.4094,16.1109 c -5.2506,21.4269 23.2901,-2.7269 0,0 z m -5.9278,9.5798 c -6.7951,19.2364 24.7061,6.9055 0,0 z"
   id="path2686"
   style="fill:#c56c20;stroke:#c56c20;stroke-width:0.551169" /><path
   d="m 2649.7659,935.85658 c 22.4323,1.95994 13.9923,38.84693 33.4686,45.99729 4.6395,19.64783 -53.0337,30.98343 -36.6859,17.40221 23.1098,-0.62637 28.3122,-27.96135 11.0534,-38.80621 -0.2682,-8.41644 2.9346,-21.1815 -7.8361,-24.59329 z"
   id="path2688"
   style="fill:#54240f;stroke:#54240f;stroke-width:0.551169" /><path
   d="m 2250.4174,943.90032 c 13.3838,-16.16066 53.7329,11.83469 48.3524,5.03687 -31.9895,-0.95721 -66.7323,49.13943 -94.6253,13.85302 -4.9202,-14.56432 -42.2039,0.47078 -13.4987,-6.0697 20.4114,-3.23378 44.0455,4.87873 59.7716,-12.82019 z"
   id="path2690"
   style="fill:#b85200;stroke:#b85200;stroke-width:0.551169" /><path
   d="m 2660.9478,937.77957 c 33.2352,18.37841 35.1785,86.94023 -12.9509,79.32183 -23.1095,-15.8723 35.8253,-8.0189 30.4639,-33.92052 3.9408,-20.3065 -18.9454,-26.20058 -17.513,-45.40131 z"
   id="path2692"
   style="fill:#3d1608;stroke:#3d1608;stroke-width:0.551169" /><path
   d="m 2057.7762,953.19868 c -10.5551,-22.97261 20.3269,-10.03577 0,0 z"
   id="path2694"
   style="fill:#e1a373;stroke:#e1a373;stroke-width:0.551169" /><path
   d="m 2112.4112,947.35935 c 34.3517,-18.53256 -7.0681,26.72749 -4.6075,42.60527 4.7995,14.83908 15.5501,33.80548 -8.7066,39.90568 -16.8328,-0.4936 -41.8371,39.0129 -47.5879,25.9132 -4.7255,-30.3484 40.1035,-34.0473 38.2674,-61.66223 -14.9972,-7.23975 -42.6277,31.31833 -29.326,0.56902 4.4684,-25.46023 31.7104,-36.47498 51.9606,-47.33094 z"
   id="path2696"
   style="fill:#c65f0b;stroke:#c65f0b;stroke-width:0.551169" /><path
   d="m 2043.3817,941.73109 c 18.2041,-0.50584 4.0064,17.18076 -3.2362,13.72402 -5.559,11.73561 -23.3713,35.44959 -13.7958,8.12318 4.4229,-8.17598 10.7526,-15.07845 17.032,-21.8472 z"
   id="path2698"
   style="fill:#e1a372;stroke:#e1a372;stroke-width:0.551169" /><path
   d="m 2063.3195,951.07635 c 6.8621,-6.54492 33.2252,-7.53464 11.2856,-2.14577 -3.5217,38.43473 -44.0454,56.18462 -59.3733,88.39842 3.3607,-15.0323 25.592,-57.37563 17.2137,-47.11968 -13.5689,-20.71681 43.2265,-16.81614 26.8299,-37.98421 z"
   id="path2700"
   style="fill:#d8801e;stroke:#d8801e;stroke-width:0.551169" /><path
   d="m 2512.5048,947.40626 c 23.521,-22.19859 -2.4093,40.20883 0,0 z"
   id="path2702"
   style="fill:#d16e16;stroke:#d16e16;stroke-width:0.551169" /><path
   d="m 2645.205,947.26555 c 13.7103,6.52099 -0.41,34.35956 20.312,32.56186 -19.998,33.66299 -53.7323,-10.04979 -23.904,-28.28191 0.9235,-1.64696 2.3819,-2.86315 3.592,-4.27995 z"
   id="path2704"
   style="fill:#944f23;stroke:#944f23;stroke-width:0.551169" /><path
   d="m 2308.5148,948.78987 c 39.1449,0.18524 79.6576,0.38975 116.4089,15.64922 12.141,-1.83263 36.5778,7.12471 10.5852,2.93046 -34.6961,-14.25679 -84.812,10.29845 -110.4174,-15.77099 -1.3808,-4.26067 -32.9869,1.60513 -16.5767,-2.80869 z"
   id="path2706"
   style="fill:#b65f00;stroke:#b65f00;stroke-width:0.551169" /><path
   d="m 2270.4921,956.03626 c 20.485,-11.94652 65.0173,-5.86168 69.2376,13.22539 -15.6243,7.26612 9.1066,21.00046 -8.4901,9.87134 -4.0883,-21.88435 -22.4881,-4.03706 -37.9813,-10.17001 -31.6554,22.62362 -64.7556,9.76026 -99.7541,14.48156 -17.8943,1.61185 -39.2359,15.36333 -51.9068,19.00836 27.1982,-17.34216 58.6453,-25.89037 90.7009,-27.53111 14.2891,-2.08151 28.4495,-7.87944 38.1938,-18.88553 z"
   id="path2708"
   style="fill:#c26600;stroke:#c26600;stroke-width:0.551169" /><path
   d="m 2017.4933,968.77021 c 10.9204,-20.50861 16.3313,-4.70332 0.8394,4.12609 -14.0066,13.23753 -23.7159,57.337 -32.871,55.5114 5.8869,-22.0593 18.5456,-41.51428 32.0316,-59.63749 z"
   id="path2710"
   style="fill:#d8872c;stroke:#d8872c;stroke-width:0.551169" /><path
   d="m 2388.6744,953.82014 c 30.23,4.38105 86.7591,-1.17883 95.7737,28.92798 -23.14,13.43376 -60.8313,21.06258 -79.2076,27.56668 -12.389,-32.97108 57.847,-11.75093 52.862,-38.56645 -21.2595,-11.22829 -47.5403,-7.3818 -69.4281,-17.92821 z"
   id="path2712"
   style="fill:#a85700;stroke:#a85700;stroke-width:0.551169" /><path
   d="m 2047.9312,970.07175 c -1.6468,-22.48275 16.0361,-11.92354 0,0 z"
   id="path2714"
   style="fill:#e1a374;stroke:#e1a374;stroke-width:0.551169" /><path
   d="m 2580.9529,957.64266 c 33.2072,5.68525 0.6602,50.78704 15.3355,72.10704 -5.4099,22.1727 -14.2127,-28.2282 -11.8926,-37.83312 -0.2849,-11.47766 -0.5097,-23.09908 -3.4429,-34.27392 z"
   id="path2716"
   style="fill:#64532d;stroke:#64532d;stroke-width:0.551169" /><path
   d="m 2598.2295,963.36474 c 35.2477,-5.15788 0.6658,48.58816 19.16,66.59006 -20.3655,7.1111 -15.1705,-28.0924 -24.3512,-37.4216 -0.9338,-10.02272 3.319,-19.51179 5.1912,-29.16846 z"
   id="path2718"
   style="fill:#a34900;stroke:#a34900;stroke-width:0.551169" /><path
   d="m 2358.962,961.86387 c 31.9105,3.13909 88.3904,-3.14592 103.1699,17.77371 -23.2767,7.22664 -53.1397,11.793 -67.3111,28.00422 -19.6794,5.7977 -30.8932,-15.6721 -42.6308,-2.3062 -14.4525,-7.90414 -16.9662,-48.78227 6.772,-43.47173 z m -11.2027,14.93835 c 25.6188,-6.5109 -7.8923,-23.90313 0,0 z m 13.1935,-8.4893 c -3.1977,20.63522 16.2029,24.82403 13.8804,2.72898 -0.8331,-7.80868 -10.1734,-10.50331 -13.8804,-2.72898 z m -13.1416,14.39898 c 6.6622,38.8329 20.5911,-22.7763 0,0 z"
   id="path2720"
   style="fill:#c36c0d;stroke:#c36c0d;stroke-width:0.551169" /><path
   d="m 2614.6024,966.08507 c 29.9203,-2.72367 -7.2192,33.49046 3.5496,48.14273 5.5749,15.7068 2.246,30.6912 -5.3663,6.6936 -4.0299,-18.2025 1.6001,-36.57385 1.8167,-54.83633 z"
   id="path2722"
   style="fill:#5a4826;stroke:#5a4826;stroke-width:0.551169" /><path
   d="m 2320.0584,972.54584 c 15.1601,-15.688 12.2876,26.12829 24.9594,25.42236 -8.353,10.2624 32.436,44.9854 3.6354,33.098 -21.2158,-22.7729 -30.1857,33.1049 -47.0649,0.4362 -9.7243,-26.0264 17.3883,-1.7424 14.4676,-8.2539 2.4749,-17.0896 1.6726,-24.65442 -18.223,-22.3014 -30.0519,12.4738 -40.6227,-30.20143 -7.9539,-32.14251 10.1889,-2.07301 20.4328,1.05969 30.1792,3.74125 m -29.4202,3.77563 c -16.6372,1.97007 -19.6462,19.90727 -0.429,15.18222 2.1364,-9.64068 41.2012,-10.86319 14.1954,-18.21858 -3.7756,-7.3703 -10.9033,-1.18869 -13.7664,3.03636 z m 27.7839,9.33355 c 16.0289,21.73768 9.5559,-21.68208 0,0 z m -19.5358,6.10901 c -5.1972,26.66757 25.4079,-2.11889 0,0 z m 21.4105,10.42397 c 23.8712,6.9977 4.8343,-23.70645 0,0 z"
   id="path2724"
   style="fill:#dc7f1f;stroke:#dc7f1f;stroke-width:0.551169" /><path
   d="m 2347.7593,976.80222 c -7.6831,-24.8779 24.9118,-5.77074 0,0 z"
   id="path2726"
   style="fill:#f1922b;stroke:#f1922b;stroke-width:0.551169" /><path
   d="m 2360.9528,968.31292 c 22.5785,-18.44903 6.6075,38.86088 2.8483,15.31668 5.3837,-4.74465 -3.0364,-10.1162 -2.8483,-15.31668 z"
   id="path2728"
   style="fill:#f2932c;stroke:#f2932c;stroke-width:0.551169" /><path
   d="m 2036.0342,967.63284 c 12.3956,8.96967 -8.4006,15.26924 0,0 z"
   id="path2730"
   style="fill:#e1a373;stroke:#e1a373;stroke-width:0.551169" /><path
   d="m 2337.9246,967.56248 c 24.7112,11.57701 -20.0941,19.78417 0,0 z"
   id="path2732"
   style="fill:#f1932b;stroke:#f1932b;stroke-width:0.551169" /><path
   d="m 2015.9388,977.8927 c 5.9222,-19.49133 5.1904,15.87337 10.156,-0.77389 9.6577,10.94277 13.4758,27.66609 -5.4086,16.40609 -1.7513,13.5608 -20.7691,35.5687 -28.4764,38.8047 3.4297,-11.8638 6.2007,-32.41999 15.1819,-24.292 0.6564,-6.8263 1.7571,-28.3308 5.148,-8.21812 1.1106,-6.7822 11.6761,-15.96554 3.3991,-21.92678 z"
   id="path2734"
   style="fill:#f1932c;stroke:#f1932c;stroke-width:0.551169" /><path
   d="m 2068.6473,972.79208 c -10.7533,50.91062 -59.6728,84.16752 -68.4118,135.71912 5.3451,21.3673 22.2822,-24.6347 28.9283,-33.116 4.6933,-12.3264 37.6042,-58.1027 25.0062,-23.5116 -7.4771,20.2824 21.2619,-7.485 4.3275,8.9923 -30.8052,34.9378 -55.0372,86.7635 -33.2504,132.385 28.4909,16.171 -27.6364,9.0519 -24.2606,-11.5327 -5.9756,-20.4231 -35.5587,-26.2892 -11.8581,-40.8999 0.2529,-29.7675 2.4258,-62.7852 19.8414,-90.0606 18.3286,-26.8693 33.7352,-57.44088 59.6775,-77.97562 z"
   id="path2736"
   style="fill:#c56618;stroke:#c56618;stroke-width:0.551169" /><path
   d="m 2290.6382,976.32147 c 23.6765,-11.51431 28.1307,10.93062 2.6465,11.08136 -17.3675,18.15677 -20.4069,-19.68071 -3.2119,-6.60298 z"
   id="path2738"
   style="fill:#e1a475;stroke:#e1a475;stroke-width:0.551169" /><path
   d="m 2232.687,978.29137 c 15.6627,-7.96117 22.255,45.50933 22.3127,14.02776 4.0518,-23.91181 10.9573,29.74387 30.899,10.28967 17.8357,-18.51258 41.7358,21.951 26.7487,21.838 -11.5347,-22.2449 -14.5375,8.9293 -12.7369,16.0618 -5.7036,-14.3475 -9.2759,-18.4263 -17.9361,-0.2794 -9.6244,16.4034 -22.5289,-25.1473 -21.4243,3.504 4.5976,11.1091 -32.4456,27.2283 -23.6902,18.7426 -0.464,-16.799 -14.0888,19.1002 -26.8246,7.4911 -28.5202,5.6617 -80.0713,-30.8978 -52.3566,-58.4966 19.1573,-14.47254 30.7655,15.8603 41.018,-10.7677 7.6646,-12.98278 25.4709,-18.14696 33.9903,-22.41123 z m -0.9234,29.80633 c 21.8335,2.8009 -7.7321,-21.38542 0,0 z m 11.2244,8.3017 c 17.5802,17.683 12.9047,-24.8046 0,0 z m -23.1421,-1.5712 c -9.9065,18.2162 37.2958,36.1565 15.1731,7.2367 0.082,-9.6364 -8.0469,-14.8753 -15.1731,-7.2366 m -54.6454,7.0939 c 20.8628,30.2143 9.4025,-28.34045 0,0 z m 39.0384,0.9615 c -20.4282,19.0888 45.652,35.8793 11.4231,11.7058 -2.0967,-4.6408 -4.2289,-14.985 -11.423,-11.7058 m -44.8822,4.4675 c -17.714,23.2661 31.3526,5.5656 0,0 z m 33.38,8.0202 c -23.5683,11.2274 25.2684,49.3266 6.3881,18.2418 -0.5807,-6.2789 4.4901,-18.3524 -6.3881,-18.2418 z"
   id="path2740"
   style="fill:#e18219;stroke:#e18219;stroke-width:0.551169" /><path
   d="m 2010.2494,986.66341 c 14.2306,-22.84437 3.0509,21.73169 -0.2396,4.97621 z"
   id="path2742"
   style="fill:#e1a475;stroke:#e1a475;stroke-width:0.551169" /><path
   d="m 2205.0368,979.15906 c 12.3001,-7.46644 8.1047,18.65871 3.3305,2.58841 -19.9685,16.46364 -80.1538,34.23473 -48.1701,67.03953 25.7624,14.2198 9.3824,69.683 -18.0875,51.732 8.7219,-11.6748 37.3961,-23.6068 10.5338,-39.4055 -20.5082,-8.4761 -57.4883,-37.3899 -21.3483,-52.0225 21.559,-14.5976 46.874,-20.59413 71.045,-28.59895 l 1.5627,-0.77247 z"
   id="path2744"
   style="fill:#d67000;stroke:#d67000;stroke-width:0.551169" /><path
   d="m 2347.8112,982.7119 c 18.51,-13.65786 1.2683,23.671 0,0 z"
   id="path2748"
   style="fill:#f1922b;stroke:#f1922b;stroke-width:0.551169" /><path
   d="m 2625.205,980.53095 c 16.4835,9.52902 13.3094,58.16955 3.0151,19.47695 -1.4856,-6.40097 -2.7735,-12.88943 -3.0151,-19.47695 z"
   id="path2750"
   style="fill:#443319;stroke:#443319;stroke-width:0.551169" /><path
   d="m 2204.727,982.2546 c 14.2092,14.38207 -37.443,49.9269 -20.8857,17.03348 5.3889,-7.41058 13.564,-11.85399 20.8857,-17.03348 z"
   id="path2752"
   style="fill:#f1922b;stroke:#f1922b;stroke-width:0.551169" /><path
   d="m 1960.1649,988.34016 c 19.0429,-2.18961 32.0219,31.36264 7.5811,8.3606 -3.1103,-2.12871 -6.2029,-4.71225 -7.5811,-8.3606 z"
   id="path2756"
   style="fill:#ba6102;stroke:#ba6102;stroke-width:0.551169" /><path
   d="m 2336.194,986.11231 c 27.3114,3.12074 -6.7852,24.78349 0,0 z"
   id="path2758"
   style="fill:#e1a475;stroke:#e1a475;stroke-width:0.551169" /><path
   d="m 2616.7372,994.75404 c 17.0879,-21.51811 5.7012,19.62946 -1.5494,10.36916 l 0.327,-4.0862 z"
   id="path2760"
   style="fill:#934f23;stroke:#934f23;stroke-width:0.551169" /><path
   d="m 2021.2147,990.77908 c 11.2692,16.31402 -19.037,17.75862 0,0 z"
   id="path2764"
   style="fill:#e1a373;stroke:#e1a373;stroke-width:0.551169" /><path
   d="m 2298.8863,991.76403 c 25.4067,-2.11803 -5.1962,26.66707 0,0 z"
   id="path2766"
   style="fill:#e1a475;stroke:#e1a475;stroke-width:0.551169" /><path
   d="m 2529.086,994.03878 c 16.2601,-8.56836 75.9478,9.64312 34.7438,18.04942 -22.8978,-9.5873 -29.9794,17.1149 -46.1631,17.3968 -7.399,-16.1862 -20.6862,-24.659 -25.6744,-4.8166 -52.336,-13.7416 21.7742,-33.32096 37.0937,-30.62962 z"
   id="path2772"
   style="fill:#832d00;stroke:#832d00;stroke-width:0.551169" /><path
   d="m 2000.9235,1001.8597 c 13.0746,-20.97513 5.0312,21.3055 0.2676,4.7725 z"
   id="path2774"
   style="fill:#e1a375;stroke:#e1a375;stroke-width:0.551169" /><path
   d="m 2359.3258,997.95512 c 16.0992,-2.01884 33.5856,31.01358 6.216,15.10358 -5.2513,-2.7561 -8.9814,-9.2734 -6.216,-15.10358 z"
   id="path2776"
   style="fill:#dd7d2b;stroke:#dd7d2b;stroke-width:0.551169" /><path
   d="m 2021.3391,1002.5281 c 7.701,-10.47306 19.7491,-3.55345 4.2968,2.2314 -8.6825,22.5116 -15.4752,73.3797 -47.0674,65.8339 -3.7325,-27.0474 29.0422,-37.9065 37.5156,-63.7015 z"
   id="path2778"
   style="fill:#d8882c;stroke:#d8882c;stroke-width:0.551169" /><path
   d="m 2592.0219,998.43586 c 23.0183,3.77514 -2.6647,30.33914 0,0 z"
   id="path2780"
   style="fill:#b55f00;stroke:#b55f00;stroke-width:0.551169" /><path
   d="m 2343.9457,1002.6102 c 15.175,6.4929 36.5598,19.0434 46.2763,4.3983 35.0446,26.3689 -14.7683,57.1306 -44.1307,58.9913 -19.766,-0.5091 -64.27,14.0983 -66.3511,13.7626 36.2233,1.0833 30.6853,-53.6538 59.6796,-52.9235 10.5885,8.8655 37.809,9.189 15.0226,-3.1058 -5.7131,-5.6208 -9.5331,-13.1488 -10.4963,-21.1229 m -11.4918,36.4899 c -0.6491,21.4749 28.9279,8.8465 10.7937,-2.723 -0.8212,-6.0489 -9.2741,0.2372 -10.7937,2.723 z"
   id="path2786"
   style="fill:#b45e00;stroke:#b45e00;stroke-width:0.551169" /><path
   d="m 2618.5922,1000.4996 c 24.8324,-7.62902 5.9461,33.2044 0,0 z"
   id="path2788"
   style="fill:#643014;stroke:#643014;stroke-width:0.551169" /><path
   d="m 2616.6035,1008.3557 c 24.8513,-9.68631 15.2994,47.0885 3.048,12.7232 -1.4646,-4.1152 -2.5444,-8.3793 -3.048,-12.7232 z"
   id="path2790"
   style="fill:#a04700;stroke:#a04700;stroke-width:0.551169" /><path
   d="m 2393.2239,1004.9904 c 27.2566,1.3718 7.8301,32.6714 -1.8119,7.1201 l 0.2262,-3.7206 z"
   id="path2792"
   style="fill:#dd7d2b;stroke:#dd7d2b;stroke-width:0.551169" /><path
   d="m 2570.8902,1012.741 c 33.3741,-9.5487 -1.6405,36.2294 -14.6454,41.5086 -7.7835,13.2725 -18.7101,31.2082 -6.2355,6.1523 6.0061,-15.915 -3.5653,-44.7513 20.8809,-47.6609 z"
   id="path2794"
   style="fill:#bd6300;stroke:#bd6300;stroke-width:0.551169" /><path
   d="m 2492.8043,1017.4899 c 9.6606,-23.18741 31.3674,23.1333 3.5847,7.2299 l -1.5295,-2.1874 z"
   id="path2796"
   style="fill:#9e3a0a;stroke:#9e3a0a;stroke-width:0.551169" /><path
   d="m 2457.7454,1018.3341 c 12.655,-20.52446 45.1412,24.6899 9.9198,8.2874 -4.0369,-1.6746 -7.6182,-4.5457 -9.9198,-8.2874 z"
   id="path2800"
   style="fill:#9e3a0a;stroke:#9e3a0a;stroke-width:0.551169" /><path
   d="m 2532.4841,1011.9202 c 15.1582,-1.9598 44.1674,3.8192 13.1461,0.8611 -2.8101,-0.5316 -13.4812,6.2203 -13.1461,-0.8611 z"
   id="path2804"
   style="fill:#ecddc4;stroke:#ecddc4;stroke-width:0.551169" /><path
   d="m 2165.2005,1021.9221 c 7.9278,-25.67127 18.937,24.4215 0.1087,0.1467 z"
   id="path2806"
   style="fill:#f2932b;stroke:#f2932b;stroke-width:0.551169" /><path
   d="m 2229.7324,1012.8348 c 12.8726,7.9554 13.522,42.5953 -3.3647,19.8128 -2.0775,-6.6757 -0.7679,-14.1897 3.3647,-19.8128 z"
   id="path2808"
   style="fill:#dd7d2b;stroke:#dd7d2b;stroke-width:0.551169" /><path
   d="m 2534.3702,1012.9169 c 16.0349,-4.201 38.4022,6.3553 11.2249,10.8122 -8.5878,4.609 -15.1199,-2.5602 -11.2249,-10.8122 z"
   id="path2810"
   style="fill:#fefefd;stroke:#fefefd;stroke-width:0.551169" /><path
   d="m 1990.923,1028.3947 c -4.8064,-18.5256 17.4153,-12.0669 0,0 z"
   id="path2812"
   style="fill:#e1a371;stroke:#e1a371;stroke-width:0.551169" /><path
   d="m 2002.7163,1017.8182 c 12.0708,11.9679 -15.8785,18.528 -0.52,1.0315 z"
   id="path2814"
   style="fill:#e1a372;stroke:#e1a372;stroke-width:0.551169" /><path
   d="m 2111.2288,1022.2505 c 18.1852,-3.1167 5.5798,32.2261 -11.1703,28.7375 -44.9967,21.8498 -10.0651,-27.3148 11.1703,-28.7375 z"
   id="path2816"
   style="fill:#d9770a;stroke:#d9770a;stroke-width:0.551169" /><path
   d="m 2443.6297,1028.8402 c 12.5168,-19.7908 54.9645,8.2907 16.1152,9.8665 -11.5321,-8.838 -26.3822,19.292 -24.8633,-3.2745 1.602,-3.4247 4.8757,-6.2257 8.7481,-6.592 z"
   id="path2818"
   style="fill:#873000;stroke:#873000;stroke-width:0.551169" /><path
   d="m 2596.7258,1025.0294 c 15.5752,-9.477 28.2294,32.9451 7.5732,8.9076 l -3.8589,-4.3918 z"
   id="path2820"
   style="fill:#493a1b;stroke:#493a1b;stroke-width:0.551169" /><path
   d="m 2204.2389,1022.8836 c 21.6256,3.2863 -16.0967,16.2287 0,0 z"
   id="path2822"
   style="fill:#e1a474;stroke:#e1a474;stroke-width:0.551169" /><path
   d="m 2535.5008,1025.8737 c 39.6329,-7.649 7.9537,53.3669 -4.1573,68.8923 -14.5599,14.8058 -31.2497,2.8967 -13.4663,-13.1481 -0,-15.5592 -0.4034,-29.6025 16.5414,-18.6169 11.1213,-17.2799 -43.5546,-34.1831 -3.9746,-35.6224 z"
   id="path2824"
   style="fill:#c56700;stroke:#c56700;stroke-width:0.551169" /><path
   d="m 2593.8458,1022.2153 c 9.6441,6.6572 31.7142,32.6257 5.9463,17.0009 -4.0641,-4.7112 -5.1598,-11.0487 -5.9463,-17.0009 z"
   id="path2826"
   style="fill:#a34901;stroke:#a34901;stroke-width:0.551169" /><path
   d="m 2393.4301,1041.1872 c 6.0139,-13.2333 17.8996,-16.0832 3.7995,-2.1041 -21.9967,23.8473 -32.7751,58.6449 -63.7517,73.3215 -16.7294,-0.2747 -20.9045,-10.3251 -32.4746,4.6088 -5.0451,-13.7671 -11.4307,-12.4492 -27.1323,-6.0123 4.268,-7.6736 -16.2278,-12.1292 -14.7281,-19.9375 6.1308,16.8331 36.4217,4.2674 11.7526,0.5808 24.6335,-33.2785 70.1169,-17.795 102.5401,-31.8571 7.7915,-4.8394 14.3107,-11.4628 19.9945,-18.6001 z m -58.3958,31.3659 c -14.823,20.4068 37.4553,19.0659 10.4574,5.3888 -1.6732,-5.118 -7.1303,-18.3199 -10.4574,-5.3888 z m -37.8569,10.9986 c -22.8519,12.9538 30.4173,21.9115 2.7155,2.3998 l -0.9094,-1.6141 z m 19.0673,8.97 c 1.1743,19.5872 44.5684,4.8435 15.1822,1.9348 -1.46,-7.8395 -13.4564,-11.7194 -15.1822,-1.9348 z"
   id="path2828"
   style="fill:#aa4b00;stroke:#aa4b00;stroke-width:0.551169" /><path
   d="m 2488.9792,1026.0495 c 30.8817,-8.3414 26.8476,14.326 -1.0792,12.6042 -13.979,5.4763 -33.081,-0.7504 -8.9643,-9.2187 l 4.9547,-1.886 z"
   id="path2832"
   style="fill:#6c1b00;stroke:#6c1b00;stroke-width:0.551169" /><path
   d="m 2564.4764,1043.5089 c 4.5483,-24.8664 47.1368,-8.9025 20.7573,7.3344 -23.1439,18.8341 -34.6952,50.1843 -60.8993,64.9756 29.2136,-13.6228 20.9887,-51.1951 40.142,-72.31 z"
   id="path2834"
   style="fill:#ac4c00;stroke:#ac4c00;stroke-width:0.551169" /><path
   d="m 2159.3567,1027.3511 c 32.0741,4.0422 -14.5102,23.301 0,0 z"
   id="path2836"
   style="fill:#f2932c;stroke:#f2932c;stroke-width:0.551169" /><path
   d="m 2209.8879,1026.8586 c 16.2984,10.0727 22.4147,32.7452 -1.4563,15.4601 -5.7691,-4.0429 -4.6568,-12.6508 1.4563,-15.4601 z"
   id="path2838"
   style="fill:#dd7d2b;stroke:#dd7d2b;stroke-width:0.551169" /><path
   d="m 2423.7426,1032.1351 c 9.3869,-11.5979 18.0057,31.0003 22.6759,4.6194 22.1706,-4.2215 14.4153,17.0373 -3.939,11.9916 -13.4142,4.3706 -42.4034,11.726 -20.7373,-6.3016 0.1139,-3.4732 -0.3384,-7.3542 2.0004,-10.3094 z"
   id="path2840"
   style="fill:#9e3a0a;stroke:#9e3a0a;stroke-width:0.551169" /><path
   d="m 2257.6406,1038.8421 c 16.3775,-18.9943 31.1061,35.5927 4.6974,11.3641 -2.9846,-2.955 -4.8733,-7.1183 -4.6974,-11.3641 z"
   id="path2842"
   style="fill:#dd7d2b;stroke:#dd7d2b;stroke-width:0.551169" /><path
   d="m 2510.9607,1033.3194 c 9.9727,-1.3683 20.548,12.4308 9.9839,14.1248 -0.7399,5.5839 7.8761,21.2197 -2.2633,7.9425 11.4699,37.7749 -27.1902,56.6423 -55.9865,65.6805 -12.8311,6.0782 -37.4659,23.3878 -16.9441,1.0618 17.4949,-20.3247 33.3239,-45.8402 31.6767,-73.3727 -8.9316,8.6763 -18.4864,28.9313 -20.3477,3.2325 -5.6454,-13.759 -22.9338,2.0723 -2.3591,-6.9032 18.5046,-5.027 37.5768,-7.4489 56.2401,-11.7664 m -27.017,17.2131 c 7.3554,26.0807 26.382,0.5579 6.8621,-7.1513 l -4.1711,2.4725 -2.691,4.6789 m 23.6282,13.0623 c -5.1102,34.6945 28.5258,-12.4537 0,0 z"
   id="path2844"
   style="fill:#d16e00;stroke:#d16e00;stroke-width:0.551169" /><path
   d="m 1982.6531,1042.3012 c 10.0861,-25.0773 7.7234,18.4691 0.6653,4.5559 z"
   id="path2846"
   style="fill:#e1a473;stroke:#e1a473;stroke-width:0.551169" /><path
   d="m 2192.7367,1035.3714 c 23.6591,6.6551 -15.7992,21.6636 0,0 z"
   id="path2850"
   style="fill:#e1a474;stroke:#e1a474;stroke-width:0.551169" /><path
   d="m 2305.6121,1037.4468 c 7.7225,-1.5517 27.1828,4.5359 8.0625,7.1877 -3.5654,37.5624 -55.6299,39.9953 -81.7924,49.9388 0.144,-13.9827 23.813,-17.2616 8.5578,-28.6624 13.3596,1.2272 40.5471,15.8686 20.2471,-7.6565 1.5007,-8.2161 21.8747,-4.0794 25.2822,-9.4378 9.9429,12.0614 21.5593,1.1297 11.4337,-9.2236 l 1.4867,-1.001 z"
   id="path2852"
   style="fill:#c06500;stroke:#c06500;stroke-width:0.551169" /><path
   d="m 2596.9237,1043.6496 c 11.8569,-13.629 20.7526,25.8516 0,0 z"
   id="path2854"
   style="fill:#44351a;stroke:#44351a;stroke-width:0.551169" /><path
   d="m 2189.5438,1040.1437 c 6.2687,8.7544 29.8518,34.9164 3.6052,24.1298 -4.5868,-7.1106 -3.8626,-16.0719 -3.6052,-24.1298 z"
   id="path2856"
   style="fill:#dd7d2b;stroke:#dd7d2b;stroke-width:0.551169" /><path
   d="m 2080.0365,1040.6361 c 6.4972,3.9349 -3.5139,30.9317 5.8345,14.4694 -16.9959,32.6282 -47.148,58.8211 -52.6218,96.7936 -1.4239,15.3583 11.1468,64.23 -12.0752,30.8777 -14.147,-35.2653 4.359,-73.98 23.2216,-103.8389 9.9295,-14.4116 21.9499,-27.3934 35.6409,-38.3018 z"
   id="path2858"
   style="fill:#d87f1d;stroke:#d87f1d;stroke-width:0.551169" /><path
   d="m 2594.5816,1040.9058 c 29.4746,26.2414 -31.326,44.1086 -42.0768,66.8754 -9.0659,6.1748 -41.7386,33.2947 -10.4463,21.4175 8.4031,0.3315 -0.7105,9.0987 5.149,11.7485 -19.7666,-3.3562 -36.0382,-0.01 -42.1346,18.4136 -15.7207,-9.3683 4.5862,-21.3054 10.3936,-18.3817 3.1554,-5.8731 21.3791,-21.9541 3.7019,-20.1514 32.2073,-19.4238 46.9692,-56.4843 75.4132,-79.9219 z"
   id="path2860"
   style="fill:#9a3700;stroke:#9a3700;stroke-width:0.551169" /><path
   d="m 2519.8409,1049.4068 c 11.9893,-20.4465 26.1238,32.606 3.645,9.7676 -2.3568,-2.6635 -3.6836,-6.2105 -3.645,-9.7676 z"
   id="path2862"
   style="fill:#dc7d2a;stroke:#dc7d2a;stroke-width:0.551169" /><path
   d="m 2551.626,1061.9063 c 5.401,-13.4734 14.7181,-17.8506 4.3588,-1.7824 -7.0286,37.4968 -36.1045,67.5598 -71.7067,79.6283 14.1972,-21.1558 21.0682,-37.3054 47.0842,-46.7882 11.2681,-7.2924 14.7269,-19.8084 20.2637,-31.0577 z"
   id="path2866"
   style="fill:#b85200;stroke:#b85200;stroke-width:0.551169" /><path
   d="m 2106.9913,1046.6865 c 29.1004,-13.5816 84.3287,36.7469 33.9619,47.1589 -25.9918,0.1942 -52.7295,7.3059 -57.6277,36.0337 -25.3071,8.1869 -15.1819,48.9588 -46.2164,47.1386 -10.1943,-22.3583 4.2188,-49.3004 14.2074,-70.2178 14.2889,-22.9902 30.9085,-47.6101 55.6745,-60.1134 m 12.7364,21.2467 c 25.7279,-6.231 -14.906,-21.9374 0,0 z m -23.8458,-0.8442 c -20.5434,-4.7361 -18.199,45.3296 -4.9065,13.1601 4.692,-5.0552 17.853,-29.3826 4.9065,-13.1601 z m 9.5238,-8.63 c -9.8002,25.1908 24.0195,0.2321 0,0 z m 29.9694,10.8461 c -22.9006,25.3768 46.7276,14.6959 11.524,8.1646 -3.0299,-3.0473 -5.7291,-12.0625 -11.524,-8.1646 z m -26.1361,11.5966 c 17.5446,-1.7028 0.2373,-21.0051 0,0 z m -14.5085,-0.3049 c -4.0826,22.443 19.6087,0.2416 0,0 z m -24.3951,10.0371 c -15.6151,25.5603 22.3739,10.9894 0,0 z m 7.0574,15.0087 c 9.1236,16.7322 6.999,-17.584 0,0 z m -19.514,5.5931 c 20.5646,33.0532 7.9708,-27.7094 0,0 z m -4.3525,9.0873 c -17.2822,20.6917 15.8627,11.7232 0,0 z m 11.7944,3.3301 c -16.3672,25.7415 20.3862,3.4281 0,3e-4 m -16.1988,15.6419 c -15.6348,21.9809 19.4159,4.6006 0,0 z m -10.4244,20.0858 c -11.4559,20.163 14.0954,-0.8958 0,0 z"
   id="path2868"
   style="fill:#f2932c;stroke:#f2932c;stroke-width:0.551169" /><path
   d="m 2437.4428,1049.911 c 25.6875,-14.0112 27.589,24.8229 20.8459,38.3144 18.5738,11.7911 -24.1423,9.4774 0.278,18.139 -17.8326,3.8551 -14.0971,34.3084 -39.9662,36.1051 -11.2415,5.3558 -56.6382,7.8102 -23.2465,7.5651 15.5014,-11.4419 24.4779,-39.3906 28.2359,-52.305 -20.2327,-18.5207 47.9203,6.926 20.3814,-22.8315 -11.305,-15.6401 -56.7749,8.304 -49.7254,-8.3623 13.3516,-7.8383 27.8623,-14.0364 43.1969,-16.6248 z m 6.9641,7.95 c 0.091,31.3318 24.7499,3.2854 7.2009,-5.6042 l -3.1968,1.788 z m -9.7933,34.6842 c -14.2983,26.0291 27.7599,4.7148 0,0 z"
   id="path2870"
   style="fill:#e07601;stroke:#e07601;stroke-width:0.551169" /><path
   d="m 2248.3033,1055.2462 c 16.7745,-0.133 32.2172,31.9862 5.1164,15.1261 -5.3327,-2.6706 -9.0692,-9.6513 -5.1164,-15.1261 z"
   id="path2876"
   style="fill:#dd7d2b;stroke:#dd7d2b;stroke-width:0.551169" /><path
   d="m 2119.7277,1067.9332 c -14.4652,-24.5597 25.104,-4.1158 0,0 z"
   id="path2878"
   style="fill:#e1bda0;stroke:#e1bda0;stroke-width:0.551169" /><path
   d="m 2230.1065,1059.2563 c 13.4275,-0.7136 25.2593,33.4997 2.9111,14.6469 -4.0165,-3.5116 -6.1728,-9.8773 -2.9111,-14.6469 z"
   id="path2880"
   style="fill:#dc7d2a;stroke:#dc7d2a;stroke-width:0.551169" /><path
   d="m 1976.4248,1057.4506 c 4.3333,18.7348 -14.7186,18.5146 0,0 z"
   id="path2882"
   style="fill:#e0a374;stroke:#e0a374;stroke-width:0.551169" /><path
   d="m 2095.8819,1067.089 c 14.4733,-14.4595 -25.4293,52.4621 -13.8749,10.6471 1.7584,-4.8909 7.142,-17.6847 13.8749,-10.6471 z"
   id="path2884"
   style="fill:#e1bda0;stroke:#e1bda0;stroke-width:0.551169" /><path
   d="m 2105.4057,1058.459 c 26.0615,0.036 -10.2072,25.6838 0,0 z"
   id="path2886"
   style="fill:#e1bea2;stroke:#e1bea2;stroke-width:0.551169" /><path
   d="m 2507.5719,1063.5948 c 23.053,-6.065 -4.9367,31.3186 -1.7268,1.9669 l 1.1501,-1.31 z"
   id="path2890"
   style="fill:#dc7d2a;stroke:#dc7d2a;stroke-width:0.551169" /><path
   d="m 2335.0343,1072.5531 c 11.8449,-13.9515 29.7118,34.5184 4.0272,15.444 -3.8988,-3.9 -6.2445,-10.0822 -4.0272,-15.444 z"
   id="path2892"
   style="fill:#9e3a0b;stroke:#9e3a0b;stroke-width:0.551169" /><path
   d="m 2135.3751,1069.3051 c 12.1629,6.0736 40.2092,14.6175 10.6349,18.732 -9.9083,0.7973 -20.4186,-10.2693 -10.6349,-18.732 z"
   id="path2896"
   style="fill:#dd7d2b;stroke:#dd7d2b;stroke-width:0.551169" /><path
   d="m 2109.239,1080.9017 c -1.834,-22.4152 22.0574,-4.7834 0,0 z"
   id="path2900"
   style="fill:#e1bda0;stroke:#e1bda0;stroke-width:0.551169" /><path
   d="m 2219.6397,1071.5212 c 45.1211,2.5738 -12.4248,44.006 -33.9662,36.3954 -16.5986,6.1963 -39.38,1.7008 -21.2799,-17.7139 -2.9281,-27.5034 49.4226,-1.8311 28.3343,-19.5166 9.7072,1.37 50.3214,29.0162 26.9118,0.8351 z"
   id="path2902"
   style="fill:#ce6c00;stroke:#ce6c00;stroke-width:0.551169" /><path
   d="m 2425.4536,1072.6586 c 10.6636,-9.6906 36.4049,29.4401 12.394,15.8374 -11.4847,-4.2503 -35.0979,7.3662 -23.2119,-17.1246 -7.5868,17.2868 25.7231,8.594 10.8179,1.2872 z"
   id="path2904"
   style="fill:#dd7e29;stroke:#dd7e29;stroke-width:0.551169" /><path
   d="m 2373.6167,1080.1395 c 10.64,-17.7721 30.5036,-1.5316 8.9542,7.3274 -13.2729,-5.2075 -51.8451,33.5866 -28.3159,8.0201 6.1765,-5.4521 12.5909,-10.6477 19.3617,-15.3475 z"
   id="path2906"
   style="fill:#ea820d;stroke:#ea820d;stroke-width:0.551169" /><path
   d="m 2456.3972,1074.9099 c 21.074,-14.3965 8.4395,40.3478 7.0263,11.8311 -6.878,2.3025 -13.2022,-7.314 -7.0263,-11.8311 z"
   id="path2912"
   style="fill:#f1922b;stroke:#f1922b;stroke-width:0.551169" /><path
   d="m 1979.1193,1076.8212 c 20.6493,11.0064 -4.3595,24.5093 0,0 z"
   id="path2914"
   style="fill:#f1922b;stroke:#f1922b;stroke-width:0.551169" /><path
   d="m 1965.7818,1082.6605 c 16.888,-7.3287 -8.3889,23.0213 0,0 z"
   id="path2916"
   style="fill:#e1a375;stroke:#e1a375;stroke-width:0.551169" /><path
   d="m 2094.7305,1080.5968 c 17.6082,-0.5915 -4.1648,19.0681 0,0 z"
   id="path2918"
   style="fill:#e1bda2;stroke:#e1bda2;stroke-width:0.551169" /><path
   d="m 2257.1639,1084.2317 c 14.9448,-4.4801 36.4975,26.887 7.8371,13.9838 -5.2598,-2.2996 -9.3565,-8.057 -7.8371,-13.9838 z"
   id="path2920"
   style="fill:#9e3a0a;stroke:#9e3a0a;stroke-width:0.551169" /><path
   d="m 2395.11,1086.3892 c 42.095,-6.2916 21.5806,71.978 -15.1942,63.0683 -20.5314,-1.024 12.5691,-24.4249 4.1708,-38.7483 -2.4255,-13.0777 14.719,-14.0053 11.0234,-24.32 z m 6.4563,3.7757 c -3.2092,24.9385 26.4343,-1.7422 0,0 z"
   id="path2922"
   style="fill:#ea7b02;stroke:#ea7b02;stroke-width:0.551169" /><path
   d="m 2297.1774,1083.5517 c 35.3301,26.5885 -26.7487,17.5684 0,0 z"
   id="path2926"
   style="fill:#9e3a0b;stroke:#9e3a0b;stroke-width:0.551169" /><path
   d="m 2316.2447,1092.5217 c 10.0426,-15.3713 43.6232,19.5048 12.3971,10.3143 -5.3129,-1.4832 -10.2648,-5.091 -12.3971,-10.3143 z"
   id="path2932"
   style="fill:#9e3a0b;stroke:#9e3a0b;stroke-width:0.551169" /><path
   d="m 2386.1862,1095.5704 c -4.1911,-23.6026 17.2946,5.2129 0,0 z"
   id="path2934"
   style="fill:#e1bc9f;stroke:#e1bc9f;stroke-width:0.551169" /><path
   d="m 2373.9472,1088.2536 c 24.9926,0.7677 -9.8776,26.6513 0,0 z"
   id="path2938"
   style="fill:#e1bda1;stroke:#e1bda1;stroke-width:0.551169" /><path
   d="m 2229.3697,1097.9741 c 15.9115,-27.0294 70.5667,29.3154 28.1458,13.9094 -20.5851,-13.1993 -10.2653,-0.4221 -11.3345,12.5764 -15.0133,19.6766 -46.3596,11.5554 -54.5592,6.3634 -14.348,9.2149 -22.7858,12.3319 -4.799,1.3119 10.9454,-20.6102 28.3536,-35.2147 42.843,-11.9039 21.7178,2.6228 -16.7529,-27.9082 -0.2961,-22.2572 z m -28.6647,21.704 c -1.3951,20.2246 43.9427,9.3805 13.7287,3.3063 -0.8592,-7.3358 -11.9237,-14.0304 -13.7287,-3.3063 z"
   id="path2940"
   style="fill:#b65000;stroke:#b65000;stroke-width:0.551169" /><path
   d="m 2365.1799,1089.9304 c 12.3425,13.1329 -31.4769,48.9543 -13.6582,15.5552 1.8522,-8.2373 12.3882,-9.9934 13.6582,-15.5552 z"
   id="path2942"
   style="fill:#e1bda0;stroke:#e1bda0;stroke-width:0.551169" /><path
   d="m 2070.3354,1090.6339 c 21.7772,11.4214 -15.3843,26.6314 0,0 z"
   id="path2944"
   style="fill:#e1bda0;stroke:#e1bda0;stroke-width:0.551169" /><path
   d="m 1971.067,1091.6892 c 24.3878,-0.6539 -5.2646,22.3306 0,0 z"
   id="path2948"
   style="fill:#f0922b;stroke:#f0922b;stroke-width:0.551169" /><path
   d="m 2434.6136,1092.5452 c 29.8611,8.3528 -15.4716,22.4385 0,0 z"
   id="path2950"
   style="fill:#f1922b;stroke:#f1922b;stroke-width:0.551169" /><path
   d="m 2135.0953,1093.0025 c 25.8996,3.9589 8.0007,37.882 -3.5335,14.968 0.01,-5.2207 2.1343,-10.0443 3.5335,-14.968 z"
   id="path2952"
   style="fill:#dd7d2b;stroke:#dd7d2b;stroke-width:0.551169" /><path
   d="m 2107.5809,1103.6845 c 8.8298,-17.8636 40.6171,-2.1738 20.104,4.9295 -6.3998,-2.5277 -15.6355,2.048 -20.104,-4.9295 z"
   id="path2956"
   style="fill:#d77102;stroke:#d77102;stroke-width:0.551169" /><path
   d="m 2217.6396,1100.3192 c 18.7252,-14.5511 21.0729,42.1653 1.2743,13.1371 -2.2483,-3.9051 -3.1191,-8.876 -1.2743,-13.1371 z"
   id="path2958"
   style="fill:#9e3a0b;stroke:#9e3a0b;stroke-width:0.551169" /><path
   d="m 2449.4331,1099.6978 c 16.4161,-16.5031 6.129,22.0792 0,0 z"
   id="path2960"
   style="fill:#f1922b;stroke:#f1922b;stroke-width:0.551169" /><path
   d="m 2094.8963,1103.4148 c 12.5933,-13.2529 44.5559,19.0623 9.9075,13.3054 -6.5325,-0.2471 -12.6667,-6.5127 -9.9075,-13.3054 z"
   id="path2962"
   style="fill:#dd7d2b;stroke:#dd7d2b;stroke-width:0.551169" /><path
   d="m 2421.4109,1096.7898 c 21.1952,4.4053 -12.8561,19.8633 0,0 z"
   id="path2964"
   style="fill:#f1922b;stroke:#f1922b;stroke-width:0.551169" /><path
   d="m 2379.6263,1101.6325 c 19.0692,-3.4385 -11.5085,18.4089 0,0 z"
   id="path2966"
   style="fill:#e1bea1;stroke:#e1bea1;stroke-width:0.551169" /><path
   d="m 2077.3928,1105.6426 c 10.3482,-19.126 6.9624,17.4811 0,0 z"
   id="path2968"
   style="fill:#e1bca0;stroke:#e1bca0;stroke-width:0.551169" /><path
   d="m 2377.0158,1100.9055 c 11.3192,19.4576 3.2386,53.2996 -25.1818,55.7559 -11.4536,-7.7172 2.7897,-24.319 1.7311,-36.6227 14.7998,3.4564 18.8187,-5.2087 23.4507,-19.1332 z m -21.4633,33.84 c 10.0722,17.9099 12.6046,-23.2663 0.063,-0.3172 l -9e-4,0 z"
   id="path2970"
   style="fill:#ea8512;stroke:#ea8512;stroke-width:0.551169" /><path
   d="m 2505.7272,1103.0982 c 18.4999,-2.2442 15.2889,-0.083 -0.81,3.6936 -11.6103,23.8437 -23.7544,44.8752 -52.9307,47.7829 -17.414,7.1343 5.9527,-19.8084 7.3206,-28.8818 11.897,-13.1167 29.8132,-18.3821 46.4201,-22.5947 z"
   id="path2972"
   style="fill:#c15700;stroke:#c15700;stroke-width:0.551169" /><path
   d="m 2164.1849,1110.4618 c 14.5103,3.3613 66.1645,-20.4546 35.6625,4.0912 -10.178,25.2853 -55.7294,43.0891 -65.3882,9.0219 -9.0998,1.6008 -2.5476,30.3483 -24.4909,19.9622 -13.8668,35.4477 0.045,-45.1366 24.2176,-30.1607 10.0894,0.9344 20.2043,-0.544 29.999,-2.9146 z"
   id="path2974"
   style="fill:#c05600;stroke:#c05600;stroke-width:0.551169" /><path
   d="m 2240.0335,1109.8169 c 7.1406,-23.1721 32.8022,24.6391 7.1557,7.9106 l -4.2956,-3.3213 z"
   id="path2976"
   style="fill:#9e3a0b;stroke:#9e3a0b;stroke-width:0.551169" /><path
   d="m 2308.0277,1109.6528 c 5.8568,-17.5318 15.4274,21.2032 25.4822,1.1452 0.1377,18.9575 -44.4164,60.6311 -47.2404,28.5784 3.9047,-12.0826 14.6735,-19.7076 21.7582,-29.7236 z"
   id="path2978"
   style="fill:#9b3804;stroke:#9b3804;stroke-width:0.551169" /><path
   d="m 2351.3046,1107.4015 c 2.1705,-4.7895 -7.242,16.582 -14.8379,18.341 3.316,14.892 21.6953,11.4833 8.4582,27.3217 25.3399,14.3738 -21.9019,37.5023 -23.1902,61.3742 1.3885,15.5647 -19.9814,34.1682 -13.8308,7.7097 5.4687,-29.3518 22.6976,-49.8364 32.9026,-74.5413 1.237,-19.3129 -30.1904,-13.8986 -9.0976,-29.6627 4.0549,-6.189 11.0053,-15.5439 19.5957,-10.5426 z"
   id="path2980"
   style="fill:#ee902a;stroke:#ee902a;stroke-width:0.551169" /><path
   d="m 2358.6304,1105.0446 c 18.7894,-9.2159 2.6003,18.628 0,0 z"
   id="path2982"
   style="fill:#ea8717;stroke:#ea8717;stroke-width:0.551169" /><path
   d="m 2057.8788,1111.2357 c 16.2343,-25.9905 8.6804,25.4839 0,0 z"
   id="path2984"
   style="fill:#e1bda1;stroke:#e1bda1;stroke-width:0.551169" /><path
   d="m 2278.7516,1110.2273 c 37.3692,-28.4155 -0.8404,64.1521 5.8605,19.6623 -5.9458,-22.2357 -29.8588,19.1014 -42.6436,13.7729 -25.0087,10.8846 -52.8322,19.3884 -79.387,30.0606 -18.0328,0.071 -28.7823,24.793 -41.6935,8.875 -11.3713,1.3147 -16.7008,25.1253 -1.3676,13.894 -11.995,39.3658 -34.8612,-28.5544 -0.3727,-23.0162 49.8226,-13.7828 98.2246,-32.0961 144.0633,-56.0413 5.1739,-2.416 10.3523,-4.8224 15.5406,-7.2073 z"
   id="path2986"
   style="fill:#eb8a1f;stroke:#eb8a1f;stroke-width:0.551169" /><path
   d="m 1972.4764,1107.8001 c 24.4113,-0.2144 -4.4035,17.6372 0,0 z"
   id="path2994"
   style="fill:#f0922b;stroke:#f0922b;stroke-width:0.551169" /><path
   d="m 2363.9788,1110.3211 c 20.4712,5.9605 -8.4235,16.4015 0,0 z"
   id="path2996"
   style="fill:#e1bd9f;stroke:#e1bd9f;stroke-width:0.551169" /><path
   d="m 2094.0476,1113.9326 c 40.6093,-2.1777 -17.0592,35.296 0,0 z"
   id="path3000"
   style="fill:#d9770a;stroke:#d9770a;stroke-width:0.551169" /><path
   d="m 2110.4826,1117.4268 c 14.9032,-4.2539 -11.5749,25.145 -5.4213,35.4395 -2.7967,18.347 -47.7251,35.4645 -29.1232,5.4872 12.5589,-9.737 35.2009,-16.9472 27.0164,-32.87 2.6412,-2.5671 4.7222,-5.6491 7.5281,-8.0567 z"
   id="path3002"
   style="fill:#c65d06;stroke:#c65d06;stroke-width:0.551169" /><path
   d="m 2200.705,1119.6781 c 11.4715,-13.2617 41.8328,24.418 10.8286,11.8016 -5.0302,-2.0753 -9.9227,-6.127 -10.8286,-11.8016 z"
   id="path3004"
   style="fill:#9e3a0b;stroke:#9e3a0b;stroke-width:0.551169" /><path
   d="m 2082.1713,1129.4103 c 8.4966,-31.7261 39.0635,34.7062 4.3997,12.7608 -3.7415,-2.8972 -5.9895,-8.0821 -4.3997,-12.7608 z"
   id="path3006"
   style="fill:#dd7d2b;stroke:#dd7d2b;stroke-width:0.551169" /><path
   d="m 2268.4194,1129.5041 c 30.5932,-21.9223 9.766,43.0438 -6.3991,48.4405 4.0645,-11.7773 26.1543,-57.6104 -1.4209,-35.8035 -34.853,17.0845 -70.6622,33.6263 -108.6214,41.8675 -22.821,5.0554 -24.6561,41.3133 -35.0651,47.0508 -19.1748,-5.1398 12.5406,-38.4936 -8.8321,-31.6647 5.6405,-24.6974 29.1475,-3.2734 41.0352,-21.5549 29.815,-4.4221 53.91,-27.3251 84.7145,-26.1806 7.214,-16.3011 26.6988,-6.1907 34.5889,-22.1551 z"
   id="path3010"
   style="fill:#d05e03;stroke:#d05e03;stroke-width:0.551169" /><path
   d="m 2448.0237,1128.8006 c 7.2142,-7.2458 27.1596,-11.753 8.5289,-2.0402 10.931,28.3973 -61.9646,51.375 -54.568,45.0562 17.5083,-12.3246 20.3786,-42.09 46.0391,-43.016 z"
   id="path3012"
   style="fill:#cc5a01;stroke:#cc5a01;stroke-width:0.551169" /><path
   d="m 2127.6338,1128.5426 c 11.7692,-20.5929 27.6093,36.4804 3.3119,15.1262 -3.6121,-3.8484 -6.3456,-10.1058 -3.3119,-15.1262 z"
   id="path3018"
   style="fill:#9e3a0b;stroke:#9e3a0b;stroke-width:0.551169" /><path
   d="m 2338.7744,1120.0299 c 21.4589,14.9603 -16.6764,23.1571 0,0 z"
   id="path3020"
   style="fill:#e1bda1;stroke:#e1bda1;stroke-width:0.551169" /><path
   d="m 2053.5263,1120.323 c 13.554,9.7674 -12.9654,15.0453 0,0 z"
   id="path3024"
   style="fill:#e1bda0;stroke:#e1bda0;stroke-width:0.551169" /><path
   d="m 2487.8403,1138.6032 c 9.5588,-13.7712 55.0076,-24.7132 27.5552,2.1001 -15.7721,2.0112 -19.5351,10.0963 -11.1102,22.4856 -15.0282,3.7983 -32.5785,18.2613 -39.3001,-0.7526 4.0187,27.9285 -31.8,27.6794 -46.9981,36.2211 18.1148,-4.7497 35.7735,-17.0611 30.0735,-36.4211 8.4865,-14.3516 27.0249,-15.0754 39.7797,-23.6331 z"
   id="path3026"
   style="fill:#ab3d00;stroke:#ab3d00;stroke-width:0.551169" /><path
   d="m 2065.3207,1123.6531 c 19.7655,4.9201 -16.7834,23.4003 0,0 z"
   id="path3030"
   style="fill:#e1bca0;stroke:#e1bca0;stroke-width:0.551169" /><path
   d="m 2190.2278,1129.0703 c 10.316,-4.9084 11.271,23.9267 24.5387,8.4484 -11.0556,14.8876 -63.0251,28.9626 -46.5516,-0.6278 10.7732,6.9107 20.7773,8.9298 22.0129,-7.8206 z"
   id="path3036"
   style="fill:#9f3a0a;stroke:#9f3a0a;stroke-width:0.551169" /><path
   d="m 2355.5525,1134.7455 c 20.412,-27.1447 6.9269,22.7097 0,0 z"
   id="path3040"
   style="fill:#e1a475;stroke:#e1a475;stroke-width:0.551169" /><path
   d="m 2072.5438,1144.6653 c 4.0274,-34.6506 24.2624,14.5538 0,0 z"
   id="path3046"
   style="fill:#d9770c;stroke:#d9770c;stroke-width:0.551169" /><path
   d="m 2269.8278,1137.0906 c 11.5223,14.7781 -11.9068,49.0479 -24.5169,62.3473 -11.364,6.0006 -55.6195,14.5143 -36.3404,29.0319 36.1001,-7.2783 -10.5151,19.7745 -20.593,-2.0503 -22.9723,-28.7617 35.0594,-14.2292 47.185,-29.5655 15.8596,-4.8015 50.3438,-58.3425 34.2653,-59.7634 z"
   id="path3048"
   style="fill:#c45500;stroke:#c45500;stroke-width:0.551169" /><path
   d="m 2308.8257,1149.7073 c 5.1106,-26.1749 31.8862,-15.3214 23.1962,6.6361 -10.7598,7.582 -11.4247,-17.2632 -13.2832,4.3625 -4.7527,20.3297 3.0408,56.4541 -18.3489,64.2609 -13.8797,-22.6645 -5.2704,-54.3249 8.4355,-75.2595 m -1.8758,37.252 c -15.1469,18.9488 16.289,10.9677 0,0 z m -5.6168,18.5733 c -7.3037,28.6596 19.0717,-1.0503 0,0 z"
   id="path3050"
   style="fill:#e99533;stroke:#e99533;stroke-width:0.551169" /><path
   d="m 2347.3977,1132.201 c 16.5962,-4.9442 -7.9386,17.76 0,0 z"
   id="path3052"
   style="fill:#e1bea2;stroke:#e1bea2;stroke-width:0.551169" /><path
   d="m 2269.8278,1137.0906 c 3.6522,30.2889 -22.7068,62.5182 -53.0809,65.84 -16.8312,-0.8947 -51.788,13.6107 -22.5883,28.1626 10.9087,7.0418 60.5629,28.5247 22.8705,18.813 -27.1188,1.0945 -75.9314,-43.9881 -26.8779,-50.6717 23.0674,-1.7806 73.6946,-22.5442 62.7238,-42.3625 -32.3599,22.2951 -72.968,27.2054 -106.1425,47.9266 -19.5763,25.911 44.5939,48.7853 34.4148,55.2103 -30.5667,-8.6453 -76.7369,-55.3846 -27.3699,-73.5497 38.7407,-16.3589 79.7927,-27.35 116.0504,-49.3686 z"
   id="path3056"
   style="fill:#b64000;stroke:#b64000;stroke-width:0.551169" /><path
   d="m 2327.6339,1134.6751 c 25.4339,-1.9031 -7.2995,27.2256 0,0 z"
   id="path3058"
   style="fill:#e1bda0;stroke:#e1bda0;stroke-width:0.551169" /><path
   d="m 2506.6071,1164.329 c 1.1597,-13.4491 21.3085,-35.2613 8.1051,-10.1953 -8.947,41.7089 -55.8228,65.7186 -95.8104,59.0543 4.1604,-16.7695 54.3509,-7.2168 70.9387,-26.253 7.7866,-5.5275 13.7984,-13.5111 16.7666,-22.606 z"
   id="path3060"
   style="fill:#3b0401;stroke:#3b0401;stroke-width:0.551169" /><path
   d="m 2049.1219,1139.295 c 19.8469,13.6556 -18.9111,19.4583 0,0 z"
   id="path3066"
   style="fill:#e1bea4;stroke:#e1bea4;stroke-width:0.551169" /><path
   d="m 2379.845,1150.0004 c 13.8328,6.0506 52.0356,-22.055 37.4582,1.3277 1.0888,31.2351 -75.7306,38.9164 -37.4582,-1.3277 z"
   id="path3068"
   style="fill:#d35f04;stroke:#d35f04;stroke-width:0.551169" /><path
   d="m 2108.6587,1143.5631 c 16.0197,-7.9973 39.4295,25.6019 10.3272,13.7131 -5.4858,-2.1705 -10.8704,-7.2347 -10.3272,-13.7131 z"
   id="path3070"
   style="fill:#9e3a0b;stroke:#9e3a0b;stroke-width:0.551169" /><path
   d="m 2147.0856,1140.7607 c 17.1286,-4.5268 36.8064,23.9172 10.1283,21.0598 -14.5829,7.8498 -54.7186,19.915 -50.9788,-8.7835 8.8361,6.4099 38.6008,5.624 17.5134,-5.9397 6.4727,-5.3594 22.6143,6.057 23.3371,-6.3366 z"
   id="path3072"
   style="fill:#ae3f00;stroke:#ae3f00;stroke-width:0.551169" /><path
   d="m 2337.935,1138.8963 c 16.757,14.4335 -15.8881,23.8186 0,0 z"
   id="path3074"
   style="fill:#e1a475;stroke:#e1a475;stroke-width:0.551169" /><path
   d="m 2513.2302,1154.5147 c 19.2453,-17.4753 -10.0168,40.7415 -5.1329,53.318 -14.2349,27.7297 -52.3888,30.2787 -79.6672,25.815 -19.2277,0.6312 -27.9223,-29.1177 -1.9187,-20.3117 37.9468,2.6567 80.0361,-18.2543 86.7188,-58.8213 z"
   id="path3076"
   style="fill:#650c00;stroke:#650c00;stroke-width:0.551169" /><path
   d="m 2257.5484,1185.4585 c 10.2217,-11.4389 31.5076,-48.4419 16.2198,-12.2545 -13.3037,22.4309 -41.5301,35.2005 -60.4726,47.5867 21.7505,12.7473 -37.25,6.0589 -7.3969,-5.3704 18.8073,-6.4474 39.6732,-12.8359 51.6497,-29.9618 z"
   id="path3082"
   style="fill:#d97200;stroke:#d97200;stroke-width:0.551169" /><path
   d="m 2454.252,1153.2601 c 19.1338,-9.2446 -21.7007,15.5647 -10.6174,27.9279 -10.2361,26.4494 -85.3581,21.7439 -77.1406,23.639 14.8559,-36.1995 57.9237,-36.1382 87.758,-51.5669 z"
   id="path3084"
   style="fill:#ba4301;stroke:#ba4301;stroke-width:0.551169" /><path
   d="m 2293.6943,1152.2165 c 25.2578,-1.8842 -3.4565,48.6083 -22.6327,44.0985 -20.3301,4.9284 -39.1413,27.0571 -60.4886,21.5861 38.9045,-1.3877 53.551,-41.132 77.1267,-63.689 z"
   id="path3088"
   style="fill:#832000;stroke:#832000;stroke-width:0.551169" /><path
   d="m 2360.7445,1151.9234 c 32.8584,-6.3241 0.7203,44.2765 -18.4666,44.0785 -11.4605,-19.2163 17.7839,-28.0667 18.4666,-44.0785 z m -12.8079,23.0642 c -11.1089,41.9221 19.3442,-11.2834 0,0 z"
   id="path3090"
   style="fill:#d5680c;stroke:#d5680c;stroke-width:0.551169" /><path
   d="m 2321.3434,1149.6017 c 14.8112,10.4961 -12.1716,17.7032 0,0 z"
   id="path3098"
   style="fill:#e1bc9e;stroke:#e1bc9e;stroke-width:0.551169" /><path
   d="m 2333.2208,1153.1546 c 15.2177,8.6136 -13.5831,19.0874 0,0 z"
   id="path3102"
   style="fill:#e1bc9f;stroke:#e1bc9f;stroke-width:0.551169" /><path
   d="m 2098.6799,1156.7895 c 22.1069,3.0665 7.4234,40.9744 -2.8417,12.0747 -0.6221,-4.1457 -0.068,-8.8197 2.8417,-12.0747 z"
   id="path3104"
   style="fill:#9e3a0b;stroke:#9e3a0b;stroke-width:0.551169" /><path
   d="m 2329.0952,1163.0509 c 1.5001,-5.2661 -8.2546,16.7655 -7.9506,22.8804 -14.8666,-1.7524 8.2871,-12.6548 0.6897,-26.4494 0.8169,-5.8348 7.7793,3.0083 7.2609,3.569 z"
   id="path3106"
   style="fill:#e1a373;stroke:#e1a373;stroke-width:0.551169" /><path
   d="m 2038.6975,1159.3808 c 12.95,3.3174 -11.2105,16.7015 0,0 z"
   id="path3110"
   style="fill:#e1bda0;stroke:#e1bda0;stroke-width:0.551169" /><path
   d="m 2461.9322,1169.1717 c 4.1708,-18.1173 24.8868,23.062 26.447,-4.2564 21.6552,-9.6167 15.0985,24.7317 -3.063,12.2947 -6.9566,14.4422 -27.514,8.6549 -23.384,-8.0383 z"
   id="path3116"
   style="fill:#9e3a0b;stroke:#9e3a0b;stroke-width:0.551169" /><path
   d="m 2085.529,1175.8083 c 20.0654,-27.1628 19.4564,33.8911 3.6478,41.8648 -8.2882,24.5325 -46.7642,69.9917 -61.824,26.0469 -4.9141,-15.7999 -30.6478,-48.1327 -18.2095,-52.6014 9.628,24.1601 52.5563,64.8196 60.8067,18.323 2.1629,-18.3905 14.7001,-33.1943 27.7654,-15.2644 4.6031,-6.3229 -4.9413,-19.0149 -12.1864,-18.3689 z"
   id="path3118"
   style="fill:#b14505;stroke:#b14505;stroke-width:0.551169" /><path
   d="m 2312.9503,1179.4315 c -3.0668,-30.5162 19.5212,9.961 0,0 z"
   id="path3128"
   style="fill:#e1bda0;stroke:#e1bda0;stroke-width:0.551169" /><path
   d="m 2347.9366,1174.9876 c 17.989,-3.9814 -8.3736,26.1558 0,0 z"
   id="path3142"
   style="fill:#f1922c;stroke:#f1922c;stroke-width:0.551169" /><path
   d="m 2033.9926,1176.0311 c 18.1086,2.4675 -10.863,17.8931 0,0 z"
   id="path3146"
   style="fill:#e1bda1;stroke:#e1bda1;stroke-width:0.551169" /><path
   d="m 2085.529,1175.8083 c 32.9015,11.0869 -12.9301,28.8766 0,0 z"
   id="path3148"
   style="fill:#9e3a0b;stroke:#9e3a0b;stroke-width:0.551169" /><path
   d="m 2365.5541,1179.7012 c 8.7729,-4.052 39.9263,-5.507 14.7572,0.2697 -10.1579,32.9239 -44.2918,53.6861 -53.8494,86.1719 -23.3744,7.303 -16.0472,-5.6434 -1.229,-12.635 12.1067,-27.0525 6.9735,-59.9508 40.3212,-73.8066 z"
   id="path3150"
   style="fill:#c04d08;stroke:#c04d08;stroke-width:0.551169" /><path
   d="m 2483.2483,1175.6911 c 37.258,13.2072 -46.6269,19.345 -7.7289,9.9474 4.6852,-0.4234 9.3041,-5.0826 7.7289,-9.9474 z"
   id="path3154"
   style="fill:#8f2600;stroke:#8f2600;stroke-width:0.551169" /><path
   d="m 2329.6859,1197.7234 c 5.8713,-11.836 13.3905,-22.3432 11.5312,-3.5842 -12.3304,8.5703 0.9524,25.9569 -17.8573,36.473 19.2498,8.4503 -24.0826,43.3844 -8.4094,16.9264 -26.8705,-2.5181 -35.0567,-37.0212 -20.4011,-55.6914 -13.3289,21.4847 21.6141,64.2294 26.6647,24.8329 4.535,-5.3252 8.4554,-11.7044 8.4719,-18.9567 z"
   id="path3158"
   style="fill:#d27218;stroke:#d27218;stroke-width:0.551169" /><path
   d="m 2450.2,1181.5304 c 18.2699,3.3805 28.6442,23.9245 2.8081,14.39 -7.1697,-1.4927 -11.0228,-11.2409 -2.8081,-14.39 z"
   id="path3160"
   style="fill:#9e3a0a;stroke:#9e3a0a;stroke-width:0.551169" /><path
   d="m 2046.6357,1192.4352 c 19.0296,-24.8045 42.962,11.5196 21.1741,27.9803 -12.2826,36.7526 -74.1615,-26.8443 -32.3869,-17.0664 11.136,1.7164 46.5465,-9.8325 17.5412,-7.0404 l -4.025,-0.9312 z"
   id="path3164"
   style="fill:#c6600c;stroke:#c6600c;stroke-width:0.551169" /><path
   d="m 2137.8934,1191.7551 c 30.8061,-14.2279 -26.9651,14.9777 -3.2879,32.4712 7.3939,15.4776 42.8323,31.9548 40.2901,39.8394 -31.6641,-3.9005 -64.042,-28.6275 -45.806,-61.207 1.6809,-4.4929 4.7299,-8.5214 8.8038,-11.1036 z"
   id="path3166"
   style="fill:#c05200;stroke:#c05200;stroke-width:0.551169" /><path
   d="m 2306.9499,1186.9593 c 17.3179,8.2037 -16.0472,21.3724 0,0 z"
   id="path3168"
   style="fill:#e1bc9e;stroke:#e1bc9e;stroke-width:0.551169" /><path
   d="m 2410.7264,1200.432 c 12.3269,-11.8949 68.0605,-3.463 27.1932,0.605 -29.5546,1.861 -40.9586,33.3388 -14.9903,48.0131 -2.6042,27.5689 -54.8587,16.2131 -59.8815,0.9858 -9.4612,-14.5243 -14.6758,-22.8227 -15.5294,0.3757 -19.0619,30.4593 -9.1607,-47.3363 15.8355,-23.9987 6.2345,20.1695 30.3374,-1.2849 4.9007,-3.5589 -17.84,-18.4998 13.4275,-10.4571 18.8272,-2.683 2.9048,-11.2685 -0.9264,-21.8073 17.3651,-18.1281 2.0932,-0.537 4.1863,-1.0739 6.2795,-1.6109 z"
   id="path3172"
   style="fill:#9e2800;stroke:#9e2800;stroke-width:0.551169" /><path
   d="m 2266.6566,1199.1305 c 22.7232,-26.1732 35.6321,38.1146 9.474,16.9563 -14.6838,1.061 -57.3388,24.2888 -51.0021,1.5365 12.9894,-7.9146 27.2559,-13.3917 41.5281,-18.4928 z"
   id="path3176"
   style="fill:#670e00;stroke:#670e00;stroke-width:0.551169" /><path
   d="m 2370.6942,1207.9129 c 12.6375,-28.353 35.7715,33.1734 5.4331,9.058 l -3.8896,-4.0817 z"
   id="path3180"
   style="fill:#9e3a0b;stroke:#9e3a0b;stroke-width:0.551169" /><path
   d="m 2331.6663,1197.055 c 20.7058,-7.7922 4.2102,19.1151 0,0 z"
   id="path3182"
   style="fill:#f1922b;stroke:#f1922b;stroke-width:0.551169" /><path
   d="m 2087.3529,1217.8679 c 2.5703,-35.2448 51.9572,21.5951 16.6505,17.9919 -11.6682,12.0047 -47.3638,28.8429 -25.3357,-2.0906 2.7992,-5.3513 5.5533,-10.733 8.6852,-15.9013 z"
   id="path3194"
   style="fill:#912600;stroke:#912600;stroke-width:0.551169" /><path
   d="m 2301.3331,1205.5326 c 18.4753,4.3419 -8.525,23.1033 0,0 z"
   id="path3200"
   style="fill:#e1bd9f;stroke:#e1bd9f;stroke-width:0.551169" /><path
   d="m 2157.1068,1214.3854 c 20.1036,14.9266 38.5707,32.6381 61.6293,43.0772 -8.8042,-9.193 -49.0007,-12.591 -21.621,3.3124 17.4973,15.6922 -25.4561,-13.6773 -32.8406,-18.5827 -6.6394,-3.8606 -30.6397,-33.9259 -7.1677,-27.8069 z"
   id="path3206"
   style="fill:#9b2b00;stroke:#9b2b00;stroke-width:0.551169" /><path
   d="m 2010.5188,1217.094 c 12.7334,12.6782 29.0792,44.3224 29.4137,51.4586 -15.0241,-12.6461 -29.9249,-30.776 -29.4137,-51.4586 z"
   id="path3218"
   style="fill:#912700;stroke:#912700;stroke-width:0.551169" /><path
   d="m 2356.0095,1217.5161 c 16.6496,-4.4942 34.044,28.6045 7.7648,15.1457 -5.6408,-2.481 -9.1582,-9.0857 -7.7648,-15.1457 z"
   id="path3222"
   style="fill:#9e3a0b;stroke:#9e3a0b;stroke-width:0.551169" /><path
   d="m 2245.3405,1230.0273 c 6.8753,-37.3241 71.9219,7.8895 34.6994,12.8849 -11.3375,-4.8665 -22.7358,-9.7481 -34.6994,-12.8849 z"
   id="path3224"
   style="fill:#500600;stroke:#500600;stroke-width:0.551169" /><path
   d="m 2406.6847,1229.7811 c 5.3569,-14.6208 33.3969,20.4028 48.5519,3.9235 17.3458,-7.3387 35.1792,3.3546 9.5264,10.1548 -19.5162,6.8959 -47.9556,8.2917 -58.0783,-14.0783 z"
   id="path3230"
   style="fill:#7c1400;stroke:#7c1400;stroke-width:0.551169" /><path
   d="m 2325.4887,1224.4577 c 23.5643,3.7376 -17.1116,16.5365 0,0 z"
   id="path3248"
   style="fill:#f1932b;stroke:#f1932b;stroke-width:0.551169" /><path
   d="m 2226.0742,1225.7709 c 13.018,1.3682 55.8937,12.8625 46.3238,19.5003 -14.4099,-9.3209 -35.2381,-4.3462 -46.3238,-19.5003 z"
   id="path3254"
   style="fill:#cf6c01;stroke:#cf6c01;stroke-width:0.551169" /><path
   d="m 2288.9376,1228.5968 c 1.4912,14.4416 45.658,38.1206 10.9246,38.7562 -32.2329,-6.5971 -2.6118,-19.498 -10.9246,-38.7562 z"
   id="path3256"
   style="fill:#c46609;stroke:#c46609;stroke-width:0.551169" /><path
   d="m 2214.4995,1233.416 c 15.6335,-16.0944 46.7566,21.5029 12.0641,6.4107 -4.3046,-1.399 -9.2079,-2.4877 -12.0641,-6.4107 z"
   id="path3258"
   style="fill:#dd7d2b;stroke:#dd7d2b;stroke-width:0.551169" /><path
   d="m 2100.8966,1234.3892 c 41.6497,-3.899 57.2999,45.8962 94.2015,55.0054 28.8148,24.371 -49.1695,-30.3491 -22.9438,2.8133 -27.4968,-8.1139 -70.4363,-15.2661 -75.119,-49.4204 -1.4841,-4.303 1.752,-6.0442 3.8613,-8.3983 z"
   id="path3264"
   style="fill:#721100;stroke:#721100;stroke-width:0.551169" /><path
   d="m 2200.1868,1233.5684 c 14.4848,7.5354 66.4638,3.7299 51.5978,23.7537 -19.1202,-1.943 -34.9785,-15.2083 -51.5978,-23.7537 z"
   id="path3268"
   style="fill:#b65000;stroke:#b65000;stroke-width:0.551169" /><path
   d="m 2346.693,1239.2788 c 4.7799,-14.907 19.8146,16.4089 18.5365,18.1288 -10.5544,7.4107 -23.8984,-7.7494 -18.5365,-18.1288 z"
   id="path3270"
   style="fill:#9e3a0b;stroke:#9e3a0b;stroke-width:0.551169" /><path
   d="m 2254.3876,1236.5467 c 12.1617,6.119 46.6685,18.6533 13.5394,21.1489 -12.0423,0.9493 -15.1548,-11.7348 -13.5394,-21.1489 z"
   id="path3286"
   style="fill:#dd7d2b;stroke:#dd7d2b;stroke-width:0.551169" /><path
   d="m 2300.5455,1246.1851 c 29.0032,-22.4135 9.8986,32.8073 0,0 z"
   id="path3294"
   style="fill:#f2932c;stroke:#f2932c;stroke-width:0.551169" /><path
   d="m 2193.1916,1242.4681 c 26.3536,7.1563 81.6973,20.135 85.4,38.0538 -31.0293,-3.9281 -56.6532,-26.7143 -85.4,-38.0538 z"
   id="path3300"
   style="fill:#9c3700;stroke:#9c3700;stroke-width:0.551169" /><path
   d="m 2322.1518,1244.3677 c 22.8426,-11.0378 -5.5309,33.9626 0,0 z"
   id="path3302"
   style="fill:#f1922b;stroke:#f1922b;stroke-width:0.551169" /><path
   d="m 2135.0642,1246.2437 c 24.2964,16.4022 71.3578,35.3205 79.2172,54.459 -6.6305,2.2022 -29.2361,-2.4995 -9.198,-2.3007 -20.7305,-20.8165 -50.9504,-29.3914 -70.0192,-52.1583 z"
   id="path3310"
   style="fill:#922800;stroke:#922800;stroke-width:0.551169" /><path
   d="m 2172.3615,1247.3225 c 14.8971,12.2722 68.0314,34.5763 53.5473,46.9157 -17.6618,-15.8458 -38.2914,-28.4847 -53.5473,-46.9157 z"
   id="path3322"
   style="fill:#9b3700;stroke:#9b3700;stroke-width:0.551169" /><path
   d="m 2183.1196,1251.2388 c 29.4295,-3.1887 85.0826,21.9254 86.7585,37.9836 -35.4738,-0.083 -61.241,-15.788 -86.7585,-37.9836 z"
   id="path3324"
   style="fill:#8d2700;stroke:#8d2700;stroke-width:0.551169" /><path
   d="m 2163.1704,1249.4331 c 17.3624,12.4231 64.9687,35.2858 58.5551,49.2239 -14.6251,-8.8117 -56.2506,-32.7533 -51.1316,-34.242 23.1726,8.1084 -2.002,-12.0992 -7.4235,-14.9819 z"
   id="path3330"
   style="fill:#ad4b00;stroke:#ad4b00;stroke-width:0.551169" /><path
   d="m 2235.7234,1252.9859 c 14.9176,8.2791 65.6434,-5.6781 51.5453,21.0231 -19.8687,2.0362 -33.5797,-16.2502 -51.5453,-21.0231 z"
   id="path3350"
   style="fill:#ac4b00;stroke:#ac4b00;stroke-width:0.551169" /><path
   d="m 2332.713,1256.8436 c 14.7279,2.9552 48.7999,19.8132 14.1164,16.8433 -15.3719,4.9146 -30.2013,-1.4176 -14.1164,-16.8433 z"
   id="path3358"
   style="fill:#9e390a;stroke:#9e390a;stroke-width:0.551169" /><path
   d="m 2113.7274,1270.6446 c 12.2837,12.1919 54.9788,12.0511 49.1464,30.1779 -15.2569,2.1095 -15.4583,-1.0448 -17.2082,-6.3416 -12.5883,-4.1229 -42.0733,-2.023 -31.9382,-23.8363 z"
   id="path3420"
   style="fill:#5f0801;stroke:#5f0801;stroke-width:0.551169" /><path
   d="m 2161.8428,1275.6866 c 12.6971,4.7845 55.5678,27.8933 17.9116,26.553 -30.2138,3.1735 0.2516,-15.3245 -17.9116,-26.553 z"
   id="path3454"
   style="fill:#430601;stroke:#430601;stroke-width:0.551169" /><path
   style="fill:#ffffff;fill-opacity:1;stroke-width:0.95317"
   d="m 1947.805,1122.276 c 30.1072,32.3454 58.5056,66.2199 86.8837,100.0758 45.4291,21.5003 90.9752,42.7599 136.8418,63.3132 50.4138,-2.9546 102.5773,1.1683 150.3638,-18.4841 52.8733,-15.0286 104.8775,-33.3858 154.8213,-56.41 25.1974,-24.2972 37.6716,-58.728 59.2394,-84.6268 34.7532,-7.5724 33.443,42.883 19.6142,62.2731 -22.0235,25.6251 -43.5107,51.5757 -64.0508,78.4249 -21.127,20.5931 -54.043,14.5575 -80.6823,22.0759 -73.9762,11.8507 -147.9525,23.7013 -221.9288,35.5519 -48.5101,-8.1694 -97.0201,-16.3389 -145.5302,-24.5083 -29.6853,-32.6778 -59.3705,-65.3556 -89.0558,-98.0334 -2.1721,-26.5507 -4.3442,-53.1015 -6.5163,-79.6522 z"
   id="path26" /></g> </g>

</svg>
